M48
; DRILL file KiCad 10.0.0 date 2026-04-10T22:58:52
; FORMAT={-:-/ absolute / metric / decimal}
; #@! TF.CreationDate,2026-04-10T22:58:52+08:00
; #@! TF.GenerationSoftware,Kicad,Pcbnew,10.0.0
; #@! TF.FileFunction,Plated,1,2,PTH
FMAT,2
METRIC
; #@! TA.AperFunction,Plated,PTH,ViaDrill
T1C0.300
; #@! TA.AperFunction,Plated,PTH,ComponentDrill
T2C0.600
; #@! TA.AperFunction,Plated,PTH,ComponentDrill
T3C0.800
; #@! TA.AperFunction,Plated,PTH,ComponentDrill
T4C1.000
; #@! TA.AperFunction,Plated,PTH,ComponentDrill
T5C1.016
; #@! TA.AperFunction,Plated,PTH,ComponentDrill
T6C1.200
; #@! TA.AperFunction,Plated,PTH,ComponentDrill
T7C1.400
; #@! TA.AperFunction,Plated,PTH,ComponentDrill
T8C1.900
; #@! TA.AperFunction,Plated,PTH,ComponentDrill
T9C2.700
; #@! TA.AperFunction,Plated,PTH,ComponentDrill
T10C3.200
%
G90
G05
T1
X114.046Y-90.932
X116.078Y-90.932
X117.094Y-69.596
X118.11Y-85.598
X118.11Y-87.376
X118.11Y-89.154
X118.11Y-90.932
X118.618Y-53.34
X118.618Y-54.864
X118.618Y-68.072
X118.618Y-69.596
X119.888Y-89.154
X119.888Y-90.932
X120.142Y-53.34
X120.142Y-54.864
X120.142Y-57.912
X120.142Y-63.5
X120.142Y-66.548
X120.142Y-68.072
X120.142Y-69.596
X121.666Y-53.34
X121.666Y-54.864
X121.666Y-57.912
X121.666Y-63.5
X121.666Y-66.548
X121.666Y-68.072
X121.666Y-69.596
X121.666Y-89.154
X121.666Y-90.932
X123.19Y-53.34
X123.19Y-54.864
X123.19Y-57.912
X123.19Y-63.5
X123.19Y-66.548
X123.19Y-68.072
X123.19Y-69.596
X123.444Y-89.154
X124.714Y-53.34
X124.714Y-54.864
X124.714Y-57.912
X124.714Y-63.5
X124.714Y-66.548
X124.714Y-68.072
X124.714Y-69.596
X124.841Y-108.077
X124.841Y-109.347
X124.841Y-110.617
X124.841Y-111.887
X124.841Y-113.157
X124.841Y-114.427
X125.222Y-85.598
X125.222Y-87.376
X125.222Y-89.154
X126.111Y-114.427
X126.238Y-54.864
X126.238Y-57.912
X126.238Y-63.5
X126.238Y-66.548
X126.238Y-68.072
X127.0Y-85.598
X127.0Y-87.376
X127.381Y-114.427
X127.381Y-115.697
X127.762Y-57.912
X127.762Y-63.5
X127.762Y-66.548
X128.651Y-114.427
X128.651Y-115.697
X129.286Y-57.912
X129.286Y-63.5
X129.794Y-83.566
X129.921Y-114.427
X129.921Y-115.697
X130.81Y-53.34
X130.81Y-57.912
X130.81Y-63.5
X130.81Y-69.596
X131.191Y-114.427
X131.191Y-115.697
X131.826Y-83.566
X132.334Y-53.34
X132.334Y-57.912
X132.334Y-63.5
X132.334Y-68.072
X132.334Y-69.596
X132.461Y-114.427
X132.461Y-115.697
X133.096Y-103.632
X133.096Y-104.902
X133.858Y-53.34
X133.858Y-57.912
X133.858Y-63.5
X133.858Y-68.072
X133.858Y-69.596
X133.858Y-83.566
X133.858Y-85.344
X133.858Y-87.122
X134.366Y-103.632
X134.366Y-104.902
X134.366Y-106.172
X135.382Y-53.34
X135.382Y-57.912
X135.382Y-63.5
X135.382Y-68.072
X135.382Y-69.596
X135.636Y-103.632
X135.636Y-104.902
X135.636Y-106.172
X135.89Y-83.566
X135.89Y-85.344
X135.89Y-87.122
X136.906Y-53.34
X136.906Y-57.912
X136.906Y-63.5
X136.906Y-68.072
X136.906Y-69.596
X136.906Y-103.632
X136.906Y-104.902
X136.906Y-106.172
X137.16Y-133.096
X137.16Y-135.636
X137.16Y-138.176
X137.922Y-83.566
X138.176Y-103.632
X138.176Y-104.902
X138.176Y-106.172
X138.176Y-107.442
X138.43Y-53.34
X138.43Y-57.912
X138.43Y-63.5
X138.43Y-68.072
X138.43Y-69.596
X138.43Y-131.826
X138.43Y-134.366
X138.43Y-136.906
X138.43Y-139.446
X139.446Y-103.632
X139.446Y-104.902
X139.446Y-106.172
X139.446Y-107.442
X139.7Y-125.476
X139.7Y-130.556
X139.7Y-133.096
X139.7Y-135.636
X139.7Y-138.176
X139.954Y-53.34
X139.954Y-57.912
X139.954Y-63.5
X139.954Y-68.072
X139.954Y-83.566
X140.716Y-103.632
X140.716Y-104.902
X140.716Y-106.172
X140.716Y-107.442
X141.478Y-57.912
X141.478Y-63.5
X141.986Y-83.566
X141.986Y-85.344
X141.986Y-87.122
X143.002Y-57.912
X143.002Y-63.5
X143.51Y-101.346
X143.51Y-103.886
X143.51Y-106.426
X143.51Y-108.966
X143.51Y-111.506
X143.764Y-83.566
X143.764Y-85.344
X143.764Y-87.122
X143.764Y-88.9
X144.526Y-57.912
X144.526Y-63.5
X144.78Y-102.616
X144.78Y-105.156
X144.78Y-107.696
X144.78Y-110.236
X145.542Y-83.566
X145.542Y-85.344
X145.542Y-87.122
X145.542Y-88.9
X145.542Y-90.678
X147.32Y-83.566
X147.32Y-85.344
X147.32Y-87.122
X148.59Y-96.266
X148.59Y-98.806
X148.59Y-101.346
X148.59Y-103.886
X149.352Y-83.566
X149.352Y-85.344
X149.352Y-87.122
X149.86Y-97.536
X149.86Y-102.616
X150.622Y-47.752
X151.13Y-83.566
X151.13Y-85.344
X151.13Y-87.122
X151.13Y-96.266
X151.13Y-98.806
X151.13Y-101.346
X151.13Y-103.886
X152.4Y-97.536
X152.4Y-102.616
X152.908Y-83.566
X152.908Y-85.344
X152.908Y-87.122
X153.67Y-96.266
X153.67Y-98.806
X153.67Y-101.346
X153.67Y-103.886
X153.67Y-124.206
X154.94Y-45.466
X154.94Y-58.166
X154.94Y-63.246
X154.94Y-94.996
X154.94Y-97.536
X154.94Y-102.616
X154.94Y-122.936
X156.21Y-46.736
X156.21Y-78.486
X156.21Y-81.026
X156.21Y-83.566
X156.21Y-86.106
X156.21Y-88.646
X156.21Y-91.186
X156.21Y-93.726
X156.21Y-96.266
X156.21Y-101.346
X156.21Y-103.886
X156.21Y-106.934
X156.21Y-121.666
X157.48Y-58.166
X157.48Y-63.246
X157.48Y-79.756
X157.48Y-82.296
X157.48Y-84.836
X157.48Y-87.376
X157.48Y-89.916
X157.48Y-92.456
X157.48Y-94.996
X157.48Y-100.076
X157.48Y-102.616
X157.48Y-107.696
X157.48Y-110.236
X157.48Y-112.776
X157.48Y-115.316
X157.48Y-117.856
X157.48Y-120.396
X157.48Y-125.476
X158.75Y-47.752
X158.75Y-73.406
X158.75Y-124.206
X160.02Y-58.166
X160.02Y-63.246
X160.02Y-74.676
X160.02Y-79.756
X160.02Y-82.296
X160.02Y-84.836
X160.02Y-87.376
X160.02Y-89.916
X160.02Y-92.456
X160.02Y-97.536
X160.02Y-100.076
X160.02Y-105.156
X160.02Y-107.696
X160.02Y-110.236
X160.02Y-112.776
X160.02Y-115.316
X160.02Y-117.856
X160.02Y-120.396
X160.02Y-122.936
X160.02Y-125.476
X161.29Y-45.466
X161.29Y-61.976
X161.29Y-73.406
X161.29Y-75.946
X161.29Y-108.966
X162.56Y-46.736
X162.56Y-58.166
X162.56Y-60.706
X162.56Y-74.676
X162.56Y-77.216
X162.56Y-79.756
X162.56Y-82.296
X162.56Y-84.836
X162.56Y-87.376
X162.56Y-89.916
X162.56Y-94.996
X162.56Y-97.536
X162.56Y-102.616
X162.56Y-105.156
X162.56Y-107.696
X162.56Y-110.236
X162.56Y-125.476
X163.83Y-45.466
X163.83Y-56.896
X163.83Y-59.436
X163.83Y-106.426
X163.83Y-108.966
X163.83Y-111.506
X163.83Y-114.046
X163.83Y-116.586
X163.83Y-119.126
X163.83Y-121.666
X163.83Y-124.206
X165.1Y-46.736
X165.1Y-55.626
X165.1Y-58.166
X165.1Y-64.516
X165.1Y-105.156
X165.1Y-107.696
X165.1Y-110.236
X166.37Y-54.356
X166.37Y-56.896
X166.37Y-63.246
X166.37Y-103.886
X166.37Y-106.426
X166.37Y-108.966
X166.37Y-111.506
X166.37Y-114.046
X166.37Y-116.586
X166.37Y-119.126
X166.37Y-121.666
X166.37Y-124.206
X166.878Y-46.99
X167.64Y-83.566
X167.64Y-88.646
X167.64Y-91.186
X167.64Y-93.726
X167.64Y-97.536
X167.64Y-100.076
X167.64Y-102.616
X167.64Y-105.156
X167.64Y-107.696
X167.64Y-110.236
X167.64Y-125.476
X168.148Y-81.534
X168.91Y-87.376
X168.91Y-89.916
X168.91Y-92.456
X168.91Y-96.266
X168.91Y-98.806
X168.91Y-103.886
X168.91Y-106.426
X168.91Y-108.966
X168.91Y-111.506
X170.18Y-45.466
X170.18Y-59.436
X170.18Y-64.516
X170.18Y-75.946
X170.18Y-78.486
X170.18Y-88.646
X170.18Y-91.186
X170.18Y-94.996
X170.18Y-97.536
X170.18Y-105.156
X170.18Y-107.696
X170.18Y-110.236
X170.18Y-112.776
X170.18Y-125.476
X171.45Y-58.166
X171.45Y-74.676
X171.45Y-77.216
X171.45Y-79.756
X171.45Y-93.726
X171.45Y-96.266
X171.45Y-106.426
X171.45Y-108.966
X171.45Y-111.506
X171.45Y-114.046
X172.212Y-72.898
X172.72Y-45.466
X172.72Y-56.896
X172.72Y-64.516
X172.72Y-75.946
X172.72Y-78.486
X172.72Y-92.456
X172.72Y-94.996
X172.72Y-107.696
X172.72Y-110.236
X172.72Y-112.776
X172.72Y-115.316
X172.72Y-125.476
X173.99Y-55.626
X173.99Y-93.726
X173.99Y-108.966
X173.99Y-111.506
X173.99Y-114.046
X173.99Y-116.586
X175.006Y-46.898
X175.26Y-54.356
X175.26Y-64.516
X175.26Y-110.236
X175.26Y-112.776
X175.26Y-115.316
X175.26Y-117.856
X175.26Y-120.396
X175.26Y-122.936
X175.26Y-125.476
X175.514Y-72.39
X176.022Y-77.978
X176.53Y-79.756
X176.53Y-111.506
X176.53Y-114.046
X176.53Y-116.586
X177.8Y-45.466
X177.8Y-64.516
X177.8Y-78.486
X177.8Y-112.776
X177.8Y-115.316
X177.8Y-117.856
X177.8Y-120.396
X177.8Y-122.936
X177.8Y-125.476
X179.07Y-79.756
X179.07Y-114.046
X179.07Y-116.586
X180.34Y-45.466
X180.34Y-64.516
X180.34Y-78.486
X180.34Y-115.316
X180.34Y-117.856
X180.34Y-125.476
X181.61Y-79.756
X181.61Y-116.586
X181.61Y-119.126
X181.61Y-119.126
X182.88Y-64.516
X182.88Y-78.486
X182.88Y-117.856
X182.88Y-120.396
X182.88Y-125.476
X184.15Y-46.99
X184.15Y-65.786
X184.15Y-74.676
X184.15Y-77.216
X184.15Y-79.756
X184.15Y-119.126
X184.15Y-121.666
X185.42Y-67.056
X185.42Y-75.946
X185.42Y-78.486
X185.42Y-120.396
X185.42Y-122.936
X185.42Y-125.476
X186.69Y-45.466
X186.69Y-121.666
X186.69Y-124.206
X187.96Y-67.056
X187.96Y-122.936
X189.23Y-45.466
X189.23Y-124.206
X190.5Y-67.056
X190.5Y-125.476
X191.262Y-47.752
X191.77Y-75.946
X193.04Y-67.056
X193.04Y-74.676
X193.04Y-77.216
X193.04Y-125.476
X194.31Y-45.466
X194.31Y-48.006
X195.58Y-46.736
X195.58Y-67.056
X195.58Y-125.476
X196.85Y-48.006
X196.85Y-136.906
X196.85Y-139.446
X198.12Y-67.056
X199.39Y-74.676
X199.39Y-77.216
X200.66Y-67.056
X200.66Y-75.946
T3
X154.557Y-135.382
X158.057Y-135.382
X166.128Y-135.382
X169.628Y-135.382
X177.841Y-135.382
X178.308Y-81.211
X178.308Y-84.711
X181.341Y-135.382
X189.355Y-135.382
X192.855Y-135.382
T4
X105.062Y-79.122
X105.062Y-90.122
X105.062Y-93.774
X105.062Y-104.774
X105.664Y-74.422
X105.918Y-51.308
X108.204Y-74.422
X108.458Y-51.308
X110.744Y-74.422
X110.998Y-51.308
X113.284Y-74.422
X113.538Y-51.308
X115.824Y-74.422
X116.078Y-51.308
X119.634Y-74.422
X119.888Y-51.308
X120.444Y-138.524
X122.174Y-74.422
X122.428Y-51.308
X124.714Y-74.422
X124.968Y-51.308
X127.254Y-74.422
X127.508Y-51.308
X129.794Y-74.422
X130.048Y-51.308
X131.444Y-138.524
X133.604Y-74.422
X133.858Y-51.308
X134.922Y-138.524
X136.144Y-74.422
X136.398Y-51.308
X138.684Y-74.422
X138.938Y-51.308
X139.192Y-81.373
X139.192Y-86.373
X141.224Y-74.422
X141.478Y-51.308
X143.764Y-74.422
X144.018Y-51.308
X145.922Y-138.524
X153.611Y-127.508
X156.151Y-127.508
X158.691Y-127.508
X165.125Y-127.508
X167.665Y-127.508
X170.205Y-127.508
X176.64Y-127.508
X179.18Y-127.508
X181.72Y-127.508
X188.155Y-127.508
X190.695Y-127.508
X193.235Y-127.508
T5
X197.358Y-85.021
X197.358Y-87.561
X197.358Y-90.101
X197.358Y-92.641
X197.358Y-95.181
X197.358Y-97.721
X197.358Y-100.261
X197.358Y-102.801
X197.358Y-105.341
X197.358Y-107.881
X197.358Y-110.421
X197.358Y-112.961
X197.358Y-115.501
X197.358Y-118.041
X197.358Y-120.581
X197.358Y-123.121
X197.358Y-125.661
X197.358Y-128.201
X197.358Y-130.741
X197.358Y-133.281
X199.898Y-85.021
X199.898Y-87.561
X199.898Y-90.101
X199.898Y-92.641
X199.898Y-95.181
X199.898Y-97.721
X199.898Y-100.261
X199.898Y-102.801
X199.898Y-105.341
X199.898Y-107.881
X199.898Y-110.421
X199.898Y-112.961
X199.898Y-115.501
X199.898Y-118.041
X199.898Y-120.581
X199.898Y-123.121
X199.898Y-125.661
X199.898Y-128.201
X199.898Y-130.741
X199.898Y-133.281
T6
X124.968Y-94.673
X124.968Y-99.673
X139.192Y-94.782
X139.192Y-99.782
T7
X120.416Y-108.484
X120.416Y-111.984
X120.416Y-117.784
X120.416Y-121.284
X122.916Y-108.484
X122.916Y-111.984
X122.916Y-117.784
X122.916Y-121.284
T8
X115.062Y-82.122
X115.062Y-87.122
X115.062Y-96.774
X115.062Y-101.774
X123.444Y-128.524
X128.444Y-128.524
X137.922Y-128.524
X142.922Y-128.524
T9
X114.846Y-111.393
X114.846Y-118.593
T10
X106.934Y-45.466
X106.934Y-137.16
X198.882Y-45.212
T2
X108.296Y-108.243G85X109.396Y-108.243
G05
X108.296Y-121.743G85X109.396Y-121.743
G05
M30
