M48
; DRILL file KiCad 10.0.0 date 2026-05-09T10:54:56
; FORMAT={-:-/ absolute / metric / decimal}
; #@! TF.CreationDate,2026-05-09T10:54:56+08:00
; #@! TF.GenerationSoftware,Kicad,Pcbnew,10.0.0
; #@! TF.FileFunction,Plated,1,2,PTH
FMAT,2
METRIC
; #@! TA.AperFunction,Plated,PTH,ViaDrill
T1C0.300
; #@! TA.AperFunction,Plated,PTH,ComponentDrill
T2C0.600
; #@! TA.AperFunction,Plated,PTH,ComponentDrill
T3C0.800
; #@! TA.AperFunction,Plated,PTH,ComponentDrill
T4C1.000
; #@! TA.AperFunction,Plated,PTH,ComponentDrill
T5C1.016
; #@! TA.AperFunction,Plated,PTH,ComponentDrill
T6C1.200
; #@! TA.AperFunction,Plated,PTH,ComponentDrill
T7C1.900
; #@! TA.AperFunction,Plated,PTH,ComponentDrill
T8C2.000
; #@! TA.AperFunction,Plated,PTH,ComponentDrill
T9C2.700
; #@! TA.AperFunction,Plated,PTH,ComponentDrill
T10C3.200
%
G90
G05
T1
X111.76Y-73.025
X111.76Y-74.295
X111.76Y-75.565
X111.76Y-76.835
X111.76Y-78.105
X111.76Y-79.375
X111.76Y-130.048
X111.76Y-131.064
X111.76Y-132.08
X111.76Y-133.096
X112.268Y-126.492
X113.03Y-79.375
X113.284Y-126.492
X113.284Y-134.62
X114.3Y-79.375
X114.3Y-126.492
X114.3Y-134.62
X115.316Y-126.492
X115.316Y-134.62
X115.57Y-79.375
X116.332Y-126.492
X116.332Y-134.62
X116.84Y-71.755
X116.84Y-79.375
X117.348Y-126.492
X117.348Y-134.62
X118.11Y-71.755
X118.11Y-79.375
X118.364Y-126.492
X118.364Y-134.62
X119.38Y-71.755
X119.38Y-73.025
X119.38Y-74.295
X119.38Y-127.508
X119.38Y-128.524
X119.38Y-131.572
X119.38Y-132.588
X119.38Y-133.604
X120.637Y-107.201
X120.65Y-58.166
X120.65Y-59.182
X120.693Y-106.383
X120.708Y-91.89
X120.764Y-92.85
X120.904Y-120.304
X120.904Y-121.104
X121.623Y-79.291
X121.709Y-78.443
X127.551Y-84.285
X127.566Y-98.748
X127.592Y-85.26
X127.622Y-99.708
X128.27Y-101.346
X128.27Y-112.684
X128.27Y-113.484
X128.27Y-120.304
X128.27Y-121.104
X130.302Y-58.166
X130.302Y-59.182
X140.462Y-86.614
X140.716Y-100.584
X141.732Y-83.566
X141.732Y-97.536
X141.732Y-111.506
X141.732Y-119.38
X143.256Y-125.476
X143.256Y-126.492
X143.256Y-127.508
X143.256Y-128.524
X146.558Y-125.476
X146.558Y-126.492
X146.558Y-127.508
X146.558Y-128.524
X147.32Y-86.614
X147.32Y-114.3
X148.59Y-111.506
X148.844Y-83.566
X148.844Y-97.536
X148.844Y-99.476
X151.088Y-69.046
X152.238Y-96.52
X152.4Y-91.694
X154.432Y-106.68
X154.686Y-109.22
X155.956Y-116.332
X156.21Y-128.016
X158.75Y-119.38
X159.004Y-101.6
X159.258Y-86.36
X159.258Y-88.9
X159.258Y-91.44
X159.258Y-99.06
X159.258Y-114.3
X163.957Y-107.315
X163.957Y-108.585
X164.084Y-129.032
X164.084Y-130.048
X164.338Y-99.06
X164.338Y-101.6
X164.592Y-111.76
X164.707Y-119.392
X164.719Y-114.3
X164.719Y-121.932
X165.354Y-68.326
X175.946Y-85.598
X176.708Y-84.836
X177.47Y-85.598
X178.232Y-84.836
X180.34Y-70.104
X182.626Y-105.41
X183.134Y-104.14
X183.134Y-116.84
X183.134Y-129.032
X183.388Y-91.44
X183.515Y-111.379
X184.404Y-70.104
X186.436Y-70.104
X188.468Y-70.104
T3
X151.638Y-123.327
X151.638Y-126.827
T4
X109.474Y-39.564
X120.474Y-39.564
X124.284Y-39.557
X125.64Y-65.218
X130.64Y-65.218
X135.284Y-39.557
X140.624Y-43.374
X140.97Y-54.828
X140.97Y-61.976
X140.972Y-58.42
X140.972Y-65.532
X143.51Y-54.828
X143.51Y-61.976
X143.512Y-58.42
X143.512Y-65.532
X145.624Y-43.374
X146.05Y-54.828
X146.05Y-61.976
X146.052Y-58.42
X146.052Y-65.532
X151.054Y-39.624
X162.054Y-39.624
X165.786Y-39.624
X176.786Y-39.624
T5
X190.5Y-79.514
X190.5Y-82.054
X190.5Y-84.594
X190.5Y-87.134
X190.5Y-89.674
X190.5Y-92.214
X190.5Y-94.754
X190.5Y-97.294
X190.5Y-99.834
X190.5Y-102.374
X190.5Y-104.914
X190.5Y-107.454
X190.5Y-109.994
X190.5Y-112.534
X190.5Y-115.074
X190.5Y-117.614
X190.5Y-120.154
X190.5Y-122.694
X190.5Y-125.234
X190.5Y-127.774
X193.04Y-79.514
X193.04Y-82.054
X193.04Y-84.594
X193.04Y-87.134
X193.04Y-89.674
X193.04Y-92.214
X193.04Y-94.754
X193.04Y-97.294
X193.04Y-99.834
X193.04Y-102.374
X193.04Y-104.914
X193.04Y-107.454
X193.04Y-109.994
X193.04Y-112.534
X193.04Y-115.074
X193.04Y-117.614
X193.04Y-120.154
X193.04Y-122.694
X193.04Y-125.234
X193.04Y-127.774
T6
X103.886Y-45.974
X103.886Y-48.514
X103.886Y-51.054
X103.886Y-53.594
X103.886Y-56.134
X103.886Y-60.249
X103.886Y-62.789
X103.886Y-65.329
X103.886Y-67.869
X103.886Y-70.409
X103.886Y-74.524
X103.886Y-77.064
X103.886Y-79.604
X103.886Y-82.144
X103.886Y-84.684
X103.886Y-88.798
X103.886Y-91.338
X103.886Y-93.878
X103.886Y-96.418
X103.886Y-98.958
X103.886Y-103.073
X103.886Y-105.613
X103.886Y-108.153
X103.886Y-110.693
X103.886Y-113.233
X103.886Y-117.348
X103.886Y-119.888
X103.886Y-122.428
X103.886Y-124.968
X103.886Y-127.508
X115.062Y-61.548
X115.062Y-66.548
X161.372Y-54.356
X166.372Y-54.356
T7
X112.474Y-49.564
X117.474Y-49.564
X127.284Y-49.557
X132.284Y-49.557
X154.054Y-44.624
X159.054Y-44.624
X168.786Y-44.624
X173.786Y-44.624
T9
X181.574Y-50.248
X181.574Y-57.448
T10
X103.378Y-132.842
X103.38Y-40.64
X191.77Y-40.7
T2
X188.124Y-47.098G85X187.024Y-47.098
G05
X188.124Y-60.598G85X187.024Y-60.598
G05
T8
X181.502Y-66.04G85X177.502Y-66.04
G05
X190.802Y-66.04G85X186.802Y-66.04
G05
M30
