%TF.GenerationSoftware,KiCad,Pcbnew,10.0.0*%
%TF.CreationDate,2026-05-09T10:54:28+08:00*%
%TF.ProjectId,PCB v0.3,50434220-7630-42e3-932e-6b696361645f,A*%
%TF.SameCoordinates,Original*%
%TF.FileFunction,Soldermask,Top*%
%TF.FilePolarity,Negative*%
%FSLAX46Y46*%
G04 Gerber Fmt 4.6, Leading zero omitted, Abs format (unit mm)*
G04 Created by KiCad (PCBNEW 10.0.0) date 2026-05-09 10:54:28*
%MOMM*%
%LPD*%
G01*
G04 APERTURE LIST*
G04 Aperture macros list*
%AMRoundRect*
0 Rectangle with rounded corners*
0 $1 Rounding radius*
0 $2 $3 $4 $5 $6 $7 $8 $9 X,Y pos of 4 corners*
0 Add a 4 corners polygon primitive as box body*
4,1,4,$2,$3,$4,$5,$6,$7,$8,$9,$2,$3,0*
0 Add four circle primitives for the rounded corners*
1,1,$1+$1,$2,$3*
1,1,$1+$1,$4,$5*
1,1,$1+$1,$6,$7*
1,1,$1+$1,$8,$9*
0 Add four rect primitives between the rounded corners*
20,1,$1+$1,$2,$3,$4,$5,0*
20,1,$1+$1,$4,$5,$6,$7,0*
20,1,$1+$1,$6,$7,$8,$9,0*
20,1,$1+$1,$8,$9,$2,$3,0*%
%AMFreePoly0*
4,1,37,0.800000,0.796148,0.878414,0.796148,1.032228,0.765552,1.177117,0.705537,1.307515,0.618408,1.418408,0.507515,1.505537,0.377117,1.565552,0.232228,1.596148,0.078414,1.596148,-0.078414,1.565552,-0.232228,1.505537,-0.377117,1.418408,-0.507515,1.307515,-0.618408,1.177117,-0.705537,1.032228,-0.765552,0.878414,-0.796148,0.800000,-0.796148,0.800000,-0.800000,-1.400000,-0.800000,
-1.403843,-0.796157,-1.439018,-0.796157,-1.511114,-0.766294,-1.566294,-0.711114,-1.596157,-0.639018,-1.596157,-0.603843,-1.600000,-0.600000,-1.600000,0.600000,-1.596157,0.603843,-1.596157,0.639018,-1.566294,0.711114,-1.511114,0.766294,-1.439018,0.796157,-1.403843,0.796157,-1.400000,0.800000,0.800000,0.800000,0.800000,0.796148,0.800000,0.796148,$1*%
%AMFreePoly1*
4,1,37,1.403843,0.796157,1.439018,0.796157,1.511114,0.766294,1.566294,0.711114,1.596157,0.639018,1.596157,0.603843,1.600000,0.600000,1.600000,-0.600000,1.596157,-0.603843,1.596157,-0.639018,1.566294,-0.711114,1.511114,-0.766294,1.439018,-0.796157,1.403843,-0.796157,1.400000,-0.800000,-0.800000,-0.800000,-0.800000,-0.796148,-0.878414,-0.796148,-1.032228,-0.765552,-1.177117,-0.705537,
-1.307515,-0.618408,-1.418408,-0.507515,-1.505537,-0.377117,-1.565552,-0.232228,-1.596148,-0.078414,-1.596148,0.078414,-1.565552,0.232228,-1.505537,0.377117,-1.418408,0.507515,-1.307515,0.618408,-1.177117,0.705537,-1.032228,0.765552,-0.878414,0.796148,-0.800000,0.796148,-0.800000,0.800000,1.400000,0.800000,1.403843,0.796157,1.403843,0.796157,$1*%
%AMFreePoly2*
4,1,37,1.600000,0.796148,1.678414,0.796148,1.832228,0.765552,1.977117,0.705537,2.107515,0.618408,2.218408,0.507515,2.305537,0.377117,2.365552,0.232228,2.396148,0.078414,2.396148,-0.078414,2.365552,-0.232228,2.305537,-0.377117,2.218408,-0.507515,2.107515,-0.618408,1.977117,-0.705537,1.832228,-0.765552,1.678414,-0.796148,1.600000,-0.796148,1.600000,-0.800000,-0.600000,-0.800000,
-0.603843,-0.796157,-0.639018,-0.796157,-0.711114,-0.766294,-0.766294,-0.711114,-0.796157,-0.639018,-0.796157,-0.603843,-0.800000,-0.600000,-0.800000,0.600000,-0.796157,0.603843,-0.796157,0.639018,-0.766294,0.711114,-0.711114,0.766294,-0.639018,0.796157,-0.603843,0.796157,-0.600000,0.800000,1.600000,0.800000,1.600000,0.796148,1.600000,0.796148,$1*%
G04 Aperture macros list end*
%ADD10RoundRect,0.250000X0.650000X-0.412500X0.650000X0.412500X-0.650000X0.412500X-0.650000X-0.412500X0*%
%ADD11RoundRect,0.250000X-0.450000X0.350000X-0.450000X-0.350000X0.450000X-0.350000X0.450000X0.350000X0*%
%ADD12RoundRect,0.150000X-0.625000X0.150000X-0.625000X-0.150000X0.625000X-0.150000X0.625000X0.150000X0*%
%ADD13RoundRect,0.250000X-0.650000X0.350000X-0.650000X-0.350000X0.650000X-0.350000X0.650000X0.350000X0*%
%ADD14R,1.200000X1.200000*%
%ADD15RoundRect,0.250000X-0.750000X0.750000X-0.750000X-0.750000X0.750000X-0.750000X0.750000X0.750000X0*%
%ADD16C,2.000000*%
%ADD17RoundRect,0.770000X-0.980000X-0.980000X0.980000X-0.980000X0.980000X0.980000X-0.980000X0.980000X0*%
%ADD18C,3.500000*%
%ADD19C,1.400000*%
%ADD20C,2.200000*%
%ADD21C,1.850000*%
%ADD22FreePoly0,180.000000*%
%ADD23RoundRect,0.800000X0.800000X0.000010X-0.800000X0.000010X-0.800000X-0.000010X0.800000X-0.000010X0*%
%ADD24FreePoly1,180.000000*%
%ADD25RoundRect,0.800000X-0.000010X0.800000X-0.000010X-0.800000X0.000010X-0.800000X0.000010X0.800000X0*%
%ADD26FreePoly2,90.000000*%
%ADD27RoundRect,0.250000X-2.000000X1.400000X-2.000000X-1.400000X2.000000X-1.400000X2.000000X1.400000X0*%
%ADD28C,5.600000*%
%ADD29RoundRect,0.250000X-0.650000X0.412500X-0.650000X-0.412500X0.650000X-0.412500X0.650000X0.412500X0*%
%ADD30RoundRect,0.250001X0.949999X0.949999X-0.949999X0.949999X-0.949999X-0.949999X0.949999X-0.949999X0*%
%ADD31C,2.400000*%
%ADD32C,2.750000*%
%ADD33R,1.750000X1.750000*%
%ADD34C,1.750000*%
%ADD35R,1.700000X1.700000*%
%ADD36C,1.700000*%
%ADD37RoundRect,0.250000X-0.650000X1.000000X-0.650000X-1.000000X0.650000X-1.000000X0.650000X1.000000X0*%
%ADD38RoundRect,0.900000X-2.100000X2.100000X-2.100000X-2.100000X2.100000X-2.100000X2.100000X2.100000X0*%
%ADD39RoundRect,0.250000X0.750000X0.750000X-0.750000X0.750000X-0.750000X-0.750000X0.750000X-0.750000X0*%
%ADD40RoundRect,0.250000X1.450000X-0.400000X1.450000X0.400000X-1.450000X0.400000X-1.450000X-0.400000X0*%
%ADD41C,1.500000*%
%ADD42RoundRect,0.250000X-0.350000X-0.450000X0.350000X-0.450000X0.350000X0.450000X-0.350000X0.450000X0*%
%ADD43RoundRect,0.250000X0.350000X0.450000X-0.350000X0.450000X-0.350000X-0.450000X0.350000X-0.450000X0*%
%ADD44RoundRect,0.250000X0.450000X-0.325000X0.450000X0.325000X-0.450000X0.325000X-0.450000X-0.325000X0*%
%ADD45O,8.000000X3.800000*%
%ADD46RoundRect,0.250001X0.949999X-0.949999X0.949999X0.949999X-0.949999X0.949999X-0.949999X-0.949999X0*%
%ADD47RoundRect,0.250000X-0.550000X0.550000X-0.550000X-0.550000X0.550000X-0.550000X0.550000X0.550000X0*%
%ADD48C,1.600000*%
%ADD49R,2.000000X0.900000*%
%ADD50RoundRect,1.025000X-1.025000X1.025000X-1.025000X-1.025000X1.025000X-1.025000X1.025000X1.025000X0*%
%ADD51C,4.100000*%
%ADD52RoundRect,0.250000X-0.350000X0.850000X-0.350000X-0.850000X0.350000X-0.850000X0.350000X0.850000X0*%
%ADD53RoundRect,0.249997X-2.650003X2.950003X-2.650003X-2.950003X2.650003X-2.950003X2.650003X2.950003X0*%
%TA.AperFunction,Profile*%
%ADD54C,0.254000*%
%TD*%
G04 APERTURE END LIST*
D10*
%TO.C,C4*%
X157734026Y-120916000D03*
X157734026Y-117791000D03*
%TD*%
D11*
%TO.C,R8*%
X186436000Y-71641000D03*
X186436000Y-73641000D03*
%TD*%
%TO.C,R6*%
X180340000Y-71597500D03*
X180340000Y-73597500D03*
%TD*%
D12*
%TO.C,J20*%
X140254600Y-97552000D03*
X140254600Y-98552000D03*
X140254600Y-99552000D03*
D13*
X142779600Y-96252000D03*
X142779600Y-100852000D03*
%TD*%
D14*
%TO.C,D1*%
X170696000Y-49022000D03*
X173496000Y-49022000D03*
%TD*%
D15*
%TO.C,J11*%
X103885974Y-45974000D03*
D16*
X103885974Y-48514000D03*
X103885974Y-51054000D03*
X103885974Y-53594000D03*
X103885974Y-56134000D03*
%TD*%
D17*
%TO.C,J5*%
X168786000Y-44624000D03*
D18*
X173786000Y-44624000D03*
D19*
X165786000Y-39624000D03*
X176786000Y-39624000D03*
%TD*%
D20*
%TO.C,A1*%
X173959026Y-134502000D03*
D21*
X173659026Y-131472000D03*
X168809026Y-131472000D03*
D20*
X168509026Y-134502000D03*
D22*
X180924026Y-134632000D03*
D23*
X180924026Y-132092000D03*
D24*
X180924026Y-129552000D03*
D23*
X180924026Y-127012000D03*
X180924026Y-124472000D03*
X180924026Y-121932000D03*
X180924026Y-119392000D03*
D24*
X180924026Y-116852000D03*
D23*
X180924026Y-114312000D03*
X180924026Y-111772000D03*
X180924026Y-109232000D03*
X180924026Y-106692000D03*
D24*
X180924026Y-104152000D03*
D23*
X180924026Y-101612000D03*
X180924026Y-99072000D03*
X180924026Y-96532000D03*
X180924026Y-93992000D03*
D24*
X180924026Y-91452000D03*
D23*
X180924026Y-88912000D03*
X180924026Y-86372000D03*
X161544026Y-86372000D03*
X161544026Y-88912000D03*
D22*
X161544026Y-91452000D03*
D23*
X161544026Y-93992000D03*
X161544026Y-96532000D03*
X161544026Y-99072000D03*
X161544026Y-101612000D03*
D22*
X161544026Y-104152000D03*
D23*
X161544026Y-106692000D03*
X161544026Y-109232000D03*
X161544026Y-111772000D03*
X161544026Y-114312000D03*
D22*
X161544026Y-116852000D03*
D23*
X161544026Y-119392000D03*
X161544026Y-121932000D03*
X161544026Y-124472000D03*
X161544026Y-127012000D03*
D22*
X161544026Y-129552000D03*
D23*
X161544026Y-132092000D03*
X161544026Y-134632000D03*
D25*
X173774026Y-85802000D03*
D26*
X171234026Y-86602000D03*
D25*
X168694026Y-85802000D03*
%TD*%
D27*
%TO.C,D2*%
X134193974Y-56074000D03*
X125393974Y-56074000D03*
%TD*%
D28*
%TO.C,H2*%
X103380000Y-40640000D03*
%TD*%
D12*
%TO.C,J17*%
X147315800Y-83582000D03*
X147315800Y-84582000D03*
X147315800Y-85582000D03*
D13*
X149840800Y-82282000D03*
X149840800Y-86882000D03*
%TD*%
D29*
%TO.C,C9*%
X157734026Y-111733500D03*
X157734026Y-114858500D03*
%TD*%
D30*
%TO.C,C1*%
X166372000Y-54356000D03*
D31*
X161372000Y-54356000D03*
%TD*%
D32*
%TO.C,J2*%
X191770000Y-74644000D03*
X142770000Y-74644000D03*
X191770000Y-132644000D03*
X142770000Y-132644000D03*
D33*
X190500000Y-79514000D03*
D34*
X193040000Y-79514000D03*
X190500000Y-82054000D03*
X193040000Y-82054000D03*
X190500000Y-84594000D03*
X193040000Y-84594000D03*
X190500000Y-87134000D03*
X193040000Y-87134000D03*
X190500000Y-89674000D03*
X193040000Y-89674000D03*
X190500000Y-92214000D03*
X193040000Y-92214000D03*
X190500000Y-94754000D03*
X193040000Y-94754000D03*
X190500000Y-97294000D03*
X193040000Y-97294000D03*
X190500000Y-99834000D03*
X193040000Y-99834000D03*
X190500000Y-102374000D03*
X193040000Y-102374000D03*
X190500000Y-104914000D03*
X193040000Y-104914000D03*
X190500000Y-107454000D03*
X193040000Y-107454000D03*
X190500000Y-109994000D03*
X193040000Y-109994000D03*
X190500000Y-112534000D03*
X193040000Y-112534000D03*
X190500000Y-115074000D03*
X193040000Y-115074000D03*
X190500000Y-117614000D03*
X193040000Y-117614000D03*
X190500000Y-120154000D03*
X193040000Y-120154000D03*
X190500000Y-122694000D03*
X193040000Y-122694000D03*
X190500000Y-125234000D03*
X193040000Y-125234000D03*
X190500000Y-127774000D03*
X193040000Y-127774000D03*
%TD*%
D35*
%TO.C,J10*%
X140969974Y-54828000D03*
D36*
X143509974Y-54828000D03*
X146049974Y-54828000D03*
%TD*%
D28*
%TO.C,H3*%
X103378000Y-132842000D03*
%TD*%
D17*
%TO.C,J3*%
X154054000Y-44624000D03*
D18*
X159054000Y-44624000D03*
D19*
X151054000Y-39624000D03*
X162054000Y-39624000D03*
%TD*%
D37*
%TO.C,D3*%
X144780026Y-123105349D03*
X144780026Y-127105349D03*
%TD*%
D38*
%TO.C,U1*%
X132590000Y-130038000D03*
X115590000Y-130038000D03*
X115590000Y-75438000D03*
X132590000Y-75438000D03*
%TD*%
D15*
%TO.C,J14*%
X103885974Y-88798400D03*
D16*
X103885974Y-91338400D03*
X103885974Y-93878400D03*
X103885974Y-96418400D03*
X103885974Y-98958400D03*
%TD*%
D12*
%TO.C,J21*%
X147214200Y-111522000D03*
X147214200Y-112522000D03*
X147214200Y-113522000D03*
D13*
X149739200Y-110222000D03*
X149739200Y-114822000D03*
%TD*%
D11*
%TO.C,R4*%
X178308000Y-71597500D03*
X178308000Y-73597500D03*
%TD*%
D39*
%TO.C,C7*%
X130639677Y-65218000D03*
D16*
X125639677Y-65218000D03*
%TD*%
D40*
%TO.C,F2*%
X139954026Y-127330349D03*
X139954026Y-122880349D03*
%TD*%
D41*
%TO.C,TP1*%
X181610000Y-41402000D03*
%TD*%
D42*
%TO.C,R2*%
X155972026Y-109232000D03*
X157972026Y-109232000D03*
%TD*%
D11*
%TO.C,R7*%
X184404000Y-71641000D03*
X184404000Y-73641000D03*
%TD*%
%TO.C,R9*%
X188468000Y-71641000D03*
X188468000Y-73641000D03*
%TD*%
%TO.C,R5*%
X182372000Y-71641000D03*
X182372000Y-73641000D03*
%TD*%
D12*
%TO.C,J22*%
X140203800Y-111522000D03*
X140203800Y-112522000D03*
X140203800Y-113522000D03*
D13*
X142728800Y-110222000D03*
X142728800Y-114822000D03*
%TD*%
D39*
%TO.C,C5*%
X145623651Y-43374000D03*
D16*
X140623651Y-43374000D03*
%TD*%
D43*
%TO.C,R3*%
X157972026Y-106692000D03*
X155972026Y-106692000D03*
%TD*%
D44*
%TO.C,D6*%
X161036000Y-73669000D03*
X161036000Y-71619000D03*
%TD*%
D12*
%TO.C,J19*%
X147265000Y-97552000D03*
X147265000Y-98552000D03*
X147265000Y-99552000D03*
D13*
X149790000Y-96252000D03*
X149790000Y-100852000D03*
%TD*%
D35*
%TO.C,J9*%
X140972000Y-58420000D03*
D36*
X143512000Y-58420000D03*
X146052000Y-58420000D03*
%TD*%
D15*
%TO.C,J15*%
X103885974Y-103073200D03*
D16*
X103885974Y-105613200D03*
X103885974Y-108153200D03*
X103885974Y-110693200D03*
X103885974Y-113233200D03*
%TD*%
D35*
%TO.C,J8*%
X140969974Y-61976000D03*
D36*
X143509974Y-61976000D03*
X146049974Y-61976000D03*
%TD*%
D28*
%TO.C,H1*%
X191770026Y-40700000D03*
%TD*%
D42*
%TO.C,R1*%
X175522000Y-49022000D03*
X177522000Y-49022000D03*
%TD*%
D44*
%TO.C,D5*%
X166116000Y-73669000D03*
X166116000Y-71619000D03*
%TD*%
D45*
%TO.C,F1*%
X188802000Y-66040000D03*
X179502000Y-66040000D03*
%TD*%
D41*
%TO.C,TP6*%
X154686000Y-111760000D03*
%TD*%
D10*
%TO.C,C3*%
X157734026Y-132346000D03*
X157734026Y-129221000D03*
%TD*%
D15*
%TO.C,J16*%
X103886000Y-117348000D03*
D16*
X103886000Y-119888000D03*
X103886000Y-122428000D03*
X103886000Y-124968000D03*
X103886000Y-127508000D03*
%TD*%
D41*
%TO.C,TP2*%
X154178026Y-118630000D03*
%TD*%
D15*
%TO.C,J12*%
X103885974Y-60248800D03*
D16*
X103885974Y-62788800D03*
X103885974Y-65328800D03*
X103885974Y-67868800D03*
X103885974Y-70408800D03*
%TD*%
D46*
%TO.C,C6*%
X115062000Y-66548000D03*
D31*
X115062000Y-61548000D03*
%TD*%
D29*
%TO.C,C2*%
X195834000Y-81761500D03*
X195834000Y-84886500D03*
%TD*%
D15*
%TO.C,J13*%
X103885974Y-74523600D03*
D16*
X103885974Y-77063600D03*
X103885974Y-79603600D03*
X103885974Y-82143600D03*
X103885974Y-84683600D03*
%TD*%
D44*
%TO.C,D4*%
X171196000Y-73669000D03*
X171196000Y-71619000D03*
%TD*%
D17*
%TO.C,J4*%
X117473974Y-49564000D03*
D18*
X112473974Y-49564000D03*
D19*
X109473974Y-39564000D03*
X120473974Y-39564000D03*
%TD*%
D41*
%TO.C,TP4*%
X146304026Y-50558000D03*
%TD*%
D12*
%TO.C,J18*%
X140305400Y-83582000D03*
X140305400Y-84582000D03*
X140305400Y-85582000D03*
D13*
X142830400Y-82282000D03*
X142830400Y-86882000D03*
%TD*%
D41*
%TO.C,TP3*%
X112522026Y-54876000D03*
%TD*%
%TO.C,TP5*%
X151638026Y-132346000D03*
%TD*%
D35*
%TO.C,J7*%
X140972000Y-65532000D03*
D36*
X143512000Y-65532000D03*
X146052000Y-65532000D03*
%TD*%
D44*
%TO.C,D7*%
X155956000Y-73669000D03*
X155956000Y-71619000D03*
%TD*%
D17*
%TO.C,J6*%
X132283974Y-49557000D03*
D18*
X127283974Y-49557000D03*
D19*
X124283974Y-39557000D03*
X135283974Y-39557000D03*
%TD*%
D47*
%TO.C,C8*%
X151638026Y-123327349D03*
D48*
X151638026Y-126827349D03*
%TD*%
D49*
%TO.C,J1*%
X187574000Y-47098000D03*
X187574000Y-60598000D03*
D50*
X181574000Y-50248000D03*
D51*
X181574000Y-57448000D03*
%TD*%
D52*
%TO.C,Q1*%
X177040000Y-52324000D03*
D53*
X174760000Y-58624000D03*
D52*
X172480000Y-52324000D03*
%TD*%
D54*
X99814874Y-40709126D02*
X99822000Y-132842000D01*
X99814874Y-40709126D02*
G75*
G02*
X103314874Y-37209074I3500026J26D01*
G01*
X103322000Y-136342000D02*
G75*
G02*
X99822000Y-132842000I0J3500000D01*
G01*
X191770000Y-37200000D02*
X103314874Y-37209126D01*
X191770000Y-37200000D02*
G75*
G02*
X195270000Y-40700000I0J-3500000D01*
G01*
X195270000Y-40700000D02*
X195279126Y-68580000D01*
X195897126Y-136332874D02*
X103322000Y-136342000D01*
X196185594Y-70768406D02*
G75*
G02*
X195279127Y-68580000I2188406J2188406D01*
G01*
X198374000Y-72898000D02*
X196185594Y-70768406D01*
X198376585Y-72895252D02*
G75*
G02*
X199316964Y-74930001I-2056585J-2185148D01*
G01*
X199397126Y-132832874D02*
X199316982Y-74930000D01*
X199397126Y-132832874D02*
G75*
G02*
X195897126Y-136332926I-3500026J-26D01*
G01*
M02*
