%TF.GenerationSoftware,KiCad,Pcbnew,10.0.0*%
%TF.CreationDate,2026-04-10T22:58:38+08:00*%
%TF.ProjectId,PCB v0.1,50434220-7630-42e3-912e-6b696361645f,A*%
%TF.SameCoordinates,Original*%
%TF.FileFunction,Soldermask,Top*%
%TF.FilePolarity,Negative*%
%FSLAX46Y46*%
G04 Gerber Fmt 4.6, Leading zero omitted, Abs format (unit mm)*
G04 Created by KiCad (PCBNEW 10.0.0) date 2026-04-10 22:58:38*
%MOMM*%
%LPD*%
G01*
G04 APERTURE LIST*
G04 Aperture macros list*
%AMRoundRect*
0 Rectangle with rounded corners*
0 $1 Rounding radius*
0 $2 $3 $4 $5 $6 $7 $8 $9 X,Y pos of 4 corners*
0 Add a 4 corners polygon primitive as box body*
4,1,4,$2,$3,$4,$5,$6,$7,$8,$9,$2,$3,0*
0 Add four circle primitives for the rounded corners*
1,1,$1+$1,$2,$3*
1,1,$1+$1,$4,$5*
1,1,$1+$1,$6,$7*
1,1,$1+$1,$8,$9*
0 Add four rect primitives between the rounded corners*
20,1,$1+$1,$2,$3,$4,$5,0*
20,1,$1+$1,$4,$5,$6,$7,0*
20,1,$1+$1,$6,$7,$8,$9,0*
20,1,$1+$1,$8,$9,$2,$3,0*%
%AMFreePoly0*
4,1,37,0.800000,0.796148,0.878414,0.796148,1.032228,0.765552,1.177117,0.705537,1.307515,0.618408,1.418408,0.507515,1.505537,0.377117,1.565552,0.232228,1.596148,0.078414,1.596148,-0.078414,1.565552,-0.232228,1.505537,-0.377117,1.418408,-0.507515,1.307515,-0.618408,1.177117,-0.705537,1.032228,-0.765552,0.878414,-0.796148,0.800000,-0.796148,0.800000,-0.800000,-1.400000,-0.800000,
-1.403843,-0.796157,-1.439018,-0.796157,-1.511114,-0.766294,-1.566294,-0.711114,-1.596157,-0.639018,-1.596157,-0.603843,-1.600000,-0.600000,-1.600000,0.600000,-1.596157,0.603843,-1.596157,0.639018,-1.566294,0.711114,-1.511114,0.766294,-1.439018,0.796157,-1.403843,0.796157,-1.400000,0.800000,0.800000,0.800000,0.800000,0.796148,0.800000,0.796148,$1*%
%AMFreePoly1*
4,1,37,1.403843,0.796157,1.439018,0.796157,1.511114,0.766294,1.566294,0.711114,1.596157,0.639018,1.596157,0.603843,1.600000,0.600000,1.600000,-0.600000,1.596157,-0.603843,1.596157,-0.639018,1.566294,-0.711114,1.511114,-0.766294,1.439018,-0.796157,1.403843,-0.796157,1.400000,-0.800000,-0.800000,-0.800000,-0.800000,-0.796148,-0.878414,-0.796148,-1.032228,-0.765552,-1.177117,-0.705537,
-1.307515,-0.618408,-1.418408,-0.507515,-1.505537,-0.377117,-1.565552,-0.232228,-1.596148,-0.078414,-1.596148,0.078414,-1.565552,0.232228,-1.505537,0.377117,-1.418408,0.507515,-1.307515,0.618408,-1.177117,0.705537,-1.032228,0.765552,-0.878414,0.796148,-0.800000,0.796148,-0.800000,0.800000,1.400000,0.800000,1.403843,0.796157,1.403843,0.796157,$1*%
%AMFreePoly2*
4,1,37,1.600000,0.796148,1.678414,0.796148,1.832228,0.765552,1.977117,0.705537,2.107515,0.618408,2.218408,0.507515,2.305537,0.377117,2.365552,0.232228,2.396148,0.078414,2.396148,-0.078414,2.365552,-0.232228,2.305537,-0.377117,2.218408,-0.507515,2.107515,-0.618408,1.977117,-0.705537,1.832228,-0.765552,1.678414,-0.796148,1.600000,-0.796148,1.600000,-0.800000,-0.600000,-0.800000,
-0.603843,-0.796157,-0.639018,-0.796157,-0.711114,-0.766294,-0.766294,-0.711114,-0.796157,-0.639018,-0.796157,-0.603843,-0.800000,-0.600000,-0.800000,0.600000,-0.796157,0.603843,-0.796157,0.639018,-0.766294,0.711114,-0.711114,0.766294,-0.639018,0.796157,-0.603843,0.796157,-0.600000,0.800000,1.600000,0.800000,1.600000,0.796148,1.600000,0.796148,$1*%
G04 Aperture macros list end*
%ADD10C,2.750000*%
%ADD11R,1.750000X1.750000*%
%ADD12C,1.750000*%
%ADD13C,1.600000*%
%ADD14RoundRect,0.250000X0.550000X-0.550000X0.550000X0.550000X-0.550000X0.550000X-0.550000X-0.550000X0*%
%ADD15C,2.000000*%
%ADD16RoundRect,0.250000X0.750000X-0.750000X0.750000X0.750000X-0.750000X0.750000X-0.750000X-0.750000X0*%
%ADD17C,2.200000*%
%ADD18C,1.850000*%
%ADD19FreePoly0,270.000000*%
%ADD20RoundRect,0.800000X-0.000010X0.800000X-0.000010X-0.800000X0.000010X-0.800000X0.000010X0.800000X0*%
%ADD21FreePoly1,270.000000*%
%ADD22RoundRect,0.800000X-0.800000X-0.000010X0.800000X-0.000010X0.800000X0.000010X-0.800000X0.000010X0*%
%ADD23FreePoly2,180.000000*%
%ADD24RoundRect,0.250000X-0.550000X-0.550000X0.550000X-0.550000X0.550000X0.550000X-0.550000X0.550000X0*%
%ADD25R,1.700000X1.700000*%
%ADD26C,1.700000*%
%ADD27RoundRect,0.900000X-2.100000X-2.100000X2.100000X-2.100000X2.100000X2.100000X-2.100000X2.100000X0*%
%ADD28RoundRect,0.250000X-0.450000X0.350000X-0.450000X-0.350000X0.450000X-0.350000X0.450000X0.350000X0*%
%ADD29RoundRect,0.250000X-2.000000X1.400000X-2.000000X-1.400000X2.000000X-1.400000X2.000000X1.400000X0*%
%ADD30RoundRect,0.150000X-0.150000X-0.625000X0.150000X-0.625000X0.150000X0.625000X-0.150000X0.625000X0*%
%ADD31RoundRect,0.250000X-0.350000X-0.650000X0.350000X-0.650000X0.350000X0.650000X-0.350000X0.650000X0*%
%ADD32RoundRect,0.250000X0.350000X-0.275000X0.350000X0.275000X-0.350000X0.275000X-0.350000X-0.275000X0*%
%ADD33RoundRect,0.250000X0.850000X0.350000X-0.850000X0.350000X-0.850000X-0.350000X0.850000X-0.350000X0*%
%ADD34RoundRect,0.249997X2.950003X2.650003X-2.950003X2.650003X-2.950003X-2.650003X2.950003X-2.650003X0*%
%ADD35C,1.400000*%
%ADD36RoundRect,0.770000X0.980000X0.980000X-0.980000X0.980000X-0.980000X-0.980000X0.980000X-0.980000X0*%
%ADD37C,3.500000*%
%ADD38RoundRect,0.250000X0.450000X-0.350000X0.450000X0.350000X-0.450000X0.350000X-0.450000X-0.350000X0*%
%ADD39RoundRect,0.250000X-0.650000X0.412500X-0.650000X-0.412500X0.650000X-0.412500X0.650000X0.412500X0*%
%ADD40RoundRect,0.250000X0.650000X-0.412500X0.650000X0.412500X-0.650000X0.412500X-0.650000X-0.412500X0*%
%ADD41RoundRect,0.250000X0.625000X-0.375000X0.625000X0.375000X-0.625000X0.375000X-0.625000X-0.375000X0*%
%ADD42RoundRect,0.250001X0.949999X-0.949999X0.949999X0.949999X-0.949999X0.949999X-0.949999X-0.949999X0*%
%ADD43C,2.400000*%
%ADD44R,2.000000X0.900000*%
%ADD45RoundRect,1.025000X1.025000X-1.025000X1.025000X1.025000X-1.025000X1.025000X-1.025000X-1.025000X0*%
%ADD46C,4.100000*%
%ADD47RoundRect,0.770000X0.980000X-0.980000X0.980000X0.980000X-0.980000X0.980000X-0.980000X-0.980000X0*%
%ADD48C,5.600000*%
%ADD49RoundRect,0.250000X0.275000X0.350000X-0.275000X0.350000X-0.275000X-0.350000X0.275000X-0.350000X0*%
%ADD50RoundRect,0.250000X-0.350000X0.275000X-0.350000X-0.275000X0.350000X-0.275000X0.350000X0.275000X0*%
%ADD51RoundRect,0.250000X0.650000X-1.000000X0.650000X1.000000X-0.650000X1.000000X-0.650000X-1.000000X0*%
%ADD52RoundRect,0.250000X0.450000X-0.325000X0.450000X0.325000X-0.450000X0.325000X-0.450000X-0.325000X0*%
%ADD53R,1.200000X1.200000*%
%ADD54RoundRect,0.250000X0.375000X0.625000X-0.375000X0.625000X-0.375000X-0.625000X0.375000X-0.625000X0*%
G04 APERTURE END LIST*
D10*
%TO.C,J2*%
X198628000Y-80151000D03*
X149628000Y-80151000D03*
X198628000Y-138151000D03*
X149628000Y-138151000D03*
D11*
X197358000Y-85021000D03*
D12*
X199898000Y-85021000D03*
X197358000Y-87561000D03*
X199898000Y-87561000D03*
X197358000Y-90101000D03*
X199898000Y-90101000D03*
X197358000Y-92641000D03*
X199898000Y-92641000D03*
X197358000Y-95181000D03*
X199898000Y-95181000D03*
X197358000Y-97721000D03*
X199898000Y-97721000D03*
X197358000Y-100261000D03*
X199898000Y-100261000D03*
X197358000Y-102801000D03*
X199898000Y-102801000D03*
X197358000Y-105341000D03*
X199898000Y-105341000D03*
X197358000Y-107881000D03*
X199898000Y-107881000D03*
X197358000Y-110421000D03*
X199898000Y-110421000D03*
X197358000Y-112961000D03*
X199898000Y-112961000D03*
X197358000Y-115501000D03*
X199898000Y-115501000D03*
X197358000Y-118041000D03*
X199898000Y-118041000D03*
X197358000Y-120581000D03*
X199898000Y-120581000D03*
X197358000Y-123121000D03*
X199898000Y-123121000D03*
X197358000Y-125661000D03*
X199898000Y-125661000D03*
X197358000Y-128201000D03*
X199898000Y-128201000D03*
X197358000Y-130741000D03*
X199898000Y-130741000D03*
X197358000Y-133281000D03*
X199898000Y-133281000D03*
%TD*%
D13*
%TO.C,C6*%
X178308000Y-81210651D03*
D14*
X178308000Y-84710651D03*
%TD*%
D15*
%TO.C,C5*%
X139192000Y-81372677D03*
D16*
X139192000Y-86372677D03*
%TD*%
D17*
%TO.C,A1*%
X200022000Y-58235000D03*
D18*
X196992000Y-58535000D03*
X196992000Y-63385000D03*
D17*
X200022000Y-63685000D03*
D19*
X200152000Y-51270000D03*
D20*
X197612000Y-51270000D03*
D21*
X195072000Y-51270000D03*
D20*
X192532000Y-51270000D03*
X189992000Y-51270000D03*
X187452000Y-51270000D03*
X184912000Y-51270000D03*
D21*
X182372000Y-51270000D03*
D20*
X179832000Y-51270000D03*
X177292000Y-51270000D03*
X174752000Y-51270000D03*
X172212000Y-51270000D03*
D21*
X169672000Y-51270000D03*
D20*
X167132000Y-51270000D03*
X164592000Y-51270000D03*
X162052000Y-51270000D03*
X159512000Y-51270000D03*
D21*
X156972000Y-51270000D03*
D20*
X154432000Y-51270000D03*
X151892000Y-51270000D03*
X151892000Y-70650000D03*
X154432000Y-70650000D03*
D19*
X156972000Y-70650000D03*
D20*
X159512000Y-70650000D03*
X162052000Y-70650000D03*
X164592000Y-70650000D03*
X167132000Y-70650000D03*
D19*
X169672000Y-70650000D03*
D20*
X172212000Y-70650000D03*
X174752000Y-70650000D03*
X177292000Y-70650000D03*
X179832000Y-70650000D03*
D19*
X182372000Y-70650000D03*
D20*
X184912000Y-70650000D03*
X187452000Y-70650000D03*
X189992000Y-70650000D03*
X192532000Y-70650000D03*
D19*
X195072000Y-70650000D03*
D20*
X197612000Y-70650000D03*
X200152000Y-70650000D03*
D22*
X151322000Y-58420000D03*
D23*
X152122000Y-60960000D03*
D22*
X151322000Y-63500000D03*
%TD*%
D24*
%TO.C,C8*%
X154557349Y-135382000D03*
D13*
X158057349Y-135382000D03*
%TD*%
D25*
%TO.C,J6*%
X105664000Y-74422000D03*
D26*
X108204000Y-74422000D03*
X110744000Y-74422000D03*
X113284000Y-74422000D03*
X115824000Y-74422000D03*
%TD*%
D27*
%TO.C,U3*%
X189992000Y-91440000D03*
X189992000Y-108966000D03*
X150622000Y-108966000D03*
X150622000Y-91440000D03*
%TD*%
D28*
%TO.C,R5*%
X134874000Y-122952000D03*
X134874000Y-124952000D03*
%TD*%
D29*
%TO.C,D3*%
X130384000Y-86545000D03*
X121584000Y-86545000D03*
%TD*%
D25*
%TO.C,J12*%
X193234698Y-127508000D03*
D26*
X190694698Y-127508000D03*
X188154698Y-127508000D03*
%TD*%
D30*
%TO.C,J13*%
X190262000Y-45521000D03*
X191262000Y-45521000D03*
X192262000Y-45521000D03*
D31*
X188962000Y-42996000D03*
X193562000Y-42996000D03*
%TD*%
D32*
%TO.C,FB3*%
X189992000Y-76842000D03*
X189992000Y-74542000D03*
%TD*%
D33*
%TO.C,Q1*%
X135636000Y-113157000D03*
D34*
X129336000Y-110877000D03*
D33*
X135636000Y-108597000D03*
%TD*%
D35*
%TO.C,U2*%
X131444000Y-138524000D03*
X120444000Y-138524000D03*
D36*
X123444000Y-128524000D03*
D37*
X128444000Y-128524000D03*
%TD*%
D38*
%TO.C,R2*%
X177292000Y-76692000D03*
X177292000Y-74692000D03*
%TD*%
D25*
%TO.C,J8*%
X133604000Y-74422000D03*
D26*
X136144000Y-74422000D03*
X138684000Y-74422000D03*
X141224000Y-74422000D03*
X143764000Y-74422000D03*
%TD*%
D25*
%TO.C,J11*%
X181720031Y-127508000D03*
D26*
X179180031Y-127508000D03*
X176640031Y-127508000D03*
%TD*%
D39*
%TO.C,C4*%
X179832000Y-74129500D03*
X179832000Y-77254500D03*
%TD*%
D30*
%TO.C,J15*%
X173965000Y-45521000D03*
X174965000Y-45521000D03*
X175965000Y-45521000D03*
D31*
X172665000Y-42996000D03*
X177265000Y-42996000D03*
%TD*%
D40*
%TO.C,C7*%
X171196000Y-84620500D03*
X171196000Y-81495500D03*
%TD*%
D39*
%TO.C,C3*%
X187452000Y-74129500D03*
X187452000Y-77254500D03*
%TD*%
D38*
%TO.C,R4*%
X138430000Y-124952000D03*
X138430000Y-122952000D03*
%TD*%
%TO.C,R8*%
X149860000Y-124952000D03*
X149860000Y-122952000D03*
%TD*%
D41*
%TO.C,F3*%
X195072000Y-77092000D03*
X195072000Y-74292000D03*
%TD*%
D42*
%TO.C,C2*%
X124968000Y-99673000D03*
D43*
X124968000Y-94673000D03*
%TD*%
D44*
%TO.C,J1*%
X108846000Y-121743000D03*
X108846000Y-108243000D03*
D45*
X114846000Y-118593000D03*
D46*
X114846000Y-111393000D03*
%TD*%
D38*
%TO.C,R7*%
X146050000Y-124936000D03*
X146050000Y-122936000D03*
%TD*%
D35*
%TO.C,U1*%
X105062000Y-104774000D03*
X105062000Y-93774000D03*
D47*
X115062000Y-96774000D03*
D37*
X115062000Y-101774000D03*
%TD*%
D30*
%TO.C,J18*%
X149519500Y-45521000D03*
X150519500Y-45521000D03*
X151519500Y-45521000D03*
D31*
X148219500Y-42996000D03*
X152819500Y-42996000D03*
%TD*%
D48*
%TO.C,H3*%
X198882000Y-45212000D03*
%TD*%
D24*
%TO.C,C11*%
X189355349Y-135382000D03*
D13*
X192855349Y-135382000D03*
%TD*%
D30*
%TO.C,J14*%
X182113500Y-45521000D03*
X183113500Y-45521000D03*
X184113500Y-45521000D03*
D31*
X180813500Y-42996000D03*
X185413500Y-42996000D03*
%TD*%
D49*
%TO.C,FB1*%
X191904000Y-80264000D03*
X189604000Y-80264000D03*
%TD*%
D38*
%TO.C,R6*%
X142240000Y-124936000D03*
X142240000Y-122936000D03*
%TD*%
D50*
%TO.C,FB2*%
X197612000Y-74542000D03*
X197612000Y-76842000D03*
%TD*%
D28*
%TO.C,R3*%
X174752000Y-74692000D03*
X174752000Y-76692000D03*
%TD*%
D51*
%TO.C,D4*%
X185674000Y-84804000D03*
X185674000Y-80804000D03*
%TD*%
D52*
%TO.C,D6*%
X139869333Y-120659000D03*
X139869333Y-118609000D03*
%TD*%
D25*
%TO.C,J4*%
X130048000Y-51308000D03*
D26*
X127508000Y-51308000D03*
X124968000Y-51308000D03*
X122428000Y-51308000D03*
X119888000Y-51308000D03*
%TD*%
D25*
%TO.C,J10*%
X170205365Y-127508000D03*
D26*
X167665365Y-127508000D03*
X165125365Y-127508000D03*
%TD*%
D53*
%TO.C,D2*%
X182372000Y-74314500D03*
X182372000Y-77114500D03*
%TD*%
D54*
%TO.C,F2*%
X192154000Y-84836000D03*
X189354000Y-84836000D03*
%TD*%
D53*
%TO.C,D1*%
X138548000Y-109549500D03*
X138548000Y-112349500D03*
%TD*%
D25*
%TO.C,J9*%
X158690698Y-127508000D03*
D26*
X156150698Y-127508000D03*
X153610698Y-127508000D03*
%TD*%
D35*
%TO.C,U2*%
X145922000Y-138524000D03*
X134922000Y-138524000D03*
D37*
X142922000Y-128524000D03*
D36*
X137922000Y-128524000D03*
%TD*%
D52*
%TO.C,D7*%
X144864667Y-120659000D03*
X144864667Y-118609000D03*
%TD*%
D25*
%TO.C,J5*%
X144018000Y-51308000D03*
D26*
X141478000Y-51308000D03*
X138938000Y-51308000D03*
X136398000Y-51308000D03*
X133858000Y-51308000D03*
%TD*%
D52*
%TO.C,D5*%
X134874000Y-120659000D03*
X134874000Y-118609000D03*
%TD*%
D25*
%TO.C,J7*%
X119634000Y-74422000D03*
D26*
X122174000Y-74422000D03*
X124714000Y-74422000D03*
X127254000Y-74422000D03*
X129794000Y-74422000D03*
%TD*%
D42*
%TO.C,C1*%
X139192000Y-99782215D03*
D43*
X139192000Y-94782215D03*
%TD*%
D25*
%TO.C,J3*%
X116078000Y-51308000D03*
D26*
X113538000Y-51308000D03*
X110998000Y-51308000D03*
X108458000Y-51308000D03*
X105918000Y-51308000D03*
%TD*%
D30*
%TO.C,J16*%
X165816500Y-45521000D03*
X166816500Y-45521000D03*
X167816500Y-45521000D03*
D31*
X164516500Y-42996000D03*
X169116500Y-42996000D03*
%TD*%
D52*
%TO.C,D8*%
X149860000Y-120659000D03*
X149860000Y-118609000D03*
%TD*%
D38*
%TO.C,R1*%
X141342000Y-111825500D03*
X141342000Y-109825500D03*
%TD*%
D24*
%TO.C,C10*%
X177840682Y-135382000D03*
D13*
X181340682Y-135382000D03*
%TD*%
D30*
%TO.C,J17*%
X157668000Y-45521000D03*
X158668000Y-45521000D03*
X159668000Y-45521000D03*
D31*
X156368000Y-42996000D03*
X160968000Y-42996000D03*
%TD*%
D43*
%TO.C,F1*%
X121666000Y-114883785D03*
D17*
X120416000Y-121283785D03*
X122916000Y-121283785D03*
X120416000Y-117783785D03*
X122916000Y-117783785D03*
X120416000Y-111983785D03*
X122916000Y-111983785D03*
X120416000Y-108483785D03*
X122916000Y-108483785D03*
%TD*%
D48*
%TO.C,H2*%
X106934000Y-137160000D03*
%TD*%
D24*
%TO.C,C9*%
X166128016Y-135382000D03*
D13*
X169628016Y-135382000D03*
%TD*%
D48*
%TO.C,H1*%
X106934000Y-45466000D03*
%TD*%
D35*
%TO.C,U1*%
X105062000Y-90122000D03*
X105062000Y-79122000D03*
D37*
X115062000Y-87122000D03*
D47*
X115062000Y-82122000D03*
%TD*%
M02*
