%TF.GenerationSoftware,KiCad,Pcbnew,10.0.0*%
%TF.CreationDate,2026-05-09T10:54:28+08:00*%
%TF.ProjectId,PCB v0.3,50434220-7630-42e3-932e-6b696361645f,A*%
%TF.SameCoordinates,Original*%
%TF.FileFunction,Legend,Bot*%
%TF.FilePolarity,Positive*%
%FSLAX46Y46*%
G04 Gerber Fmt 4.6, Leading zero omitted, Abs format (unit mm)*
G04 Created by KiCad (PCBNEW 10.0.0) date 2026-05-09 10:54:28*
%MOMM*%
%LPD*%
G01*
G04 APERTURE LIST*
%ADD10C,0.150000*%
%ADD11C,0.500000*%
%TA.AperFunction,Profile*%
%ADD12C,0.254000*%
%TD*%
G04 APERTURE END LIST*
D10*
X120059220Y-132117875D02*
X120059220Y-131117875D01*
X120059220Y-131117875D02*
X119821125Y-131117875D01*
X119821125Y-131117875D02*
X119678268Y-131165494D01*
X119678268Y-131165494D02*
X119583030Y-131260732D01*
X119583030Y-131260732D02*
X119535411Y-131355970D01*
X119535411Y-131355970D02*
X119487792Y-131546446D01*
X119487792Y-131546446D02*
X119487792Y-131689303D01*
X119487792Y-131689303D02*
X119535411Y-131879779D01*
X119535411Y-131879779D02*
X119583030Y-131975017D01*
X119583030Y-131975017D02*
X119678268Y-132070256D01*
X119678268Y-132070256D02*
X119821125Y-132117875D01*
X119821125Y-132117875D02*
X120059220Y-132117875D01*
X118678268Y-132070256D02*
X118773506Y-132117875D01*
X118773506Y-132117875D02*
X118963982Y-132117875D01*
X118963982Y-132117875D02*
X119059220Y-132070256D01*
X119059220Y-132070256D02*
X119106839Y-131975017D01*
X119106839Y-131975017D02*
X119106839Y-131594065D01*
X119106839Y-131594065D02*
X119059220Y-131498827D01*
X119059220Y-131498827D02*
X118963982Y-131451208D01*
X118963982Y-131451208D02*
X118773506Y-131451208D01*
X118773506Y-131451208D02*
X118678268Y-131498827D01*
X118678268Y-131498827D02*
X118630649Y-131594065D01*
X118630649Y-131594065D02*
X118630649Y-131689303D01*
X118630649Y-131689303D02*
X119106839Y-131784541D01*
X118249696Y-132070256D02*
X118154458Y-132117875D01*
X118154458Y-132117875D02*
X117963982Y-132117875D01*
X117963982Y-132117875D02*
X117868744Y-132070256D01*
X117868744Y-132070256D02*
X117821125Y-131975017D01*
X117821125Y-131975017D02*
X117821125Y-131927398D01*
X117821125Y-131927398D02*
X117868744Y-131832160D01*
X117868744Y-131832160D02*
X117963982Y-131784541D01*
X117963982Y-131784541D02*
X118106839Y-131784541D01*
X118106839Y-131784541D02*
X118202077Y-131736922D01*
X118202077Y-131736922D02*
X118249696Y-131641684D01*
X118249696Y-131641684D02*
X118249696Y-131594065D01*
X118249696Y-131594065D02*
X118202077Y-131498827D01*
X118202077Y-131498827D02*
X118106839Y-131451208D01*
X118106839Y-131451208D02*
X117963982Y-131451208D01*
X117963982Y-131451208D02*
X117868744Y-131498827D01*
X117392553Y-132117875D02*
X117392553Y-131451208D01*
X117392553Y-131117875D02*
X117440172Y-131165494D01*
X117440172Y-131165494D02*
X117392553Y-131213113D01*
X117392553Y-131213113D02*
X117344934Y-131165494D01*
X117344934Y-131165494D02*
X117392553Y-131117875D01*
X117392553Y-131117875D02*
X117392553Y-131213113D01*
X116487792Y-131451208D02*
X116487792Y-132260732D01*
X116487792Y-132260732D02*
X116535411Y-132355970D01*
X116535411Y-132355970D02*
X116583030Y-132403589D01*
X116583030Y-132403589D02*
X116678268Y-132451208D01*
X116678268Y-132451208D02*
X116821125Y-132451208D01*
X116821125Y-132451208D02*
X116916363Y-132403589D01*
X116487792Y-132070256D02*
X116583030Y-132117875D01*
X116583030Y-132117875D02*
X116773506Y-132117875D01*
X116773506Y-132117875D02*
X116868744Y-132070256D01*
X116868744Y-132070256D02*
X116916363Y-132022636D01*
X116916363Y-132022636D02*
X116963982Y-131927398D01*
X116963982Y-131927398D02*
X116963982Y-131641684D01*
X116963982Y-131641684D02*
X116916363Y-131546446D01*
X116916363Y-131546446D02*
X116868744Y-131498827D01*
X116868744Y-131498827D02*
X116773506Y-131451208D01*
X116773506Y-131451208D02*
X116583030Y-131451208D01*
X116583030Y-131451208D02*
X116487792Y-131498827D01*
X116011601Y-131451208D02*
X116011601Y-132117875D01*
X116011601Y-131546446D02*
X115963982Y-131498827D01*
X115963982Y-131498827D02*
X115868744Y-131451208D01*
X115868744Y-131451208D02*
X115725887Y-131451208D01*
X115725887Y-131451208D02*
X115630649Y-131498827D01*
X115630649Y-131498827D02*
X115583030Y-131594065D01*
X115583030Y-131594065D02*
X115583030Y-132117875D01*
X114725887Y-132070256D02*
X114821125Y-132117875D01*
X114821125Y-132117875D02*
X115011601Y-132117875D01*
X115011601Y-132117875D02*
X115106839Y-132070256D01*
X115106839Y-132070256D02*
X115154458Y-131975017D01*
X115154458Y-131975017D02*
X115154458Y-131594065D01*
X115154458Y-131594065D02*
X115106839Y-131498827D01*
X115106839Y-131498827D02*
X115011601Y-131451208D01*
X115011601Y-131451208D02*
X114821125Y-131451208D01*
X114821125Y-131451208D02*
X114725887Y-131498827D01*
X114725887Y-131498827D02*
X114678268Y-131594065D01*
X114678268Y-131594065D02*
X114678268Y-131689303D01*
X114678268Y-131689303D02*
X115154458Y-131784541D01*
X113821125Y-132117875D02*
X113821125Y-131117875D01*
X113821125Y-132070256D02*
X113916363Y-132117875D01*
X113916363Y-132117875D02*
X114106839Y-132117875D01*
X114106839Y-132117875D02*
X114202077Y-132070256D01*
X114202077Y-132070256D02*
X114249696Y-132022636D01*
X114249696Y-132022636D02*
X114297315Y-131927398D01*
X114297315Y-131927398D02*
X114297315Y-131641684D01*
X114297315Y-131641684D02*
X114249696Y-131546446D01*
X114249696Y-131546446D02*
X114202077Y-131498827D01*
X114202077Y-131498827D02*
X114106839Y-131451208D01*
X114106839Y-131451208D02*
X113916363Y-131451208D01*
X113916363Y-131451208D02*
X113821125Y-131498827D01*
X112583029Y-132117875D02*
X112583029Y-131117875D01*
X112583029Y-131498827D02*
X112487791Y-131451208D01*
X112487791Y-131451208D02*
X112297315Y-131451208D01*
X112297315Y-131451208D02*
X112202077Y-131498827D01*
X112202077Y-131498827D02*
X112154458Y-131546446D01*
X112154458Y-131546446D02*
X112106839Y-131641684D01*
X112106839Y-131641684D02*
X112106839Y-131927398D01*
X112106839Y-131927398D02*
X112154458Y-132022636D01*
X112154458Y-132022636D02*
X112202077Y-132070256D01*
X112202077Y-132070256D02*
X112297315Y-132117875D01*
X112297315Y-132117875D02*
X112487791Y-132117875D01*
X112487791Y-132117875D02*
X112583029Y-132070256D01*
X111773505Y-131451208D02*
X111535410Y-132117875D01*
X111297315Y-131451208D02*
X111535410Y-132117875D01*
X111535410Y-132117875D02*
X111630648Y-132355970D01*
X111630648Y-132355970D02*
X111678267Y-132403589D01*
X111678267Y-132403589D02*
X111773505Y-132451208D01*
X120059220Y-133727819D02*
X120059220Y-132727819D01*
X119440173Y-133727819D02*
X119535411Y-133680200D01*
X119535411Y-133680200D02*
X119583030Y-133584961D01*
X119583030Y-133584961D02*
X119583030Y-132727819D01*
X118916363Y-133727819D02*
X119011601Y-133680200D01*
X119011601Y-133680200D02*
X119059220Y-133632580D01*
X119059220Y-133632580D02*
X119106839Y-133537342D01*
X119106839Y-133537342D02*
X119106839Y-133251628D01*
X119106839Y-133251628D02*
X119059220Y-133156390D01*
X119059220Y-133156390D02*
X119011601Y-133108771D01*
X119011601Y-133108771D02*
X118916363Y-133061152D01*
X118916363Y-133061152D02*
X118773506Y-133061152D01*
X118773506Y-133061152D02*
X118678268Y-133108771D01*
X118678268Y-133108771D02*
X118630649Y-133156390D01*
X118630649Y-133156390D02*
X118583030Y-133251628D01*
X118583030Y-133251628D02*
X118583030Y-133537342D01*
X118583030Y-133537342D02*
X118630649Y-133632580D01*
X118630649Y-133632580D02*
X118678268Y-133680200D01*
X118678268Y-133680200D02*
X118773506Y-133727819D01*
X118773506Y-133727819D02*
X118916363Y-133727819D01*
X117106839Y-132727819D02*
X117106839Y-133442104D01*
X117106839Y-133442104D02*
X117154458Y-133584961D01*
X117154458Y-133584961D02*
X117249696Y-133680200D01*
X117249696Y-133680200D02*
X117392553Y-133727819D01*
X117392553Y-133727819D02*
X117487791Y-133727819D01*
X116202077Y-133727819D02*
X116202077Y-133204009D01*
X116202077Y-133204009D02*
X116249696Y-133108771D01*
X116249696Y-133108771D02*
X116344934Y-133061152D01*
X116344934Y-133061152D02*
X116535410Y-133061152D01*
X116535410Y-133061152D02*
X116630648Y-133108771D01*
X116202077Y-133680200D02*
X116297315Y-133727819D01*
X116297315Y-133727819D02*
X116535410Y-133727819D01*
X116535410Y-133727819D02*
X116630648Y-133680200D01*
X116630648Y-133680200D02*
X116678267Y-133584961D01*
X116678267Y-133584961D02*
X116678267Y-133489723D01*
X116678267Y-133489723D02*
X116630648Y-133394485D01*
X116630648Y-133394485D02*
X116535410Y-133346866D01*
X116535410Y-133346866D02*
X116297315Y-133346866D01*
X116297315Y-133346866D02*
X116202077Y-133299247D01*
X115725886Y-133061152D02*
X115725886Y-134061152D01*
X115725886Y-133108771D02*
X115630648Y-133061152D01*
X115630648Y-133061152D02*
X115440172Y-133061152D01*
X115440172Y-133061152D02*
X115344934Y-133108771D01*
X115344934Y-133108771D02*
X115297315Y-133156390D01*
X115297315Y-133156390D02*
X115249696Y-133251628D01*
X115249696Y-133251628D02*
X115249696Y-133537342D01*
X115249696Y-133537342D02*
X115297315Y-133632580D01*
X115297315Y-133632580D02*
X115344934Y-133680200D01*
X115344934Y-133680200D02*
X115440172Y-133727819D01*
X115440172Y-133727819D02*
X115630648Y-133727819D01*
X115630648Y-133727819D02*
X115725886Y-133680200D01*
X114392553Y-133727819D02*
X114392553Y-133204009D01*
X114392553Y-133204009D02*
X114440172Y-133108771D01*
X114440172Y-133108771D02*
X114535410Y-133061152D01*
X114535410Y-133061152D02*
X114725886Y-133061152D01*
X114725886Y-133061152D02*
X114821124Y-133108771D01*
X114392553Y-133680200D02*
X114487791Y-133727819D01*
X114487791Y-133727819D02*
X114725886Y-133727819D01*
X114725886Y-133727819D02*
X114821124Y-133680200D01*
X114821124Y-133680200D02*
X114868743Y-133584961D01*
X114868743Y-133584961D02*
X114868743Y-133489723D01*
X114868743Y-133489723D02*
X114821124Y-133394485D01*
X114821124Y-133394485D02*
X114725886Y-133346866D01*
X114725886Y-133346866D02*
X114487791Y-133346866D01*
X114487791Y-133346866D02*
X114392553Y-133299247D01*
X113916362Y-133727819D02*
X113916362Y-133061152D01*
X113916362Y-133251628D02*
X113868743Y-133156390D01*
X113868743Y-133156390D02*
X113821124Y-133108771D01*
X113821124Y-133108771D02*
X113725886Y-133061152D01*
X113725886Y-133061152D02*
X113630648Y-133061152D01*
X121920000Y-131064000D02*
X121920000Y-133858000D01*
X134791220Y-132117875D02*
X134791220Y-131117875D01*
X134791220Y-131117875D02*
X134410268Y-131117875D01*
X134410268Y-131117875D02*
X134315030Y-131165494D01*
X134315030Y-131165494D02*
X134267411Y-131213113D01*
X134267411Y-131213113D02*
X134219792Y-131308351D01*
X134219792Y-131308351D02*
X134219792Y-131451208D01*
X134219792Y-131451208D02*
X134267411Y-131546446D01*
X134267411Y-131546446D02*
X134315030Y-131594065D01*
X134315030Y-131594065D02*
X134410268Y-131641684D01*
X134410268Y-131641684D02*
X134791220Y-131641684D01*
X133791220Y-132117875D02*
X133791220Y-131451208D01*
X133791220Y-131641684D02*
X133743601Y-131546446D01*
X133743601Y-131546446D02*
X133695982Y-131498827D01*
X133695982Y-131498827D02*
X133600744Y-131451208D01*
X133600744Y-131451208D02*
X133505506Y-131451208D01*
X133029315Y-132117875D02*
X133124553Y-132070256D01*
X133124553Y-132070256D02*
X133172172Y-132022636D01*
X133172172Y-132022636D02*
X133219791Y-131927398D01*
X133219791Y-131927398D02*
X133219791Y-131641684D01*
X133219791Y-131641684D02*
X133172172Y-131546446D01*
X133172172Y-131546446D02*
X133124553Y-131498827D01*
X133124553Y-131498827D02*
X133029315Y-131451208D01*
X133029315Y-131451208D02*
X132886458Y-131451208D01*
X132886458Y-131451208D02*
X132791220Y-131498827D01*
X132791220Y-131498827D02*
X132743601Y-131546446D01*
X132743601Y-131546446D02*
X132695982Y-131641684D01*
X132695982Y-131641684D02*
X132695982Y-131927398D01*
X132695982Y-131927398D02*
X132743601Y-132022636D01*
X132743601Y-132022636D02*
X132791220Y-132070256D01*
X132791220Y-132070256D02*
X132886458Y-132117875D01*
X132886458Y-132117875D02*
X133029315Y-132117875D01*
X132410267Y-131451208D02*
X132029315Y-131451208D01*
X132267410Y-131117875D02*
X132267410Y-131975017D01*
X132267410Y-131975017D02*
X132219791Y-132070256D01*
X132219791Y-132070256D02*
X132124553Y-132117875D01*
X132124553Y-132117875D02*
X132029315Y-132117875D01*
X131553124Y-132117875D02*
X131648362Y-132070256D01*
X131648362Y-132070256D02*
X131695981Y-132022636D01*
X131695981Y-132022636D02*
X131743600Y-131927398D01*
X131743600Y-131927398D02*
X131743600Y-131641684D01*
X131743600Y-131641684D02*
X131695981Y-131546446D01*
X131695981Y-131546446D02*
X131648362Y-131498827D01*
X131648362Y-131498827D02*
X131553124Y-131451208D01*
X131553124Y-131451208D02*
X131410267Y-131451208D01*
X131410267Y-131451208D02*
X131315029Y-131498827D01*
X131315029Y-131498827D02*
X131267410Y-131546446D01*
X131267410Y-131546446D02*
X131219791Y-131641684D01*
X131219791Y-131641684D02*
X131219791Y-131927398D01*
X131219791Y-131927398D02*
X131267410Y-132022636D01*
X131267410Y-132022636D02*
X131315029Y-132070256D01*
X131315029Y-132070256D02*
X131410267Y-132117875D01*
X131410267Y-132117875D02*
X131553124Y-132117875D01*
X130934076Y-131451208D02*
X130553124Y-131451208D01*
X130791219Y-131117875D02*
X130791219Y-131975017D01*
X130791219Y-131975017D02*
X130743600Y-132070256D01*
X130743600Y-132070256D02*
X130648362Y-132117875D01*
X130648362Y-132117875D02*
X130553124Y-132117875D01*
X130315028Y-131451208D02*
X130076933Y-132117875D01*
X129838838Y-131451208D02*
X130076933Y-132117875D01*
X130076933Y-132117875D02*
X130172171Y-132355970D01*
X130172171Y-132355970D02*
X130219790Y-132403589D01*
X130219790Y-132403589D02*
X130315028Y-132451208D01*
X129457885Y-131451208D02*
X129457885Y-132451208D01*
X129457885Y-131498827D02*
X129362647Y-131451208D01*
X129362647Y-131451208D02*
X129172171Y-131451208D01*
X129172171Y-131451208D02*
X129076933Y-131498827D01*
X129076933Y-131498827D02*
X129029314Y-131546446D01*
X129029314Y-131546446D02*
X128981695Y-131641684D01*
X128981695Y-131641684D02*
X128981695Y-131927398D01*
X128981695Y-131927398D02*
X129029314Y-132022636D01*
X129029314Y-132022636D02*
X129076933Y-132070256D01*
X129076933Y-132070256D02*
X129172171Y-132117875D01*
X129172171Y-132117875D02*
X129362647Y-132117875D01*
X129362647Y-132117875D02*
X129457885Y-132070256D01*
X128172171Y-132070256D02*
X128267409Y-132117875D01*
X128267409Y-132117875D02*
X128457885Y-132117875D01*
X128457885Y-132117875D02*
X128553123Y-132070256D01*
X128553123Y-132070256D02*
X128600742Y-131975017D01*
X128600742Y-131975017D02*
X128600742Y-131594065D01*
X128600742Y-131594065D02*
X128553123Y-131498827D01*
X128553123Y-131498827D02*
X128457885Y-131451208D01*
X128457885Y-131451208D02*
X128267409Y-131451208D01*
X128267409Y-131451208D02*
X128172171Y-131498827D01*
X128172171Y-131498827D02*
X128124552Y-131594065D01*
X128124552Y-131594065D02*
X128124552Y-131689303D01*
X128124552Y-131689303D02*
X128600742Y-131784541D01*
X126362647Y-132117875D02*
X126695980Y-131641684D01*
X126934075Y-132117875D02*
X126934075Y-131117875D01*
X126934075Y-131117875D02*
X126553123Y-131117875D01*
X126553123Y-131117875D02*
X126457885Y-131165494D01*
X126457885Y-131165494D02*
X126410266Y-131213113D01*
X126410266Y-131213113D02*
X126362647Y-131308351D01*
X126362647Y-131308351D02*
X126362647Y-131451208D01*
X126362647Y-131451208D02*
X126410266Y-131546446D01*
X126410266Y-131546446D02*
X126457885Y-131594065D01*
X126457885Y-131594065D02*
X126553123Y-131641684D01*
X126553123Y-131641684D02*
X126934075Y-131641684D01*
X125791218Y-132117875D02*
X125886456Y-132070256D01*
X125886456Y-132070256D02*
X125934075Y-132022636D01*
X125934075Y-132022636D02*
X125981694Y-131927398D01*
X125981694Y-131927398D02*
X125981694Y-131641684D01*
X125981694Y-131641684D02*
X125934075Y-131546446D01*
X125934075Y-131546446D02*
X125886456Y-131498827D01*
X125886456Y-131498827D02*
X125791218Y-131451208D01*
X125791218Y-131451208D02*
X125648361Y-131451208D01*
X125648361Y-131451208D02*
X125553123Y-131498827D01*
X125553123Y-131498827D02*
X125505504Y-131546446D01*
X125505504Y-131546446D02*
X125457885Y-131641684D01*
X125457885Y-131641684D02*
X125457885Y-131927398D01*
X125457885Y-131927398D02*
X125505504Y-132022636D01*
X125505504Y-132022636D02*
X125553123Y-132070256D01*
X125553123Y-132070256D02*
X125648361Y-132117875D01*
X125648361Y-132117875D02*
X125791218Y-132117875D01*
X125124551Y-131451208D02*
X124886456Y-132117875D01*
X124886456Y-132117875D02*
X124648361Y-131451208D01*
X123886456Y-132070256D02*
X123981694Y-132117875D01*
X123981694Y-132117875D02*
X124172170Y-132117875D01*
X124172170Y-132117875D02*
X124267408Y-132070256D01*
X124267408Y-132070256D02*
X124315027Y-131975017D01*
X124315027Y-131975017D02*
X124315027Y-131594065D01*
X124315027Y-131594065D02*
X124267408Y-131498827D01*
X124267408Y-131498827D02*
X124172170Y-131451208D01*
X124172170Y-131451208D02*
X123981694Y-131451208D01*
X123981694Y-131451208D02*
X123886456Y-131498827D01*
X123886456Y-131498827D02*
X123838837Y-131594065D01*
X123838837Y-131594065D02*
X123838837Y-131689303D01*
X123838837Y-131689303D02*
X124315027Y-131784541D01*
X123410265Y-132117875D02*
X123410265Y-131451208D01*
X123410265Y-131641684D02*
X123362646Y-131546446D01*
X123362646Y-131546446D02*
X123315027Y-131498827D01*
X123315027Y-131498827D02*
X123219789Y-131451208D01*
X123219789Y-131451208D02*
X123124551Y-131451208D01*
X134791220Y-133727819D02*
X134791220Y-132727819D01*
X134791220Y-132727819D02*
X134410268Y-132727819D01*
X134410268Y-132727819D02*
X134315030Y-132775438D01*
X134315030Y-132775438D02*
X134267411Y-132823057D01*
X134267411Y-132823057D02*
X134219792Y-132918295D01*
X134219792Y-132918295D02*
X134219792Y-133061152D01*
X134219792Y-133061152D02*
X134267411Y-133156390D01*
X134267411Y-133156390D02*
X134315030Y-133204009D01*
X134315030Y-133204009D02*
X134410268Y-133251628D01*
X134410268Y-133251628D02*
X134791220Y-133251628D01*
X133219792Y-133632580D02*
X133267411Y-133680200D01*
X133267411Y-133680200D02*
X133410268Y-133727819D01*
X133410268Y-133727819D02*
X133505506Y-133727819D01*
X133505506Y-133727819D02*
X133648363Y-133680200D01*
X133648363Y-133680200D02*
X133743601Y-133584961D01*
X133743601Y-133584961D02*
X133791220Y-133489723D01*
X133791220Y-133489723D02*
X133838839Y-133299247D01*
X133838839Y-133299247D02*
X133838839Y-133156390D01*
X133838839Y-133156390D02*
X133791220Y-132965914D01*
X133791220Y-132965914D02*
X133743601Y-132870676D01*
X133743601Y-132870676D02*
X133648363Y-132775438D01*
X133648363Y-132775438D02*
X133505506Y-132727819D01*
X133505506Y-132727819D02*
X133410268Y-132727819D01*
X133410268Y-132727819D02*
X133267411Y-132775438D01*
X133267411Y-132775438D02*
X133219792Y-132823057D01*
X132457887Y-133204009D02*
X132315030Y-133251628D01*
X132315030Y-133251628D02*
X132267411Y-133299247D01*
X132267411Y-133299247D02*
X132219792Y-133394485D01*
X132219792Y-133394485D02*
X132219792Y-133537342D01*
X132219792Y-133537342D02*
X132267411Y-133632580D01*
X132267411Y-133632580D02*
X132315030Y-133680200D01*
X132315030Y-133680200D02*
X132410268Y-133727819D01*
X132410268Y-133727819D02*
X132791220Y-133727819D01*
X132791220Y-133727819D02*
X132791220Y-132727819D01*
X132791220Y-132727819D02*
X132457887Y-132727819D01*
X132457887Y-132727819D02*
X132362649Y-132775438D01*
X132362649Y-132775438D02*
X132315030Y-132823057D01*
X132315030Y-132823057D02*
X132267411Y-132918295D01*
X132267411Y-132918295D02*
X132267411Y-133013533D01*
X132267411Y-133013533D02*
X132315030Y-133108771D01*
X132315030Y-133108771D02*
X132362649Y-133156390D01*
X132362649Y-133156390D02*
X132457887Y-133204009D01*
X132457887Y-133204009D02*
X132791220Y-133204009D01*
X131124553Y-133061152D02*
X130886458Y-133727819D01*
X130886458Y-133727819D02*
X130648363Y-133061152D01*
X130076934Y-132727819D02*
X129981696Y-132727819D01*
X129981696Y-132727819D02*
X129886458Y-132775438D01*
X129886458Y-132775438D02*
X129838839Y-132823057D01*
X129838839Y-132823057D02*
X129791220Y-132918295D01*
X129791220Y-132918295D02*
X129743601Y-133108771D01*
X129743601Y-133108771D02*
X129743601Y-133346866D01*
X129743601Y-133346866D02*
X129791220Y-133537342D01*
X129791220Y-133537342D02*
X129838839Y-133632580D01*
X129838839Y-133632580D02*
X129886458Y-133680200D01*
X129886458Y-133680200D02*
X129981696Y-133727819D01*
X129981696Y-133727819D02*
X130076934Y-133727819D01*
X130076934Y-133727819D02*
X130172172Y-133680200D01*
X130172172Y-133680200D02*
X130219791Y-133632580D01*
X130219791Y-133632580D02*
X130267410Y-133537342D01*
X130267410Y-133537342D02*
X130315029Y-133346866D01*
X130315029Y-133346866D02*
X130315029Y-133108771D01*
X130315029Y-133108771D02*
X130267410Y-132918295D01*
X130267410Y-132918295D02*
X130219791Y-132823057D01*
X130219791Y-132823057D02*
X130172172Y-132775438D01*
X130172172Y-132775438D02*
X130076934Y-132727819D01*
X129315029Y-133632580D02*
X129267410Y-133680200D01*
X129267410Y-133680200D02*
X129315029Y-133727819D01*
X129315029Y-133727819D02*
X129362648Y-133680200D01*
X129362648Y-133680200D02*
X129315029Y-133632580D01*
X129315029Y-133632580D02*
X129315029Y-133727819D01*
X128934077Y-132727819D02*
X128315030Y-132727819D01*
X128315030Y-132727819D02*
X128648363Y-133108771D01*
X128648363Y-133108771D02*
X128505506Y-133108771D01*
X128505506Y-133108771D02*
X128410268Y-133156390D01*
X128410268Y-133156390D02*
X128362649Y-133204009D01*
X128362649Y-133204009D02*
X128315030Y-133299247D01*
X128315030Y-133299247D02*
X128315030Y-133537342D01*
X128315030Y-133537342D02*
X128362649Y-133632580D01*
X128362649Y-133632580D02*
X128410268Y-133680200D01*
X128410268Y-133680200D02*
X128505506Y-133727819D01*
X128505506Y-133727819D02*
X128791220Y-133727819D01*
X128791220Y-133727819D02*
X128886458Y-133680200D01*
X128886458Y-133680200D02*
X128934077Y-133632580D01*
X127124553Y-133727819D02*
X127124553Y-133061152D01*
X127124553Y-133251628D02*
X127076934Y-133156390D01*
X127076934Y-133156390D02*
X127029315Y-133108771D01*
X127029315Y-133108771D02*
X126934077Y-133061152D01*
X126934077Y-133061152D02*
X126838839Y-133061152D01*
X126124553Y-133680200D02*
X126219791Y-133727819D01*
X126219791Y-133727819D02*
X126410267Y-133727819D01*
X126410267Y-133727819D02*
X126505505Y-133680200D01*
X126505505Y-133680200D02*
X126553124Y-133584961D01*
X126553124Y-133584961D02*
X126553124Y-133204009D01*
X126553124Y-133204009D02*
X126505505Y-133108771D01*
X126505505Y-133108771D02*
X126410267Y-133061152D01*
X126410267Y-133061152D02*
X126219791Y-133061152D01*
X126219791Y-133061152D02*
X126124553Y-133108771D01*
X126124553Y-133108771D02*
X126076934Y-133204009D01*
X126076934Y-133204009D02*
X126076934Y-133299247D01*
X126076934Y-133299247D02*
X126553124Y-133394485D01*
X125743600Y-133061152D02*
X125505505Y-133727819D01*
X125505505Y-133727819D02*
X125267410Y-133061152D01*
X124172171Y-133442104D02*
X123695981Y-133442104D01*
X124267409Y-133727819D02*
X123934076Y-132727819D01*
X123934076Y-132727819D02*
X123600743Y-133727819D01*
D11*
G36*
X121955904Y-125237428D02*
G01*
X121598508Y-125237428D01*
X121489403Y-125019219D01*
X121404480Y-124679528D01*
X121313047Y-123948058D01*
X121313047Y-122836322D01*
X121404480Y-122104851D01*
X121489403Y-121765160D01*
X121598508Y-121546952D01*
X121955904Y-121546952D01*
X121955904Y-125237428D01*
G37*
G36*
X117553252Y-126761238D02*
G01*
X117144270Y-126761238D01*
X117348760Y-124307345D01*
X117553252Y-126761238D01*
G37*
G36*
X123743729Y-126761238D02*
G01*
X123334747Y-126761238D01*
X123539237Y-124307345D01*
X123743729Y-126761238D01*
G37*
G36*
X135059079Y-130435841D02*
G01*
X111733681Y-130435841D01*
X111733681Y-127011238D01*
X112622570Y-127011238D01*
X112622570Y-127773142D01*
X112624094Y-127788616D01*
X112624501Y-127804151D01*
X112719738Y-128566055D01*
X112723066Y-128580764D01*
X112725272Y-128595681D01*
X112820510Y-128976633D01*
X112821796Y-128980232D01*
X112821924Y-128982031D01*
X112829690Y-129002326D01*
X112837000Y-129022785D01*
X112838072Y-129024233D01*
X112839439Y-129027803D01*
X113029915Y-129408755D01*
X113043128Y-129429745D01*
X113045655Y-129435845D01*
X113049198Y-129439388D01*
X113056024Y-129450231D01*
X113086291Y-129476481D01*
X113114629Y-129504819D01*
X113122929Y-129508257D01*
X113129715Y-129514142D01*
X113167723Y-129526811D01*
X113204749Y-129542148D01*
X113217501Y-129543404D01*
X113222253Y-129544988D01*
X113228834Y-129544520D01*
X113253522Y-129546952D01*
X113729713Y-129546952D01*
X113778486Y-129542148D01*
X113794986Y-129535313D01*
X113812671Y-129532787D01*
X113839646Y-129516814D01*
X113868606Y-129504819D01*
X113881236Y-129492188D01*
X113896606Y-129483088D01*
X113929713Y-129446952D01*
X114215427Y-129066000D01*
X114240848Y-129024099D01*
X114265056Y-128929606D01*
X114251262Y-128833042D01*
X114201563Y-128749107D01*
X114123526Y-128690579D01*
X114029033Y-128666371D01*
X113932469Y-128680165D01*
X113848534Y-128729864D01*
X113815427Y-128766000D01*
X113604713Y-129046952D01*
X113408031Y-129046952D01*
X113298926Y-128828743D01*
X113214003Y-128489052D01*
X113122570Y-127757581D01*
X113122570Y-127026798D01*
X113214003Y-126295327D01*
X113298926Y-125955636D01*
X113458986Y-125635516D01*
X113811251Y-125283253D01*
X113826984Y-125264081D01*
X113831973Y-125259755D01*
X113836707Y-125252233D01*
X113842342Y-125245368D01*
X113844867Y-125239271D01*
X113858082Y-125218279D01*
X114048558Y-124837326D01*
X114049923Y-124833758D01*
X114050997Y-124832309D01*
X114058312Y-124811835D01*
X114066073Y-124791554D01*
X114066200Y-124789757D01*
X114067487Y-124786157D01*
X114162725Y-124405205D01*
X114164931Y-124390281D01*
X114168258Y-124375580D01*
X114263496Y-123613675D01*
X114263902Y-123598140D01*
X114265427Y-123582666D01*
X114265427Y-122820761D01*
X114263902Y-122805286D01*
X114263496Y-122789752D01*
X114168258Y-122027848D01*
X114164931Y-122013146D01*
X114162725Y-121998223D01*
X114067487Y-121617270D01*
X114066200Y-121613670D01*
X114066073Y-121611873D01*
X114058306Y-121591577D01*
X114050997Y-121571119D01*
X114049924Y-121569671D01*
X114048558Y-121566100D01*
X113913984Y-121296952D01*
X114622570Y-121296952D01*
X114622570Y-129296952D01*
X114623239Y-129303745D01*
X114622941Y-129310559D01*
X114624515Y-129316705D01*
X114627374Y-129345725D01*
X114639370Y-129374687D01*
X114647150Y-129405052D01*
X114657866Y-129419341D01*
X114664703Y-129435845D01*
X114686869Y-129458011D01*
X114705676Y-129483087D01*
X114721045Y-129492187D01*
X114733677Y-129504819D01*
X114762638Y-129516815D01*
X114789611Y-129532786D01*
X114807293Y-129535312D01*
X114823797Y-129542148D01*
X114855146Y-129542148D01*
X114886177Y-129546581D01*
X114903480Y-129542148D01*
X114921343Y-129542148D01*
X114950305Y-129530151D01*
X114980670Y-129522372D01*
X114994959Y-129511655D01*
X115011463Y-129504819D01*
X115033629Y-129482652D01*
X115058705Y-129463846D01*
X115067805Y-129448476D01*
X115080437Y-129435845D01*
X115092433Y-129406883D01*
X115108404Y-129379911D01*
X115115336Y-129351589D01*
X115117766Y-129345725D01*
X115118434Y-129338933D01*
X115120057Y-129332307D01*
X115765427Y-124814717D01*
X115765427Y-129296952D01*
X115770231Y-129345725D01*
X115807560Y-129435845D01*
X115876534Y-129504819D01*
X115966654Y-129542148D01*
X116064200Y-129542148D01*
X116154320Y-129504819D01*
X116223294Y-129435845D01*
X116260623Y-129345725D01*
X116265427Y-129296952D01*
X116265427Y-129276191D01*
X116432958Y-129276191D01*
X116433695Y-129325194D01*
X116463411Y-129418103D01*
X116526418Y-129492567D01*
X116613127Y-129537251D01*
X116710336Y-129545351D01*
X116803245Y-129515635D01*
X116877709Y-129452628D01*
X116922393Y-129365919D01*
X116931230Y-129317713D01*
X117102603Y-127261238D01*
X117594918Y-127261238D01*
X117766291Y-129317714D01*
X117775128Y-129365919D01*
X117819812Y-129452628D01*
X117894276Y-129515636D01*
X117987185Y-129545352D01*
X118084394Y-129537251D01*
X118171103Y-129492567D01*
X118234110Y-129418103D01*
X118263826Y-129325194D01*
X118264563Y-129276191D01*
X117599627Y-121296952D01*
X118432094Y-121296952D01*
X118432094Y-129296952D01*
X118436898Y-129345725D01*
X118474227Y-129435845D01*
X118543201Y-129504819D01*
X118633321Y-129542148D01*
X118730867Y-129542148D01*
X118820987Y-129504819D01*
X118889961Y-129435845D01*
X118927290Y-129345725D01*
X118932094Y-129296952D01*
X118932094Y-121296952D01*
X118927290Y-121248179D01*
X119103565Y-121248179D01*
X119103565Y-121345725D01*
X119140894Y-121435845D01*
X119209868Y-121504819D01*
X119299988Y-121542148D01*
X119348761Y-121546952D01*
X119670190Y-121546952D01*
X119670190Y-129296952D01*
X119674994Y-129345725D01*
X119712323Y-129435845D01*
X119781297Y-129504819D01*
X119871417Y-129542148D01*
X119968963Y-129542148D01*
X120059083Y-129504819D01*
X120128057Y-129435845D01*
X120165386Y-129345725D01*
X120170190Y-129296952D01*
X120170190Y-122820761D01*
X120813047Y-122820761D01*
X120813047Y-123963619D01*
X120814571Y-123979093D01*
X120814978Y-123994628D01*
X120910215Y-124756531D01*
X120913543Y-124771240D01*
X120915749Y-124786157D01*
X121010987Y-125167109D01*
X121012273Y-125170708D01*
X121012401Y-125172507D01*
X121020167Y-125192802D01*
X121027477Y-125213261D01*
X121028549Y-125214709D01*
X121029916Y-125218279D01*
X121220392Y-125599231D01*
X121233605Y-125620221D01*
X121236132Y-125626321D01*
X121239675Y-125629864D01*
X121246501Y-125640707D01*
X121276768Y-125666957D01*
X121305106Y-125695295D01*
X121313406Y-125698733D01*
X121320192Y-125704618D01*
X121358200Y-125717287D01*
X121395226Y-125732624D01*
X121407978Y-125733880D01*
X121412730Y-125735464D01*
X121419311Y-125734996D01*
X121432364Y-125736282D01*
X120816789Y-129253857D01*
X120813114Y-129302728D01*
X120834349Y-129397934D01*
X120890401Y-129477765D01*
X120972737Y-129530070D01*
X121068823Y-129546885D01*
X121164029Y-129525650D01*
X121243860Y-129469598D01*
X121296165Y-129387262D01*
X121309305Y-129340047D01*
X121939764Y-125737428D01*
X121955904Y-125737428D01*
X121955904Y-129296952D01*
X121960708Y-129345725D01*
X121998037Y-129435845D01*
X122067011Y-129504819D01*
X122157131Y-129542148D01*
X122254677Y-129542148D01*
X122344797Y-129504819D01*
X122413771Y-129435845D01*
X122451100Y-129345725D01*
X122455904Y-129296952D01*
X122455904Y-129276191D01*
X122623435Y-129276191D01*
X122624172Y-129325194D01*
X122653888Y-129418103D01*
X122716895Y-129492567D01*
X122803604Y-129537251D01*
X122900813Y-129545351D01*
X122993722Y-129515635D01*
X123068186Y-129452628D01*
X123112870Y-129365919D01*
X123121707Y-129317713D01*
X123293080Y-127261238D01*
X123785395Y-127261238D01*
X123956768Y-129317714D01*
X123965605Y-129365919D01*
X124010289Y-129452628D01*
X124084753Y-129515636D01*
X124177662Y-129545352D01*
X124274871Y-129537251D01*
X124361580Y-129492567D01*
X124424587Y-129418103D01*
X124454303Y-129325194D01*
X124455040Y-129276191D01*
X123790104Y-121296952D01*
X124622571Y-121296952D01*
X124622571Y-129296952D01*
X124627375Y-129345725D01*
X124664704Y-129435845D01*
X124733678Y-129504819D01*
X124823798Y-129542148D01*
X124921344Y-129542148D01*
X125011464Y-129504819D01*
X125080438Y-129435845D01*
X125117767Y-129345725D01*
X125122571Y-129296952D01*
X125122571Y-125597206D01*
X125290921Y-127040208D01*
X125301345Y-127088096D01*
X125311167Y-127105705D01*
X125316675Y-127125108D01*
X125334707Y-127147903D01*
X125348865Y-127173283D01*
X125364680Y-127185793D01*
X125377192Y-127201610D01*
X125402574Y-127215768D01*
X125425367Y-127233799D01*
X125444766Y-127239305D01*
X125462379Y-127249130D01*
X125491245Y-127252497D01*
X125519206Y-127260434D01*
X125539237Y-127258096D01*
X125559268Y-127260434D01*
X125587229Y-127252497D01*
X125616095Y-127249130D01*
X125633703Y-127239307D01*
X125653107Y-127233800D01*
X125675905Y-127215764D01*
X125701282Y-127201609D01*
X125713791Y-127185795D01*
X125729609Y-127173283D01*
X125743768Y-127147900D01*
X125761799Y-127125107D01*
X125767305Y-127105706D01*
X125777129Y-127088096D01*
X125787553Y-127040208D01*
X125955904Y-125597200D01*
X125955904Y-129296952D01*
X125960708Y-129345725D01*
X125998037Y-129435845D01*
X126067011Y-129504819D01*
X126157131Y-129542148D01*
X126254677Y-129542148D01*
X126344797Y-129504819D01*
X126413771Y-129435845D01*
X126451100Y-129345725D01*
X126455904Y-129296952D01*
X126455904Y-121296952D01*
X128432095Y-121296952D01*
X128432095Y-127773142D01*
X128433619Y-127788616D01*
X128434026Y-127804151D01*
X128529263Y-128566055D01*
X128532591Y-128580764D01*
X128534797Y-128595681D01*
X128630035Y-128976633D01*
X128631321Y-128980232D01*
X128631449Y-128982031D01*
X128639215Y-129002326D01*
X128646525Y-129022785D01*
X128647597Y-129024233D01*
X128648964Y-129027803D01*
X128839440Y-129408755D01*
X128852653Y-129429745D01*
X128855180Y-129435845D01*
X128858723Y-129439388D01*
X128865549Y-129450231D01*
X128895816Y-129476481D01*
X128924154Y-129504819D01*
X128932454Y-129508257D01*
X128939240Y-129514142D01*
X128977248Y-129526811D01*
X129014274Y-129542148D01*
X129027026Y-129543404D01*
X129031778Y-129544988D01*
X129038359Y-129544520D01*
X129063047Y-129546952D01*
X129444000Y-129546952D01*
X129468682Y-129544520D01*
X129475269Y-129544989D01*
X129480025Y-129543403D01*
X129492773Y-129542148D01*
X129529786Y-129526816D01*
X129567807Y-129514143D01*
X129574594Y-129508256D01*
X129582893Y-129504819D01*
X129611227Y-129476484D01*
X129641498Y-129450231D01*
X129648323Y-129439388D01*
X129651867Y-129435845D01*
X129654393Y-129429745D01*
X129667607Y-129408755D01*
X129722133Y-129299703D01*
X130432110Y-129299703D01*
X130452192Y-129395159D01*
X130507273Y-129475662D01*
X130588971Y-129528960D01*
X130684846Y-129546937D01*
X130780302Y-129526855D01*
X130860805Y-129471774D01*
X130914103Y-129390076D01*
X130927813Y-129343024D01*
X131574143Y-125895925D01*
X131574952Y-125899158D01*
X131574952Y-129296952D01*
X131579756Y-129345725D01*
X131617085Y-129435845D01*
X131686059Y-129504819D01*
X131776179Y-129542148D01*
X131873725Y-129542148D01*
X131963845Y-129504819D01*
X132032819Y-129435845D01*
X132070148Y-129345725D01*
X132074952Y-129296952D01*
X132074952Y-121296952D01*
X132527333Y-121296952D01*
X132527333Y-129296952D01*
X132532137Y-129345725D01*
X132569466Y-129435845D01*
X132638440Y-129504819D01*
X132728560Y-129542148D01*
X132826106Y-129542148D01*
X132916226Y-129504819D01*
X132985200Y-129435845D01*
X133022529Y-129345725D01*
X133027333Y-129296952D01*
X133027333Y-125356476D01*
X133670190Y-125356476D01*
X133670190Y-129296952D01*
X133674994Y-129345725D01*
X133712323Y-129435845D01*
X133781297Y-129504819D01*
X133871417Y-129542148D01*
X133968963Y-129542148D01*
X134059083Y-129504819D01*
X134128057Y-129435845D01*
X134165386Y-129345725D01*
X134170190Y-129296952D01*
X134170190Y-121296952D01*
X134165386Y-121248179D01*
X134128057Y-121158059D01*
X134059083Y-121089085D01*
X133968963Y-121051756D01*
X133871417Y-121051756D01*
X133781297Y-121089085D01*
X133712323Y-121158059D01*
X133674994Y-121248179D01*
X133670190Y-121296952D01*
X133670190Y-124856476D01*
X133027333Y-124856476D01*
X133027333Y-121296952D01*
X133022529Y-121248179D01*
X132985200Y-121158059D01*
X132916226Y-121089085D01*
X132826106Y-121051756D01*
X132728560Y-121051756D01*
X132638440Y-121089085D01*
X132569466Y-121158059D01*
X132532137Y-121248179D01*
X132527333Y-121296952D01*
X132074952Y-121296952D01*
X132070148Y-121248179D01*
X132032819Y-121158059D01*
X131963845Y-121089085D01*
X131873725Y-121051756D01*
X131776179Y-121051756D01*
X131686059Y-121089085D01*
X131617085Y-121158059D01*
X131579756Y-121248179D01*
X131574952Y-121296952D01*
X131574952Y-123837602D01*
X130924631Y-121236318D01*
X130908141Y-121190166D01*
X130850069Y-121111791D01*
X130766426Y-121061605D01*
X130669943Y-121047248D01*
X130575309Y-121070906D01*
X130496934Y-121128978D01*
X130446748Y-121212621D01*
X130432391Y-121309104D01*
X130439559Y-121357586D01*
X131283450Y-124733153D01*
X130436377Y-129250880D01*
X130432110Y-129299703D01*
X129722133Y-129299703D01*
X129858083Y-129027804D01*
X129859449Y-129024232D01*
X129860522Y-129022785D01*
X129867831Y-129002326D01*
X129875598Y-128982031D01*
X129875725Y-128980233D01*
X129877012Y-128976634D01*
X129972250Y-128595681D01*
X129974456Y-128580757D01*
X129977783Y-128566056D01*
X130073021Y-127804151D01*
X130073427Y-127788616D01*
X130074952Y-127773142D01*
X130074952Y-121296952D01*
X130070148Y-121248179D01*
X130032819Y-121158059D01*
X129963845Y-121089085D01*
X129873725Y-121051756D01*
X129776179Y-121051756D01*
X129686059Y-121089085D01*
X129617085Y-121158059D01*
X129579756Y-121248179D01*
X129574952Y-121296952D01*
X129574952Y-127757574D01*
X129483517Y-128489054D01*
X129398595Y-128828744D01*
X129289491Y-129046952D01*
X129217556Y-129046952D01*
X129108451Y-128828743D01*
X129023528Y-128489052D01*
X128932095Y-127757581D01*
X128932095Y-121296952D01*
X128927291Y-121248179D01*
X128889962Y-121158059D01*
X128820988Y-121089085D01*
X128730868Y-121051756D01*
X128633322Y-121051756D01*
X128543202Y-121089085D01*
X128474228Y-121158059D01*
X128436899Y-121248179D01*
X128432095Y-121296952D01*
X126455904Y-121296952D01*
X126454919Y-121286959D01*
X126455100Y-121276922D01*
X126453309Y-121270614D01*
X126451100Y-121248179D01*
X126437890Y-121216289D01*
X126428466Y-121183083D01*
X126419377Y-121171593D01*
X126413771Y-121158059D01*
X126389361Y-121133649D01*
X126367949Y-121106581D01*
X126355157Y-121099445D01*
X126344797Y-121089085D01*
X126312903Y-121075874D01*
X126282762Y-121059060D01*
X126268212Y-121057362D01*
X126254677Y-121051756D01*
X126220158Y-121051756D01*
X126185873Y-121047756D01*
X126171780Y-121051756D01*
X126157131Y-121051756D01*
X126125238Y-121064966D01*
X126092034Y-121074391D01*
X126080545Y-121083478D01*
X126067011Y-121089085D01*
X126042603Y-121113492D01*
X126015532Y-121134907D01*
X126008395Y-121147700D01*
X125998037Y-121158059D01*
X125984826Y-121189952D01*
X125968012Y-121220095D01*
X125963217Y-121242120D01*
X125960708Y-121248179D01*
X125959723Y-121258169D01*
X125957588Y-121267982D01*
X125539237Y-124853844D01*
X125120887Y-121267982D01*
X125118751Y-121258169D01*
X125117767Y-121248179D01*
X125115257Y-121242121D01*
X125110463Y-121220094D01*
X125093647Y-121189949D01*
X125080438Y-121158059D01*
X125070079Y-121147700D01*
X125062943Y-121134907D01*
X125035869Y-121113490D01*
X125011464Y-121089085D01*
X124997931Y-121083479D01*
X124986441Y-121074390D01*
X124953231Y-121064964D01*
X124921344Y-121051756D01*
X124906695Y-121051756D01*
X124892602Y-121047756D01*
X124858317Y-121051756D01*
X124823798Y-121051756D01*
X124810262Y-121057362D01*
X124795713Y-121059060D01*
X124765568Y-121075875D01*
X124733678Y-121089085D01*
X124723319Y-121099443D01*
X124710526Y-121106580D01*
X124689109Y-121133653D01*
X124664704Y-121158059D01*
X124659098Y-121171591D01*
X124650009Y-121183082D01*
X124640583Y-121216291D01*
X124627375Y-121248179D01*
X124625165Y-121270613D01*
X124623375Y-121276921D01*
X124623555Y-121286959D01*
X124622571Y-121296952D01*
X123790104Y-121296952D01*
X123788374Y-121276191D01*
X123787693Y-121272479D01*
X123787637Y-121268710D01*
X123786150Y-121264063D01*
X123779537Y-121227985D01*
X123766553Y-121202789D01*
X123757921Y-121175801D01*
X123744425Y-121159851D01*
X123734853Y-121141276D01*
X123713219Y-121122970D01*
X123694914Y-121101337D01*
X123676338Y-121091764D01*
X123660389Y-121078269D01*
X123633400Y-121069636D01*
X123608205Y-121056653D01*
X123587378Y-121054917D01*
X123567480Y-121048553D01*
X123539242Y-121050905D01*
X123510996Y-121048552D01*
X123491092Y-121054918D01*
X123470271Y-121056653D01*
X123445080Y-121069634D01*
X123418087Y-121078268D01*
X123402135Y-121091765D01*
X123383562Y-121101337D01*
X123365257Y-121122969D01*
X123343623Y-121141276D01*
X123334050Y-121159851D01*
X123320555Y-121175801D01*
X123311922Y-121202789D01*
X123298939Y-121227985D01*
X123292324Y-121264064D01*
X123290839Y-121268710D01*
X123290782Y-121272478D01*
X123290102Y-121276190D01*
X122623435Y-129276191D01*
X122455904Y-129276191D01*
X122455904Y-121296952D01*
X122451100Y-121248179D01*
X122413771Y-121158059D01*
X122344797Y-121089085D01*
X122254677Y-121051756D01*
X122205904Y-121046952D01*
X121443999Y-121046952D01*
X121419311Y-121049383D01*
X121412730Y-121048916D01*
X121407978Y-121050499D01*
X121395226Y-121051756D01*
X121358200Y-121067092D01*
X121320192Y-121079762D01*
X121313406Y-121085646D01*
X121305106Y-121089085D01*
X121276768Y-121117422D01*
X121246501Y-121143673D01*
X121239675Y-121154515D01*
X121236132Y-121158059D01*
X121233605Y-121164158D01*
X121220392Y-121185149D01*
X121029916Y-121566101D01*
X121028549Y-121569670D01*
X121027477Y-121571119D01*
X121020167Y-121591577D01*
X121012401Y-121611873D01*
X121012273Y-121613671D01*
X121010987Y-121617271D01*
X120915749Y-121998223D01*
X120913543Y-122013139D01*
X120910215Y-122027849D01*
X120814978Y-122789752D01*
X120814571Y-122805286D01*
X120813047Y-122820761D01*
X120170190Y-122820761D01*
X120170190Y-121546952D01*
X120491618Y-121546952D01*
X120540391Y-121542148D01*
X120630511Y-121504819D01*
X120699485Y-121435845D01*
X120736814Y-121345725D01*
X120736814Y-121248179D01*
X120699485Y-121158059D01*
X120630511Y-121089085D01*
X120540391Y-121051756D01*
X120491618Y-121046952D01*
X119348761Y-121046952D01*
X119299988Y-121051756D01*
X119209868Y-121089085D01*
X119140894Y-121158059D01*
X119103565Y-121248179D01*
X118927290Y-121248179D01*
X118889961Y-121158059D01*
X118820987Y-121089085D01*
X118730867Y-121051756D01*
X118633321Y-121051756D01*
X118543201Y-121089085D01*
X118474227Y-121158059D01*
X118436898Y-121248179D01*
X118432094Y-121296952D01*
X117599627Y-121296952D01*
X117597897Y-121276191D01*
X117597216Y-121272479D01*
X117597160Y-121268710D01*
X117595673Y-121264063D01*
X117589060Y-121227985D01*
X117576076Y-121202789D01*
X117567444Y-121175801D01*
X117553948Y-121159851D01*
X117544376Y-121141276D01*
X117522742Y-121122970D01*
X117504437Y-121101337D01*
X117485861Y-121091764D01*
X117469912Y-121078269D01*
X117442923Y-121069636D01*
X117417728Y-121056653D01*
X117396901Y-121054917D01*
X117377003Y-121048553D01*
X117348765Y-121050905D01*
X117320519Y-121048552D01*
X117300615Y-121054918D01*
X117279794Y-121056653D01*
X117254603Y-121069634D01*
X117227610Y-121078268D01*
X117211658Y-121091765D01*
X117193085Y-121101337D01*
X117174780Y-121122969D01*
X117153146Y-121141276D01*
X117143573Y-121159851D01*
X117130078Y-121175801D01*
X117121445Y-121202789D01*
X117108462Y-121227985D01*
X117101847Y-121264064D01*
X117100362Y-121268710D01*
X117100305Y-121272478D01*
X117099625Y-121276190D01*
X116432958Y-129276191D01*
X116265427Y-129276191D01*
X116265427Y-121296952D01*
X116264757Y-121290158D01*
X116265056Y-121283345D01*
X116263481Y-121277198D01*
X116260623Y-121248179D01*
X116248626Y-121219216D01*
X116240847Y-121188852D01*
X116230130Y-121174562D01*
X116223294Y-121158059D01*
X116201127Y-121135892D01*
X116182321Y-121110817D01*
X116166951Y-121101716D01*
X116154320Y-121089085D01*
X116125358Y-121077088D01*
X116098386Y-121061118D01*
X116080703Y-121058591D01*
X116064200Y-121051756D01*
X116032851Y-121051756D01*
X116001820Y-121047323D01*
X115984517Y-121051756D01*
X115966654Y-121051756D01*
X115937691Y-121063752D01*
X115907327Y-121071532D01*
X115893037Y-121082248D01*
X115876534Y-121089085D01*
X115854367Y-121111251D01*
X115829292Y-121130058D01*
X115820191Y-121145427D01*
X115807560Y-121158059D01*
X115795562Y-121187022D01*
X115779593Y-121213994D01*
X115772660Y-121242313D01*
X115770231Y-121248179D01*
X115769562Y-121254971D01*
X115767940Y-121261597D01*
X115122570Y-125779187D01*
X115122570Y-121296952D01*
X115117766Y-121248179D01*
X115080437Y-121158059D01*
X115011463Y-121089085D01*
X114921343Y-121051756D01*
X114823797Y-121051756D01*
X114733677Y-121089085D01*
X114664703Y-121158059D01*
X114627374Y-121248179D01*
X114622570Y-121296952D01*
X113913984Y-121296952D01*
X113858082Y-121185149D01*
X113844868Y-121164158D01*
X113842342Y-121158059D01*
X113838798Y-121154515D01*
X113831973Y-121143673D01*
X113801702Y-121117419D01*
X113773368Y-121089085D01*
X113765069Y-121085647D01*
X113758282Y-121079761D01*
X113720261Y-121067087D01*
X113683248Y-121051756D01*
X113670500Y-121050500D01*
X113665744Y-121048915D01*
X113659157Y-121049383D01*
X113634475Y-121046952D01*
X113158284Y-121046952D01*
X113109511Y-121051756D01*
X113093010Y-121058590D01*
X113075326Y-121061117D01*
X113048350Y-121077089D01*
X113019391Y-121089085D01*
X113006760Y-121101715D01*
X112991391Y-121110816D01*
X112958284Y-121146952D01*
X112672570Y-121527904D01*
X112647149Y-121569805D01*
X112622941Y-121664298D01*
X112636735Y-121760862D01*
X112686434Y-121844797D01*
X112764471Y-121903325D01*
X112858964Y-121927533D01*
X112955528Y-121913739D01*
X113039463Y-121864040D01*
X113072570Y-121827904D01*
X113283284Y-121546952D01*
X113479966Y-121546952D01*
X113589070Y-121765160D01*
X113673992Y-122104849D01*
X113765427Y-122836328D01*
X113765427Y-123567098D01*
X113673993Y-124298576D01*
X113589070Y-124638267D01*
X113429011Y-124958385D01*
X113076746Y-125310651D01*
X113061012Y-125329822D01*
X113056024Y-125334149D01*
X113051289Y-125341670D01*
X113045655Y-125348536D01*
X113043129Y-125354632D01*
X113029915Y-125375625D01*
X112839439Y-125756577D01*
X112838072Y-125760146D01*
X112837000Y-125761595D01*
X112829690Y-125782053D01*
X112821924Y-125802349D01*
X112821796Y-125804147D01*
X112820510Y-125807747D01*
X112725272Y-126188699D01*
X112723066Y-126203615D01*
X112719738Y-126218325D01*
X112624501Y-126980229D01*
X112624094Y-126995763D01*
X112622570Y-127011238D01*
X111733681Y-127011238D01*
X111733681Y-120158063D01*
X135059079Y-120158063D01*
X135059079Y-130435841D01*
G37*
D12*
X99814874Y-40709126D02*
X99822000Y-132842000D01*
X99814874Y-40709126D02*
G75*
G02*
X103314874Y-37209074I3500026J26D01*
G01*
X103322000Y-136342000D02*
G75*
G02*
X99822000Y-132842000I0J3500000D01*
G01*
X191770000Y-37200000D02*
X103314874Y-37209126D01*
X191770000Y-37200000D02*
G75*
G02*
X195270000Y-40700000I0J-3500000D01*
G01*
X195270000Y-40700000D02*
X195279126Y-68580000D01*
X195897126Y-136332874D02*
X103322000Y-136342000D01*
X196185594Y-70768406D02*
G75*
G02*
X195279127Y-68580000I2188406J2188406D01*
G01*
X198374000Y-72898000D02*
X196185594Y-70768406D01*
X198376585Y-72895252D02*
G75*
G02*
X199316964Y-74930001I-2056585J-2185148D01*
G01*
X199397126Y-132832874D02*
X199316982Y-74930000D01*
X199397126Y-132832874D02*
G75*
G02*
X195897126Y-136332926I-3500026J-26D01*
G01*
M02*
