%TF.GenerationSoftware,KiCad,Pcbnew,10.0.0*%
%TF.CreationDate,2026-05-09T10:54:28+08:00*%
%TF.ProjectId,PCB v0.3,50434220-7630-42e3-932e-6b696361645f,A*%
%TF.SameCoordinates,Original*%
%TF.FileFunction,Legend,Top*%
%TF.FilePolarity,Positive*%
%FSLAX46Y46*%
G04 Gerber Fmt 4.6, Leading zero omitted, Abs format (unit mm)*
G04 Created by KiCad (PCBNEW 10.0.0) date 2026-05-09 10:54:28*
%MOMM*%
%LPD*%
G01*
G04 APERTURE LIST*
%ADD10C,0.150000*%
%ADD11C,0.250000*%
%ADD12C,0.200000*%
%ADD13C,0.375000*%
%ADD14C,0.120000*%
%ADD15C,2.750000*%
%ADD16R,1.750000X1.750000*%
%ADD17C,1.750000*%
%TA.AperFunction,Profile*%
%ADD18C,0.254000*%
%TD*%
G04 APERTURE END LIST*
D10*
X143027523Y-51124295D02*
X143560857Y-51124295D01*
X143560857Y-51124295D02*
X143217999Y-51924295D01*
X143751333Y-51124295D02*
X144018000Y-51924295D01*
X144018000Y-51924295D02*
X144284666Y-51124295D01*
X144932285Y-51124295D02*
X144551333Y-51124295D01*
X144551333Y-51124295D02*
X144513237Y-51505247D01*
X144513237Y-51505247D02*
X144551333Y-51467152D01*
X144551333Y-51467152D02*
X144627523Y-51429057D01*
X144627523Y-51429057D02*
X144817999Y-51429057D01*
X144817999Y-51429057D02*
X144894190Y-51467152D01*
X144894190Y-51467152D02*
X144932285Y-51505247D01*
X144932285Y-51505247D02*
X144970380Y-51581438D01*
X144970380Y-51581438D02*
X144970380Y-51771914D01*
X144970380Y-51771914D02*
X144932285Y-51848104D01*
X144932285Y-51848104D02*
X144894190Y-51886200D01*
X144894190Y-51886200D02*
X144817999Y-51924295D01*
X144817999Y-51924295D02*
X144627523Y-51924295D01*
X144627523Y-51924295D02*
X144551333Y-51886200D01*
X144551333Y-51886200D02*
X144513237Y-51848104D01*
X180714761Y-39567247D02*
X180829047Y-39605342D01*
X180829047Y-39605342D02*
X180867142Y-39643438D01*
X180867142Y-39643438D02*
X180905238Y-39719628D01*
X180905238Y-39719628D02*
X180905238Y-39833914D01*
X180905238Y-39833914D02*
X180867142Y-39910104D01*
X180867142Y-39910104D02*
X180829047Y-39948200D01*
X180829047Y-39948200D02*
X180752857Y-39986295D01*
X180752857Y-39986295D02*
X180448095Y-39986295D01*
X180448095Y-39986295D02*
X180448095Y-39186295D01*
X180448095Y-39186295D02*
X180714761Y-39186295D01*
X180714761Y-39186295D02*
X180790952Y-39224390D01*
X180790952Y-39224390D02*
X180829047Y-39262485D01*
X180829047Y-39262485D02*
X180867142Y-39338676D01*
X180867142Y-39338676D02*
X180867142Y-39414866D01*
X180867142Y-39414866D02*
X180829047Y-39491057D01*
X180829047Y-39491057D02*
X180790952Y-39529152D01*
X180790952Y-39529152D02*
X180714761Y-39567247D01*
X180714761Y-39567247D02*
X180448095Y-39567247D01*
X181209999Y-39757723D02*
X181590952Y-39757723D01*
X181133809Y-39986295D02*
X181400476Y-39186295D01*
X181400476Y-39186295D02*
X181667142Y-39986295D01*
X181819523Y-39186295D02*
X182276666Y-39186295D01*
X182048094Y-39986295D02*
X182048094Y-39186295D01*
X182429047Y-39186295D02*
X182886190Y-39186295D01*
X182657618Y-39986295D02*
X182657618Y-39186295D01*
X114566761Y-55226295D02*
X114109618Y-55226295D01*
X114338190Y-55226295D02*
X114338190Y-54426295D01*
X114338190Y-54426295D02*
X114261999Y-54540580D01*
X114261999Y-54540580D02*
X114185809Y-54616771D01*
X114185809Y-54616771D02*
X114109618Y-54654866D01*
X114871523Y-54502485D02*
X114909619Y-54464390D01*
X114909619Y-54464390D02*
X114985809Y-54426295D01*
X114985809Y-54426295D02*
X115176285Y-54426295D01*
X115176285Y-54426295D02*
X115252476Y-54464390D01*
X115252476Y-54464390D02*
X115290571Y-54502485D01*
X115290571Y-54502485D02*
X115328666Y-54578676D01*
X115328666Y-54578676D02*
X115328666Y-54654866D01*
X115328666Y-54654866D02*
X115290571Y-54769152D01*
X115290571Y-54769152D02*
X114833428Y-55226295D01*
X114833428Y-55226295D02*
X115328666Y-55226295D01*
X115557238Y-54426295D02*
X115823905Y-55226295D01*
X115823905Y-55226295D02*
X116090571Y-54426295D01*
X148818666Y-132150295D02*
X148437714Y-132150295D01*
X148437714Y-132150295D02*
X148399618Y-132531247D01*
X148399618Y-132531247D02*
X148437714Y-132493152D01*
X148437714Y-132493152D02*
X148513904Y-132455057D01*
X148513904Y-132455057D02*
X148704380Y-132455057D01*
X148704380Y-132455057D02*
X148780571Y-132493152D01*
X148780571Y-132493152D02*
X148818666Y-132531247D01*
X148818666Y-132531247D02*
X148856761Y-132607438D01*
X148856761Y-132607438D02*
X148856761Y-132797914D01*
X148856761Y-132797914D02*
X148818666Y-132874104D01*
X148818666Y-132874104D02*
X148780571Y-132912200D01*
X148780571Y-132912200D02*
X148704380Y-132950295D01*
X148704380Y-132950295D02*
X148513904Y-132950295D01*
X148513904Y-132950295D02*
X148437714Y-132912200D01*
X148437714Y-132912200D02*
X148399618Y-132874104D01*
X149085333Y-132150295D02*
X149352000Y-132950295D01*
X149352000Y-132950295D02*
X149618666Y-132150295D01*
X150304380Y-132950295D02*
X149847237Y-132950295D01*
X150075809Y-132950295D02*
X150075809Y-132150295D01*
X150075809Y-132150295D02*
X149999618Y-132264580D01*
X149999618Y-132264580D02*
X149923428Y-132340771D01*
X149923428Y-132340771D02*
X149847237Y-132378866D01*
X152933523Y-110369723D02*
X153314476Y-110369723D01*
X152857333Y-110598295D02*
X153124000Y-109798295D01*
X153124000Y-109798295D02*
X153390666Y-110598295D01*
X153657333Y-110598295D02*
X153657333Y-109798295D01*
X153657333Y-109798295D02*
X153847809Y-109798295D01*
X153847809Y-109798295D02*
X153962095Y-109836390D01*
X153962095Y-109836390D02*
X154038285Y-109912580D01*
X154038285Y-109912580D02*
X154076380Y-109988771D01*
X154076380Y-109988771D02*
X154114476Y-110141152D01*
X154114476Y-110141152D02*
X154114476Y-110255438D01*
X154114476Y-110255438D02*
X154076380Y-110407819D01*
X154076380Y-110407819D02*
X154038285Y-110484009D01*
X154038285Y-110484009D02*
X153962095Y-110560200D01*
X153962095Y-110560200D02*
X153847809Y-110598295D01*
X153847809Y-110598295D02*
X153657333Y-110598295D01*
X154914476Y-110522104D02*
X154876380Y-110560200D01*
X154876380Y-110560200D02*
X154762095Y-110598295D01*
X154762095Y-110598295D02*
X154685904Y-110598295D01*
X154685904Y-110598295D02*
X154571618Y-110560200D01*
X154571618Y-110560200D02*
X154495428Y-110484009D01*
X154495428Y-110484009D02*
X154457333Y-110407819D01*
X154457333Y-110407819D02*
X154419237Y-110255438D01*
X154419237Y-110255438D02*
X154419237Y-110141152D01*
X154419237Y-110141152D02*
X154457333Y-109988771D01*
X154457333Y-109988771D02*
X154495428Y-109912580D01*
X154495428Y-109912580D02*
X154571618Y-109836390D01*
X154571618Y-109836390D02*
X154685904Y-109798295D01*
X154685904Y-109798295D02*
X154762095Y-109798295D01*
X154762095Y-109798295D02*
X154876380Y-109836390D01*
X154876380Y-109836390D02*
X154914476Y-109874485D01*
X150901523Y-118180295D02*
X151396761Y-118180295D01*
X151396761Y-118180295D02*
X151130095Y-118485057D01*
X151130095Y-118485057D02*
X151244380Y-118485057D01*
X151244380Y-118485057D02*
X151320571Y-118523152D01*
X151320571Y-118523152D02*
X151358666Y-118561247D01*
X151358666Y-118561247D02*
X151396761Y-118637438D01*
X151396761Y-118637438D02*
X151396761Y-118827914D01*
X151396761Y-118827914D02*
X151358666Y-118904104D01*
X151358666Y-118904104D02*
X151320571Y-118942200D01*
X151320571Y-118942200D02*
X151244380Y-118980295D01*
X151244380Y-118980295D02*
X151015809Y-118980295D01*
X151015809Y-118980295D02*
X150939618Y-118942200D01*
X150939618Y-118942200D02*
X150901523Y-118904104D01*
X151625333Y-118180295D02*
X151892000Y-118980295D01*
X151892000Y-118980295D02*
X152158666Y-118180295D01*
X152349142Y-118180295D02*
X152844380Y-118180295D01*
X152844380Y-118180295D02*
X152577714Y-118485057D01*
X152577714Y-118485057D02*
X152691999Y-118485057D01*
X152691999Y-118485057D02*
X152768190Y-118523152D01*
X152768190Y-118523152D02*
X152806285Y-118561247D01*
X152806285Y-118561247D02*
X152844380Y-118637438D01*
X152844380Y-118637438D02*
X152844380Y-118827914D01*
X152844380Y-118827914D02*
X152806285Y-118904104D01*
X152806285Y-118904104D02*
X152768190Y-118942200D01*
X152768190Y-118942200D02*
X152691999Y-118980295D01*
X152691999Y-118980295D02*
X152463428Y-118980295D01*
X152463428Y-118980295D02*
X152387237Y-118942200D01*
X152387237Y-118942200D02*
X152349142Y-118904104D01*
D11*
X137744480Y-53926730D02*
X138363527Y-53926730D01*
X138363527Y-53926730D02*
X138030194Y-54688634D01*
X138030194Y-54688634D02*
X138173051Y-54688634D01*
X138173051Y-54688634D02*
X138268289Y-54783872D01*
X138268289Y-54783872D02*
X138315908Y-54879111D01*
X138315908Y-54879111D02*
X138363527Y-55069587D01*
X138363527Y-55069587D02*
X138363527Y-55545777D01*
X138363527Y-55545777D02*
X138315908Y-55736253D01*
X138315908Y-55736253D02*
X138268289Y-55831492D01*
X138268289Y-55831492D02*
X138173051Y-55926730D01*
X138173051Y-55926730D02*
X137887337Y-55926730D01*
X137887337Y-55926730D02*
X137792099Y-55831492D01*
X137792099Y-55831492D02*
X137744480Y-55736253D01*
X137792099Y-57673206D02*
X137839718Y-57577968D01*
X137839718Y-57577968D02*
X137934956Y-57482730D01*
X137934956Y-57482730D02*
X138173051Y-57482730D01*
X138173051Y-57482730D02*
X138268289Y-57577968D01*
X138268289Y-57577968D02*
X138315908Y-57673206D01*
X138315908Y-57673206D02*
X138363527Y-57863682D01*
X138363527Y-57863682D02*
X138363527Y-58054158D01*
X138363527Y-58054158D02*
X138315908Y-58339872D01*
X138315908Y-58339872D02*
X137744480Y-59482730D01*
X137744480Y-59482730D02*
X138363527Y-59482730D01*
X138363527Y-63038730D02*
X137792099Y-63038730D01*
X138077813Y-63038730D02*
X138077813Y-61038730D01*
X138077813Y-61038730D02*
X137982575Y-61324444D01*
X137982575Y-61324444D02*
X137887337Y-61514920D01*
X137887337Y-61514920D02*
X137792099Y-61610158D01*
X138030194Y-64594730D02*
X138125432Y-64594730D01*
X138125432Y-64594730D02*
X138220670Y-64689968D01*
X138220670Y-64689968D02*
X138268289Y-64785206D01*
X138268289Y-64785206D02*
X138315908Y-64975682D01*
X138315908Y-64975682D02*
X138363527Y-65356634D01*
X138363527Y-65356634D02*
X138363527Y-65832825D01*
X138363527Y-65832825D02*
X138315908Y-66213777D01*
X138315908Y-66213777D02*
X138268289Y-66404253D01*
X138268289Y-66404253D02*
X138220670Y-66499492D01*
X138220670Y-66499492D02*
X138125432Y-66594730D01*
X138125432Y-66594730D02*
X138030194Y-66594730D01*
X138030194Y-66594730D02*
X137934956Y-66499492D01*
X137934956Y-66499492D02*
X137887337Y-66404253D01*
X137887337Y-66404253D02*
X137839718Y-66213777D01*
X137839718Y-66213777D02*
X137792099Y-65832825D01*
X137792099Y-65832825D02*
X137792099Y-65356634D01*
X137792099Y-65356634D02*
X137839718Y-64975682D01*
X137839718Y-64975682D02*
X137887337Y-64785206D01*
X137887337Y-64785206D02*
X137934956Y-64689968D01*
X137934956Y-64689968D02*
X138030194Y-64594730D01*
D12*
X149606000Y-66294000D02*
X149606000Y-41148000D01*
X149606000Y-66294000D02*
X152654000Y-69342000D01*
X152654000Y-69342000D02*
X171450000Y-69342000D01*
D11*
X108442095Y-126774238D02*
X107965905Y-126774238D01*
X107965905Y-126774238D02*
X107918286Y-127726619D01*
X107918286Y-127726619D02*
X107965905Y-127631380D01*
X107965905Y-127631380D02*
X108061143Y-127536142D01*
X108061143Y-127536142D02*
X108299238Y-127536142D01*
X108299238Y-127536142D02*
X108394476Y-127631380D01*
X108394476Y-127631380D02*
X108442095Y-127726619D01*
X108442095Y-127726619D02*
X108489714Y-127917095D01*
X108489714Y-127917095D02*
X108489714Y-128393285D01*
X108489714Y-128393285D02*
X108442095Y-128583761D01*
X108442095Y-128583761D02*
X108394476Y-128679000D01*
X108394476Y-128679000D02*
X108299238Y-128774238D01*
X108299238Y-128774238D02*
X108061143Y-128774238D01*
X108061143Y-128774238D02*
X107965905Y-128679000D01*
X107965905Y-128679000D02*
X107918286Y-128583761D01*
X108648476Y-113216904D02*
X108648476Y-114550238D01*
X108410381Y-112455000D02*
X108172286Y-113883571D01*
X108172286Y-113883571D02*
X108791333Y-113883571D01*
X107870667Y-98326238D02*
X108489714Y-98326238D01*
X108489714Y-98326238D02*
X108156381Y-99088142D01*
X108156381Y-99088142D02*
X108299238Y-99088142D01*
X108299238Y-99088142D02*
X108394476Y-99183380D01*
X108394476Y-99183380D02*
X108442095Y-99278619D01*
X108442095Y-99278619D02*
X108489714Y-99469095D01*
X108489714Y-99469095D02*
X108489714Y-99945285D01*
X108489714Y-99945285D02*
X108442095Y-100135761D01*
X108442095Y-100135761D02*
X108394476Y-100231000D01*
X108394476Y-100231000D02*
X108299238Y-100326238D01*
X108299238Y-100326238D02*
X108013524Y-100326238D01*
X108013524Y-100326238D02*
X107918286Y-100231000D01*
X107918286Y-100231000D02*
X107870667Y-100135761D01*
X107918286Y-84292714D02*
X107965905Y-84197476D01*
X107965905Y-84197476D02*
X108061143Y-84102238D01*
X108061143Y-84102238D02*
X108299238Y-84102238D01*
X108299238Y-84102238D02*
X108394476Y-84197476D01*
X108394476Y-84197476D02*
X108442095Y-84292714D01*
X108442095Y-84292714D02*
X108489714Y-84483190D01*
X108489714Y-84483190D02*
X108489714Y-84673666D01*
X108489714Y-84673666D02*
X108442095Y-84959380D01*
X108442095Y-84959380D02*
X107870667Y-86102238D01*
X107870667Y-86102238D02*
X108489714Y-86102238D01*
X108489714Y-71878238D02*
X107918286Y-71878238D01*
X108204000Y-71878238D02*
X108204000Y-69878238D01*
X108204000Y-69878238D02*
X108108762Y-70163952D01*
X108108762Y-70163952D02*
X108013524Y-70354428D01*
X108013524Y-70354428D02*
X107918286Y-70449666D01*
X108156381Y-55654238D02*
X108251619Y-55654238D01*
X108251619Y-55654238D02*
X108346857Y-55749476D01*
X108346857Y-55749476D02*
X108394476Y-55844714D01*
X108394476Y-55844714D02*
X108442095Y-56035190D01*
X108442095Y-56035190D02*
X108489714Y-56416142D01*
X108489714Y-56416142D02*
X108489714Y-56892333D01*
X108489714Y-56892333D02*
X108442095Y-57273285D01*
X108442095Y-57273285D02*
X108394476Y-57463761D01*
X108394476Y-57463761D02*
X108346857Y-57559000D01*
X108346857Y-57559000D02*
X108251619Y-57654238D01*
X108251619Y-57654238D02*
X108156381Y-57654238D01*
X108156381Y-57654238D02*
X108061143Y-57559000D01*
X108061143Y-57559000D02*
X108013524Y-57463761D01*
X108013524Y-57463761D02*
X107965905Y-57273285D01*
X107965905Y-57273285D02*
X107918286Y-56892333D01*
X107918286Y-56892333D02*
X107918286Y-56416142D01*
X107918286Y-56416142D02*
X107965905Y-56035190D01*
X107965905Y-56035190D02*
X108013524Y-55844714D01*
X108013524Y-55844714D02*
X108061143Y-55749476D01*
X108061143Y-55749476D02*
X108156381Y-55654238D01*
D12*
X152400000Y-117094000D02*
X152400000Y-83820000D01*
D11*
X142478095Y-116360238D02*
X142001905Y-116360238D01*
X142001905Y-116360238D02*
X141954286Y-117312619D01*
X141954286Y-117312619D02*
X142001905Y-117217380D01*
X142001905Y-117217380D02*
X142097143Y-117122142D01*
X142097143Y-117122142D02*
X142335238Y-117122142D01*
X142335238Y-117122142D02*
X142430476Y-117217380D01*
X142430476Y-117217380D02*
X142478095Y-117312619D01*
X142478095Y-117312619D02*
X142525714Y-117503095D01*
X142525714Y-117503095D02*
X142525714Y-117979285D01*
X142525714Y-117979285D02*
X142478095Y-118169761D01*
X142478095Y-118169761D02*
X142430476Y-118265000D01*
X142430476Y-118265000D02*
X142335238Y-118360238D01*
X142335238Y-118360238D02*
X142097143Y-118360238D01*
X142097143Y-118360238D02*
X142001905Y-118265000D01*
X142001905Y-118265000D02*
X141954286Y-118169761D01*
X149034476Y-116772904D02*
X149034476Y-118106238D01*
X148796381Y-116011000D02*
X148558286Y-117439571D01*
X148558286Y-117439571D02*
X149177333Y-117439571D01*
X141652667Y-102136238D02*
X142271714Y-102136238D01*
X142271714Y-102136238D02*
X141938381Y-102898142D01*
X141938381Y-102898142D02*
X142081238Y-102898142D01*
X142081238Y-102898142D02*
X142176476Y-102993380D01*
X142176476Y-102993380D02*
X142224095Y-103088619D01*
X142224095Y-103088619D02*
X142271714Y-103279095D01*
X142271714Y-103279095D02*
X142271714Y-103755285D01*
X142271714Y-103755285D02*
X142224095Y-103945761D01*
X142224095Y-103945761D02*
X142176476Y-104041000D01*
X142176476Y-104041000D02*
X142081238Y-104136238D01*
X142081238Y-104136238D02*
X141795524Y-104136238D01*
X141795524Y-104136238D02*
X141700286Y-104041000D01*
X141700286Y-104041000D02*
X141652667Y-103945761D01*
X148958193Y-102364818D02*
X149005812Y-102269580D01*
X149005812Y-102269580D02*
X149101050Y-102174342D01*
X149101050Y-102174342D02*
X149339145Y-102174342D01*
X149339145Y-102174342D02*
X149434383Y-102269580D01*
X149434383Y-102269580D02*
X149482002Y-102364818D01*
X149482002Y-102364818D02*
X149529621Y-102555294D01*
X149529621Y-102555294D02*
X149529621Y-102745770D01*
X149529621Y-102745770D02*
X149482002Y-103031484D01*
X149482002Y-103031484D02*
X148910574Y-104174342D01*
X148910574Y-104174342D02*
X149529621Y-104174342D01*
X142417621Y-90166238D02*
X141846193Y-90166238D01*
X142131907Y-90166238D02*
X142131907Y-88166238D01*
X142131907Y-88166238D02*
X142036669Y-88451952D01*
X142036669Y-88451952D02*
X141941431Y-88642428D01*
X141941431Y-88642428D02*
X141846193Y-88737666D01*
X149196288Y-88166238D02*
X149291526Y-88166238D01*
X149291526Y-88166238D02*
X149386764Y-88261476D01*
X149386764Y-88261476D02*
X149434383Y-88356714D01*
X149434383Y-88356714D02*
X149482002Y-88547190D01*
X149482002Y-88547190D02*
X149529621Y-88928142D01*
X149529621Y-88928142D02*
X149529621Y-89404333D01*
X149529621Y-89404333D02*
X149482002Y-89785285D01*
X149482002Y-89785285D02*
X149434383Y-89975761D01*
X149434383Y-89975761D02*
X149386764Y-90071000D01*
X149386764Y-90071000D02*
X149291526Y-90166238D01*
X149291526Y-90166238D02*
X149196288Y-90166238D01*
X149196288Y-90166238D02*
X149101050Y-90071000D01*
X149101050Y-90071000D02*
X149053431Y-89975761D01*
X149053431Y-89975761D02*
X149005812Y-89785285D01*
X149005812Y-89785285D02*
X148958193Y-89404333D01*
X148958193Y-89404333D02*
X148958193Y-88928142D01*
X148958193Y-88928142D02*
X149005812Y-88547190D01*
X149005812Y-88547190D02*
X149053431Y-88356714D01*
X149053431Y-88356714D02*
X149101050Y-88261476D01*
X149101050Y-88261476D02*
X149196288Y-88166238D01*
D12*
X177038000Y-70104000D02*
X194056000Y-70104000D01*
X142494000Y-70104000D02*
X151638000Y-70104000D01*
X136906000Y-75692000D02*
X142494000Y-70104000D01*
D11*
X155765523Y-75720238D02*
X155289333Y-75720238D01*
X155289333Y-75720238D02*
X155241714Y-76672619D01*
X155241714Y-76672619D02*
X155289333Y-76577380D01*
X155289333Y-76577380D02*
X155384571Y-76482142D01*
X155384571Y-76482142D02*
X155622666Y-76482142D01*
X155622666Y-76482142D02*
X155717904Y-76577380D01*
X155717904Y-76577380D02*
X155765523Y-76672619D01*
X155765523Y-76672619D02*
X155813142Y-76863095D01*
X155813142Y-76863095D02*
X155813142Y-77339285D01*
X155813142Y-77339285D02*
X155765523Y-77529761D01*
X155765523Y-77529761D02*
X155717904Y-77625000D01*
X155717904Y-77625000D02*
X155622666Y-77720238D01*
X155622666Y-77720238D02*
X155384571Y-77720238D01*
X155384571Y-77720238D02*
X155289333Y-77625000D01*
X155289333Y-77625000D02*
X155241714Y-77529761D01*
X156098857Y-75720238D02*
X156432190Y-77720238D01*
X156432190Y-77720238D02*
X156765523Y-75720238D01*
X159559810Y-75720238D02*
X160226476Y-75720238D01*
X160226476Y-75720238D02*
X159797905Y-77720238D01*
X160607429Y-77529761D02*
X160655048Y-77625000D01*
X160655048Y-77625000D02*
X160607429Y-77720238D01*
X160607429Y-77720238D02*
X160559810Y-77625000D01*
X160559810Y-77625000D02*
X160607429Y-77529761D01*
X160607429Y-77529761D02*
X160607429Y-77720238D01*
X161559809Y-75720238D02*
X161083619Y-75720238D01*
X161083619Y-75720238D02*
X161036000Y-76672619D01*
X161036000Y-76672619D02*
X161083619Y-76577380D01*
X161083619Y-76577380D02*
X161178857Y-76482142D01*
X161178857Y-76482142D02*
X161416952Y-76482142D01*
X161416952Y-76482142D02*
X161512190Y-76577380D01*
X161512190Y-76577380D02*
X161559809Y-76672619D01*
X161559809Y-76672619D02*
X161607428Y-76863095D01*
X161607428Y-76863095D02*
X161607428Y-77339285D01*
X161607428Y-77339285D02*
X161559809Y-77529761D01*
X161559809Y-77529761D02*
X161512190Y-77625000D01*
X161512190Y-77625000D02*
X161416952Y-77720238D01*
X161416952Y-77720238D02*
X161178857Y-77720238D01*
X161178857Y-77720238D02*
X161083619Y-77625000D01*
X161083619Y-77625000D02*
X161036000Y-77529761D01*
X161893143Y-75720238D02*
X162226476Y-77720238D01*
X162226476Y-77720238D02*
X162559809Y-75720238D01*
X165496952Y-77720238D02*
X164925524Y-77720238D01*
X165211238Y-77720238D02*
X165211238Y-75720238D01*
X165211238Y-75720238D02*
X165116000Y-76005952D01*
X165116000Y-76005952D02*
X165020762Y-76196428D01*
X165020762Y-76196428D02*
X164925524Y-76291666D01*
X165877905Y-75910714D02*
X165925524Y-75815476D01*
X165925524Y-75815476D02*
X166020762Y-75720238D01*
X166020762Y-75720238D02*
X166258857Y-75720238D01*
X166258857Y-75720238D02*
X166354095Y-75815476D01*
X166354095Y-75815476D02*
X166401714Y-75910714D01*
X166401714Y-75910714D02*
X166449333Y-76101190D01*
X166449333Y-76101190D02*
X166449333Y-76291666D01*
X166449333Y-76291666D02*
X166401714Y-76577380D01*
X166401714Y-76577380D02*
X165830286Y-77720238D01*
X165830286Y-77720238D02*
X166449333Y-77720238D01*
X166735048Y-75720238D02*
X167068381Y-77720238D01*
X167068381Y-77720238D02*
X167401714Y-75720238D01*
X169545238Y-75910714D02*
X169592857Y-75815476D01*
X169592857Y-75815476D02*
X169688095Y-75720238D01*
X169688095Y-75720238D02*
X169926190Y-75720238D01*
X169926190Y-75720238D02*
X170021428Y-75815476D01*
X170021428Y-75815476D02*
X170069047Y-75910714D01*
X170069047Y-75910714D02*
X170116666Y-76101190D01*
X170116666Y-76101190D02*
X170116666Y-76291666D01*
X170116666Y-76291666D02*
X170069047Y-76577380D01*
X170069047Y-76577380D02*
X169497619Y-77720238D01*
X169497619Y-77720238D02*
X170116666Y-77720238D01*
X170497619Y-75910714D02*
X170545238Y-75815476D01*
X170545238Y-75815476D02*
X170640476Y-75720238D01*
X170640476Y-75720238D02*
X170878571Y-75720238D01*
X170878571Y-75720238D02*
X170973809Y-75815476D01*
X170973809Y-75815476D02*
X171021428Y-75910714D01*
X171021428Y-75910714D02*
X171069047Y-76101190D01*
X171069047Y-76101190D02*
X171069047Y-76291666D01*
X171069047Y-76291666D02*
X171021428Y-76577380D01*
X171021428Y-76577380D02*
X170450000Y-77720238D01*
X170450000Y-77720238D02*
X171069047Y-77720238D01*
X171497619Y-77529761D02*
X171545238Y-77625000D01*
X171545238Y-77625000D02*
X171497619Y-77720238D01*
X171497619Y-77720238D02*
X171450000Y-77625000D01*
X171450000Y-77625000D02*
X171497619Y-77529761D01*
X171497619Y-77529761D02*
X171497619Y-77720238D01*
X171926190Y-75910714D02*
X171973809Y-75815476D01*
X171973809Y-75815476D02*
X172069047Y-75720238D01*
X172069047Y-75720238D02*
X172307142Y-75720238D01*
X172307142Y-75720238D02*
X172402380Y-75815476D01*
X172402380Y-75815476D02*
X172449999Y-75910714D01*
X172449999Y-75910714D02*
X172497618Y-76101190D01*
X172497618Y-76101190D02*
X172497618Y-76291666D01*
X172497618Y-76291666D02*
X172449999Y-76577380D01*
X172449999Y-76577380D02*
X171878571Y-77720238D01*
X171878571Y-77720238D02*
X172497618Y-77720238D01*
X172783333Y-75720238D02*
X173116666Y-77720238D01*
X173116666Y-77720238D02*
X173449999Y-75720238D01*
D12*
X168074154Y-78996733D02*
X176021999Y-78996733D01*
X176021999Y-82854800D01*
X168074154Y-82854800D01*
X168074154Y-78996733D01*
G36*
X168074154Y-78996733D02*
G01*
X176021999Y-78996733D01*
X176021999Y-82854800D01*
X168074154Y-82854800D01*
X168074154Y-78996733D01*
G37*
D13*
G36*
X162679901Y-79671281D02*
G01*
X162794787Y-79901054D01*
X162860785Y-80429030D01*
X162860785Y-81405683D01*
X162794787Y-81933660D01*
X162679902Y-82163431D01*
X162613476Y-82229857D01*
X162483093Y-82229857D01*
X162416668Y-82163431D01*
X162301781Y-81933658D01*
X162235785Y-81405685D01*
X162235785Y-80429028D01*
X162301781Y-79901054D01*
X162416667Y-79671282D01*
X162483093Y-79604857D01*
X162613476Y-79604857D01*
X162679901Y-79671281D01*
G37*
G36*
X167322759Y-79671281D02*
G01*
X167371375Y-79768514D01*
X167432214Y-80011867D01*
X167432214Y-80394274D01*
X167371375Y-80637627D01*
X167322759Y-80734860D01*
X167256334Y-80801285D01*
X166950071Y-80801285D01*
X166950071Y-79604857D01*
X167256334Y-79604857D01*
X167322759Y-79671281D01*
G37*
G36*
X161179901Y-79671281D02*
G01*
X161228517Y-79768514D01*
X161289356Y-80011867D01*
X161289356Y-80394274D01*
X161228517Y-80637627D01*
X161179901Y-80734860D01*
X161113476Y-80801285D01*
X160807213Y-80801285D01*
X160807213Y-79604857D01*
X161113476Y-79604857D01*
X161179901Y-79671281D01*
G37*
G36*
X168140547Y-82938190D02*
G01*
X160098880Y-82938190D01*
X160098880Y-79417357D01*
X160432213Y-79417357D01*
X160432213Y-82417357D01*
X160435816Y-82453936D01*
X160463812Y-82521526D01*
X160515544Y-82573258D01*
X160583134Y-82601254D01*
X160656292Y-82601254D01*
X160723882Y-82573258D01*
X160775614Y-82521526D01*
X160803610Y-82453936D01*
X160807213Y-82417357D01*
X160807213Y-81176285D01*
X161191142Y-81176285D01*
X161227721Y-81172682D01*
X161227722Y-81172682D01*
X161255718Y-81161085D01*
X161295311Y-81144686D01*
X161295312Y-81144685D01*
X161323725Y-81121368D01*
X161466581Y-80978511D01*
X161478381Y-80964131D01*
X161482123Y-80960887D01*
X161485673Y-80955246D01*
X161489899Y-80950098D01*
X161491793Y-80945525D01*
X161501704Y-80929781D01*
X161573133Y-80786924D01*
X161574157Y-80784245D01*
X161574963Y-80783159D01*
X161580445Y-80767813D01*
X161586269Y-80752596D01*
X161586364Y-80751247D01*
X161587330Y-80748546D01*
X161658758Y-80462832D01*
X161659696Y-80456487D01*
X161660753Y-80453936D01*
X161662109Y-80440164D01*
X161664134Y-80426472D01*
X161663727Y-80423739D01*
X161664356Y-80417357D01*
X161860785Y-80417357D01*
X161860785Y-81417357D01*
X161861927Y-81428960D01*
X161862233Y-81440613D01*
X161933661Y-82012041D01*
X161938536Y-82033587D01*
X161938872Y-82038309D01*
X161940665Y-82042995D01*
X161941773Y-82047891D01*
X161944113Y-82052007D01*
X161952008Y-82072638D01*
X162094866Y-82358353D01*
X162104776Y-82374095D01*
X162106671Y-82378670D01*
X162110899Y-82383822D01*
X162114447Y-82389458D01*
X162118183Y-82392698D01*
X162129988Y-82407083D01*
X162272845Y-82549939D01*
X162301258Y-82573257D01*
X162301259Y-82573258D01*
X162328350Y-82584479D01*
X162368848Y-82601254D01*
X162368849Y-82601254D01*
X162405428Y-82604857D01*
X162691142Y-82604857D01*
X162727721Y-82601254D01*
X162727722Y-82601254D01*
X162768220Y-82584479D01*
X162795311Y-82573258D01*
X162795312Y-82573257D01*
X162823725Y-82549940D01*
X162966581Y-82407083D01*
X162978384Y-82392700D01*
X162982123Y-82389458D01*
X162985670Y-82383822D01*
X162989899Y-82378670D01*
X162991794Y-82374094D01*
X163001704Y-82358352D01*
X163144561Y-82072637D01*
X163152455Y-82052007D01*
X163154796Y-82047891D01*
X163155903Y-82042994D01*
X163157697Y-82038309D01*
X163158032Y-82033587D01*
X163162908Y-82012042D01*
X163234337Y-81440614D01*
X163234642Y-81428959D01*
X163235785Y-81417357D01*
X163235785Y-80417357D01*
X163234642Y-80405754D01*
X163234337Y-80394100D01*
X163162908Y-79822671D01*
X163158032Y-79801125D01*
X163157697Y-79796404D01*
X163155903Y-79791717D01*
X163154796Y-79786822D01*
X163152455Y-79782706D01*
X163144561Y-79762075D01*
X163001704Y-79476361D01*
X162991793Y-79460618D01*
X162989899Y-79456044D01*
X162985671Y-79450892D01*
X162982123Y-79445256D01*
X162978384Y-79442013D01*
X162966581Y-79427631D01*
X162941723Y-79402773D01*
X163361353Y-79402773D01*
X163362100Y-79439522D01*
X163719243Y-82439522D01*
X163727145Y-82475419D01*
X163733686Y-82487081D01*
X163737127Y-82500008D01*
X163751422Y-82518702D01*
X163762934Y-82539225D01*
X163773442Y-82547497D01*
X163781568Y-82558123D01*
X163801928Y-82569922D01*
X163820419Y-82584479D01*
X163833295Y-82588100D01*
X163844865Y-82594806D01*
X163868187Y-82597915D01*
X163890845Y-82604289D01*
X163904127Y-82602707D01*
X163917382Y-82604475D01*
X163940119Y-82598423D01*
X163963490Y-82595641D01*
X163975154Y-82589097D01*
X163988079Y-82585658D01*
X164006772Y-82571363D01*
X164027296Y-82559851D01*
X164035568Y-82549342D01*
X164046194Y-82541217D01*
X164057993Y-82520856D01*
X164072550Y-82502366D01*
X164076172Y-82489489D01*
X164082877Y-82477920D01*
X164091283Y-82442138D01*
X164191142Y-81693192D01*
X164291002Y-82442138D01*
X164299408Y-82477920D01*
X164306112Y-82489489D01*
X164309735Y-82502366D01*
X164324291Y-82520856D01*
X164336091Y-82541217D01*
X164346716Y-82549342D01*
X164354989Y-82559851D01*
X164375511Y-82571362D01*
X164394206Y-82585658D01*
X164407132Y-82589098D01*
X164418795Y-82595640D01*
X164442160Y-82598421D01*
X164464903Y-82604475D01*
X164478159Y-82602707D01*
X164491441Y-82604289D01*
X164514094Y-82597916D01*
X164537420Y-82594807D01*
X164548992Y-82588100D01*
X164561866Y-82584479D01*
X164580355Y-82569923D01*
X164600717Y-82558123D01*
X164608842Y-82547497D01*
X164619351Y-82539225D01*
X164630862Y-82518702D01*
X164645158Y-82500008D01*
X164648598Y-82487081D01*
X164655140Y-82475419D01*
X164663042Y-82439522D01*
X165020185Y-79439522D01*
X165020636Y-79417357D01*
X165217928Y-79417357D01*
X165217928Y-82417357D01*
X165221531Y-82453936D01*
X165249527Y-82521526D01*
X165301259Y-82573258D01*
X165368849Y-82601254D01*
X165405428Y-82604857D01*
X166119714Y-82604857D01*
X166156293Y-82601254D01*
X166223883Y-82573258D01*
X166275615Y-82521526D01*
X166303611Y-82453936D01*
X166303611Y-82380778D01*
X166275615Y-82313188D01*
X166223883Y-82261456D01*
X166156293Y-82233460D01*
X166119714Y-82229857D01*
X165592928Y-82229857D01*
X165592928Y-81033428D01*
X165905428Y-81033428D01*
X165942007Y-81029825D01*
X166009597Y-81001829D01*
X166061329Y-80950097D01*
X166089325Y-80882507D01*
X166089325Y-80809349D01*
X166061329Y-80741759D01*
X166009597Y-80690027D01*
X165942007Y-80662031D01*
X165905428Y-80658428D01*
X165592928Y-80658428D01*
X165592928Y-79604857D01*
X166119714Y-79604857D01*
X166156293Y-79601254D01*
X166223883Y-79573258D01*
X166275615Y-79521526D01*
X166303611Y-79453936D01*
X166303611Y-79417357D01*
X166575071Y-79417357D01*
X166575071Y-82417357D01*
X166578674Y-82453936D01*
X166606670Y-82521526D01*
X166658402Y-82573258D01*
X166725992Y-82601254D01*
X166799150Y-82601254D01*
X166866740Y-82573258D01*
X166918472Y-82521526D01*
X166946468Y-82453936D01*
X166950071Y-82417357D01*
X166950071Y-81176285D01*
X166986687Y-81176285D01*
X167442741Y-82479298D01*
X167458225Y-82512633D01*
X167506978Y-82567180D01*
X167572895Y-82598918D01*
X167645939Y-82603014D01*
X167714990Y-82578846D01*
X167769537Y-82530093D01*
X167801275Y-82464176D01*
X167805371Y-82391132D01*
X167796688Y-82355416D01*
X167381191Y-81168286D01*
X167398576Y-81161085D01*
X167438169Y-81144686D01*
X167438170Y-81144685D01*
X167466583Y-81121368D01*
X167609439Y-80978511D01*
X167621239Y-80964131D01*
X167624981Y-80960887D01*
X167628531Y-80955246D01*
X167632757Y-80950098D01*
X167634651Y-80945525D01*
X167644562Y-80929781D01*
X167715991Y-80786924D01*
X167717015Y-80784245D01*
X167717821Y-80783159D01*
X167723303Y-80767813D01*
X167729127Y-80752596D01*
X167729222Y-80751247D01*
X167730188Y-80748546D01*
X167801616Y-80462832D01*
X167802554Y-80456487D01*
X167803611Y-80453936D01*
X167804967Y-80440164D01*
X167806992Y-80426472D01*
X167806585Y-80423739D01*
X167807214Y-80417357D01*
X167807214Y-79988785D01*
X167806585Y-79982402D01*
X167806992Y-79979670D01*
X167804967Y-79965977D01*
X167803611Y-79952206D01*
X167802554Y-79949654D01*
X167801616Y-79943310D01*
X167730188Y-79657596D01*
X167729222Y-79654894D01*
X167729127Y-79653546D01*
X167723303Y-79638328D01*
X167717821Y-79622983D01*
X167717015Y-79621896D01*
X167715991Y-79619218D01*
X167644562Y-79476361D01*
X167634651Y-79460616D01*
X167632757Y-79456044D01*
X167628531Y-79450895D01*
X167624981Y-79445255D01*
X167621239Y-79442010D01*
X167609439Y-79427631D01*
X167466583Y-79284774D01*
X167438170Y-79261457D01*
X167438169Y-79261456D01*
X167384133Y-79239074D01*
X167370580Y-79233460D01*
X167370579Y-79233460D01*
X167334000Y-79229857D01*
X166762571Y-79229857D01*
X166725992Y-79233460D01*
X166658402Y-79261456D01*
X166606670Y-79313188D01*
X166578674Y-79380778D01*
X166575071Y-79417357D01*
X166303611Y-79417357D01*
X166303611Y-79380778D01*
X166275615Y-79313188D01*
X166223883Y-79261456D01*
X166156293Y-79233460D01*
X166119714Y-79229857D01*
X165405428Y-79229857D01*
X165368849Y-79233460D01*
X165301259Y-79261456D01*
X165249527Y-79313188D01*
X165221531Y-79380778D01*
X165217928Y-79417357D01*
X165020636Y-79417357D01*
X165020932Y-79402773D01*
X165001122Y-79332348D01*
X164955868Y-79274863D01*
X164892062Y-79239073D01*
X164819417Y-79230425D01*
X164748991Y-79250235D01*
X164691506Y-79295489D01*
X164655717Y-79359295D01*
X164647815Y-79395192D01*
X164466326Y-80919691D01*
X164376997Y-80249719D01*
X164368591Y-80213937D01*
X164362545Y-80203505D01*
X164359443Y-80191849D01*
X164344357Y-80172122D01*
X164331908Y-80150640D01*
X164322327Y-80143314D01*
X164315002Y-80133734D01*
X164293518Y-80121282D01*
X164273793Y-80106199D01*
X164262139Y-80103097D01*
X164251705Y-80097050D01*
X164227087Y-80093767D01*
X164203096Y-80087382D01*
X164191145Y-80088975D01*
X164179188Y-80087381D01*
X164155184Y-80093770D01*
X164130579Y-80097051D01*
X164120147Y-80103096D01*
X164108491Y-80106199D01*
X164088764Y-80121284D01*
X164067282Y-80133734D01*
X164059956Y-80143314D01*
X164050376Y-80150640D01*
X164037926Y-80172122D01*
X164022841Y-80191849D01*
X164019738Y-80203505D01*
X164013693Y-80213937D01*
X164005287Y-80249719D01*
X163915957Y-80919688D01*
X163734470Y-79395192D01*
X163726568Y-79359295D01*
X163690779Y-79295489D01*
X163633294Y-79250235D01*
X163562869Y-79230425D01*
X163490223Y-79239074D01*
X163426417Y-79274863D01*
X163381163Y-79332348D01*
X163361353Y-79402773D01*
X162941723Y-79402773D01*
X162823725Y-79284774D01*
X162795312Y-79261457D01*
X162795311Y-79261456D01*
X162741275Y-79239074D01*
X162727722Y-79233460D01*
X162727721Y-79233460D01*
X162691142Y-79229857D01*
X162405428Y-79229857D01*
X162368849Y-79233460D01*
X162368848Y-79233460D01*
X162355295Y-79239074D01*
X162301259Y-79261456D01*
X162301258Y-79261457D01*
X162272845Y-79284775D01*
X162129988Y-79427631D01*
X162118186Y-79442011D01*
X162114447Y-79445255D01*
X162110897Y-79450894D01*
X162106671Y-79456044D01*
X162104776Y-79460616D01*
X162094866Y-79476361D01*
X161952008Y-79762075D01*
X161944113Y-79782705D01*
X161941773Y-79786822D01*
X161940665Y-79791717D01*
X161938872Y-79796404D01*
X161938536Y-79801125D01*
X161933661Y-79822672D01*
X161862233Y-80394101D01*
X161861927Y-80405753D01*
X161860785Y-80417357D01*
X161664356Y-80417357D01*
X161664356Y-79988785D01*
X161663727Y-79982402D01*
X161664134Y-79979670D01*
X161662109Y-79965977D01*
X161660753Y-79952206D01*
X161659696Y-79949654D01*
X161658758Y-79943310D01*
X161587330Y-79657596D01*
X161586364Y-79654894D01*
X161586269Y-79653546D01*
X161580445Y-79638328D01*
X161574963Y-79622983D01*
X161574157Y-79621896D01*
X161573133Y-79619218D01*
X161501704Y-79476361D01*
X161491793Y-79460616D01*
X161489899Y-79456044D01*
X161485673Y-79450895D01*
X161482123Y-79445255D01*
X161478381Y-79442010D01*
X161466581Y-79427631D01*
X161323725Y-79284774D01*
X161295312Y-79261457D01*
X161295311Y-79261456D01*
X161241275Y-79239074D01*
X161227722Y-79233460D01*
X161227721Y-79233460D01*
X161191142Y-79229857D01*
X160619713Y-79229857D01*
X160583134Y-79233460D01*
X160515544Y-79261456D01*
X160463812Y-79313188D01*
X160435816Y-79380778D01*
X160432213Y-79417357D01*
X160098880Y-79417357D01*
X160098880Y-78896524D01*
X168140547Y-78896524D01*
X168140547Y-82938190D01*
G37*
D12*
X152400000Y-78996733D02*
X160269293Y-78996733D01*
X160269293Y-82854800D01*
X152400000Y-82854800D01*
X152400000Y-78996733D01*
G36*
X152400000Y-78996733D02*
G01*
X160269293Y-78996733D01*
X160269293Y-82854800D01*
X152400000Y-82854800D01*
X152400000Y-78996733D01*
G37*
X152400000Y-70104000D02*
X176022000Y-70104000D01*
X176022000Y-78994000D01*
X152400000Y-78994000D01*
X152400000Y-70104000D01*
X136906000Y-135382000D02*
X136906000Y-75692000D01*
D10*
X102997237Y-131896295D02*
X102997237Y-132467723D01*
X102997237Y-132467723D02*
X102959142Y-132582009D01*
X102959142Y-132582009D02*
X102882951Y-132658200D01*
X102882951Y-132658200D02*
X102768666Y-132696295D01*
X102768666Y-132696295D02*
X102692475Y-132696295D01*
X103797237Y-132696295D02*
X103340094Y-132696295D01*
X103568666Y-132696295D02*
X103568666Y-131896295D01*
X103568666Y-131896295D02*
X103492475Y-132010580D01*
X103492475Y-132010580D02*
X103416285Y-132086771D01*
X103416285Y-132086771D02*
X103340094Y-132124866D01*
X104559142Y-132696295D02*
X104101999Y-132696295D01*
X104330571Y-132696295D02*
X104330571Y-131896295D01*
X104330571Y-131896295D02*
X104254380Y-132010580D01*
X104254380Y-132010580D02*
X104178190Y-132086771D01*
X104178190Y-132086771D02*
X104101999Y-132124866D01*
X104902000Y-132391533D02*
X105511524Y-132391533D01*
X106311523Y-132696295D02*
X105854380Y-132696295D01*
X106082952Y-132696295D02*
X106082952Y-131896295D01*
X106082952Y-131896295D02*
X106006761Y-132010580D01*
X106006761Y-132010580D02*
X105930571Y-132086771D01*
X105930571Y-132086771D02*
X105854380Y-132124866D01*
X106997238Y-131896295D02*
X106844857Y-131896295D01*
X106844857Y-131896295D02*
X106768666Y-131934390D01*
X106768666Y-131934390D02*
X106730571Y-131972485D01*
X106730571Y-131972485D02*
X106654381Y-132086771D01*
X106654381Y-132086771D02*
X106616285Y-132239152D01*
X106616285Y-132239152D02*
X106616285Y-132543914D01*
X106616285Y-132543914D02*
X106654381Y-132620104D01*
X106654381Y-132620104D02*
X106692476Y-132658200D01*
X106692476Y-132658200D02*
X106768666Y-132696295D01*
X106768666Y-132696295D02*
X106921047Y-132696295D01*
X106921047Y-132696295D02*
X106997238Y-132658200D01*
X106997238Y-132658200D02*
X107035333Y-132620104D01*
X107035333Y-132620104D02*
X107073428Y-132543914D01*
X107073428Y-132543914D02*
X107073428Y-132353438D01*
X107073428Y-132353438D02*
X107035333Y-132277247D01*
X107035333Y-132277247D02*
X106997238Y-132239152D01*
X106997238Y-132239152D02*
X106921047Y-132201057D01*
X106921047Y-132201057D02*
X106768666Y-132201057D01*
X106768666Y-132201057D02*
X106692476Y-132239152D01*
X106692476Y-132239152D02*
X106654381Y-132277247D01*
X106654381Y-132277247D02*
X106616285Y-132353438D01*
X139573237Y-83890295D02*
X139573237Y-84461723D01*
X139573237Y-84461723D02*
X139535142Y-84576009D01*
X139535142Y-84576009D02*
X139458951Y-84652200D01*
X139458951Y-84652200D02*
X139344666Y-84690295D01*
X139344666Y-84690295D02*
X139268475Y-84690295D01*
X140373237Y-84690295D02*
X139916094Y-84690295D01*
X140144666Y-84690295D02*
X140144666Y-83890295D01*
X140144666Y-83890295D02*
X140068475Y-84004580D01*
X140068475Y-84004580D02*
X139992285Y-84080771D01*
X139992285Y-84080771D02*
X139916094Y-84118866D01*
X140639904Y-83890295D02*
X141173238Y-83890295D01*
X141173238Y-83890295D02*
X140830380Y-84690295D01*
X141478000Y-84385533D02*
X142087524Y-84385533D01*
X142430380Y-83966485D02*
X142468476Y-83928390D01*
X142468476Y-83928390D02*
X142544666Y-83890295D01*
X142544666Y-83890295D02*
X142735142Y-83890295D01*
X142735142Y-83890295D02*
X142811333Y-83928390D01*
X142811333Y-83928390D02*
X142849428Y-83966485D01*
X142849428Y-83966485D02*
X142887523Y-84042676D01*
X142887523Y-84042676D02*
X142887523Y-84118866D01*
X142887523Y-84118866D02*
X142849428Y-84233152D01*
X142849428Y-84233152D02*
X142392285Y-84690295D01*
X142392285Y-84690295D02*
X142887523Y-84690295D01*
X143192285Y-83966485D02*
X143230381Y-83928390D01*
X143230381Y-83928390D02*
X143306571Y-83890295D01*
X143306571Y-83890295D02*
X143497047Y-83890295D01*
X143497047Y-83890295D02*
X143573238Y-83928390D01*
X143573238Y-83928390D02*
X143611333Y-83966485D01*
X143611333Y-83966485D02*
X143649428Y-84042676D01*
X143649428Y-84042676D02*
X143649428Y-84118866D01*
X143649428Y-84118866D02*
X143611333Y-84233152D01*
X143611333Y-84233152D02*
X143154190Y-84690295D01*
X143154190Y-84690295D02*
X143649428Y-84690295D01*
X141986190Y-67380295D02*
X141986190Y-67951723D01*
X141986190Y-67951723D02*
X141948095Y-68066009D01*
X141948095Y-68066009D02*
X141871904Y-68142200D01*
X141871904Y-68142200D02*
X141757619Y-68180295D01*
X141757619Y-68180295D02*
X141681428Y-68180295D01*
X142290952Y-67380295D02*
X142824286Y-67380295D01*
X142824286Y-67380295D02*
X142481428Y-68180295D01*
X143129048Y-67875533D02*
X143738572Y-67875533D01*
X144538571Y-68180295D02*
X144081428Y-68180295D01*
X144310000Y-68180295D02*
X144310000Y-67380295D01*
X144310000Y-67380295D02*
X144233809Y-67494580D01*
X144233809Y-67494580D02*
X144157619Y-67570771D01*
X144157619Y-67570771D02*
X144081428Y-67608866D01*
X145033810Y-67380295D02*
X145110000Y-67380295D01*
X145110000Y-67380295D02*
X145186191Y-67418390D01*
X145186191Y-67418390D02*
X145224286Y-67456485D01*
X145224286Y-67456485D02*
X145262381Y-67532676D01*
X145262381Y-67532676D02*
X145300476Y-67685057D01*
X145300476Y-67685057D02*
X145300476Y-67875533D01*
X145300476Y-67875533D02*
X145262381Y-68027914D01*
X145262381Y-68027914D02*
X145224286Y-68104104D01*
X145224286Y-68104104D02*
X145186191Y-68142200D01*
X145186191Y-68142200D02*
X145110000Y-68180295D01*
X145110000Y-68180295D02*
X145033810Y-68180295D01*
X145033810Y-68180295D02*
X144957619Y-68142200D01*
X144957619Y-68142200D02*
X144919524Y-68104104D01*
X144919524Y-68104104D02*
X144881429Y-68027914D01*
X144881429Y-68027914D02*
X144843333Y-67875533D01*
X144843333Y-67875533D02*
X144843333Y-67685057D01*
X144843333Y-67685057D02*
X144881429Y-67532676D01*
X144881429Y-67532676D02*
X144919524Y-67456485D01*
X144919524Y-67456485D02*
X144957619Y-67418390D01*
X144957619Y-67418390D02*
X145033810Y-67380295D01*
X175622295Y-74364666D02*
X174822295Y-74364666D01*
X174822295Y-74364666D02*
X174822295Y-74174190D01*
X174822295Y-74174190D02*
X174860390Y-74059904D01*
X174860390Y-74059904D02*
X174936580Y-73983714D01*
X174936580Y-73983714D02*
X175012771Y-73945619D01*
X175012771Y-73945619D02*
X175165152Y-73907523D01*
X175165152Y-73907523D02*
X175279438Y-73907523D01*
X175279438Y-73907523D02*
X175431819Y-73945619D01*
X175431819Y-73945619D02*
X175508009Y-73983714D01*
X175508009Y-73983714D02*
X175584200Y-74059904D01*
X175584200Y-74059904D02*
X175622295Y-74174190D01*
X175622295Y-74174190D02*
X175622295Y-74364666D01*
X175088961Y-73221809D02*
X175622295Y-73221809D01*
X174784200Y-73412285D02*
X175355628Y-73602762D01*
X175355628Y-73602762D02*
X175355628Y-73107523D01*
X175317533Y-72802761D02*
X175317533Y-72193238D01*
X174822295Y-71888476D02*
X174822295Y-71355142D01*
X174822295Y-71355142D02*
X175622295Y-71698000D01*
X190252476Y-73006295D02*
X189985809Y-72625342D01*
X189795333Y-73006295D02*
X189795333Y-72206295D01*
X189795333Y-72206295D02*
X190100095Y-72206295D01*
X190100095Y-72206295D02*
X190176285Y-72244390D01*
X190176285Y-72244390D02*
X190214380Y-72282485D01*
X190214380Y-72282485D02*
X190252476Y-72358676D01*
X190252476Y-72358676D02*
X190252476Y-72472961D01*
X190252476Y-72472961D02*
X190214380Y-72549152D01*
X190214380Y-72549152D02*
X190176285Y-72587247D01*
X190176285Y-72587247D02*
X190100095Y-72625342D01*
X190100095Y-72625342D02*
X189795333Y-72625342D01*
X190938190Y-72472961D02*
X190938190Y-73006295D01*
X190747714Y-72168200D02*
X190557237Y-72739628D01*
X190557237Y-72739628D02*
X191052476Y-72739628D01*
X191357238Y-72701533D02*
X191966762Y-72701533D01*
X192385809Y-73006295D02*
X192538190Y-73006295D01*
X192538190Y-73006295D02*
X192614380Y-72968200D01*
X192614380Y-72968200D02*
X192652476Y-72930104D01*
X192652476Y-72930104D02*
X192728666Y-72815819D01*
X192728666Y-72815819D02*
X192766761Y-72663438D01*
X192766761Y-72663438D02*
X192766761Y-72358676D01*
X192766761Y-72358676D02*
X192728666Y-72282485D01*
X192728666Y-72282485D02*
X192690571Y-72244390D01*
X192690571Y-72244390D02*
X192614380Y-72206295D01*
X192614380Y-72206295D02*
X192461999Y-72206295D01*
X192461999Y-72206295D02*
X192385809Y-72244390D01*
X192385809Y-72244390D02*
X192347714Y-72282485D01*
X192347714Y-72282485D02*
X192309618Y-72358676D01*
X192309618Y-72358676D02*
X192309618Y-72549152D01*
X192309618Y-72549152D02*
X192347714Y-72625342D01*
X192347714Y-72625342D02*
X192385809Y-72663438D01*
X192385809Y-72663438D02*
X192461999Y-72701533D01*
X192461999Y-72701533D02*
X192614380Y-72701533D01*
X192614380Y-72701533D02*
X192690571Y-72663438D01*
X192690571Y-72663438D02*
X192728666Y-72625342D01*
X192728666Y-72625342D02*
X192766761Y-72549152D01*
X155750693Y-121190104D02*
X155712597Y-121228200D01*
X155712597Y-121228200D02*
X155598312Y-121266295D01*
X155598312Y-121266295D02*
X155522121Y-121266295D01*
X155522121Y-121266295D02*
X155407835Y-121228200D01*
X155407835Y-121228200D02*
X155331645Y-121152009D01*
X155331645Y-121152009D02*
X155293550Y-121075819D01*
X155293550Y-121075819D02*
X155255454Y-120923438D01*
X155255454Y-120923438D02*
X155255454Y-120809152D01*
X155255454Y-120809152D02*
X155293550Y-120656771D01*
X155293550Y-120656771D02*
X155331645Y-120580580D01*
X155331645Y-120580580D02*
X155407835Y-120504390D01*
X155407835Y-120504390D02*
X155522121Y-120466295D01*
X155522121Y-120466295D02*
X155598312Y-120466295D01*
X155598312Y-120466295D02*
X155712597Y-120504390D01*
X155712597Y-120504390D02*
X155750693Y-120542485D01*
X156436407Y-120732961D02*
X156436407Y-121266295D01*
X156245931Y-120428200D02*
X156055454Y-120999628D01*
X156055454Y-120999628D02*
X156550693Y-120999628D01*
X171505524Y-47352295D02*
X171505524Y-46552295D01*
X171505524Y-46552295D02*
X171696000Y-46552295D01*
X171696000Y-46552295D02*
X171810286Y-46590390D01*
X171810286Y-46590390D02*
X171886476Y-46666580D01*
X171886476Y-46666580D02*
X171924571Y-46742771D01*
X171924571Y-46742771D02*
X171962667Y-46895152D01*
X171962667Y-46895152D02*
X171962667Y-47009438D01*
X171962667Y-47009438D02*
X171924571Y-47161819D01*
X171924571Y-47161819D02*
X171886476Y-47238009D01*
X171886476Y-47238009D02*
X171810286Y-47314200D01*
X171810286Y-47314200D02*
X171696000Y-47352295D01*
X171696000Y-47352295D02*
X171505524Y-47352295D01*
X172724571Y-47352295D02*
X172267428Y-47352295D01*
X172496000Y-47352295D02*
X172496000Y-46552295D01*
X172496000Y-46552295D02*
X172419809Y-46666580D01*
X172419809Y-46666580D02*
X172343619Y-46742771D01*
X172343619Y-46742771D02*
X172267428Y-46780866D01*
X171019333Y-38678295D02*
X171019333Y-39249723D01*
X171019333Y-39249723D02*
X170981238Y-39364009D01*
X170981238Y-39364009D02*
X170905047Y-39440200D01*
X170905047Y-39440200D02*
X170790762Y-39478295D01*
X170790762Y-39478295D02*
X170714571Y-39478295D01*
X171781238Y-38678295D02*
X171400286Y-38678295D01*
X171400286Y-38678295D02*
X171362190Y-39059247D01*
X171362190Y-39059247D02*
X171400286Y-39021152D01*
X171400286Y-39021152D02*
X171476476Y-38983057D01*
X171476476Y-38983057D02*
X171666952Y-38983057D01*
X171666952Y-38983057D02*
X171743143Y-39021152D01*
X171743143Y-39021152D02*
X171781238Y-39059247D01*
X171781238Y-39059247D02*
X171819333Y-39135438D01*
X171819333Y-39135438D02*
X171819333Y-39325914D01*
X171819333Y-39325914D02*
X171781238Y-39402104D01*
X171781238Y-39402104D02*
X171743143Y-39440200D01*
X171743143Y-39440200D02*
X171666952Y-39478295D01*
X171666952Y-39478295D02*
X171476476Y-39478295D01*
X171476476Y-39478295D02*
X171400286Y-39440200D01*
X171400286Y-39440200D02*
X171362190Y-39402104D01*
X165481238Y-44681533D02*
X166090762Y-44681533D01*
X176481238Y-44681533D02*
X177090762Y-44681533D01*
X176786000Y-44986295D02*
X176786000Y-44376771D01*
X161033064Y-84207723D02*
X161414017Y-84207723D01*
X160956874Y-84436295D02*
X161223541Y-83636295D01*
X161223541Y-83636295D02*
X161490207Y-84436295D01*
X162175921Y-84436295D02*
X161718778Y-84436295D01*
X161947350Y-84436295D02*
X161947350Y-83636295D01*
X161947350Y-83636295D02*
X161871159Y-83750580D01*
X161871159Y-83750580D02*
X161794969Y-83826771D01*
X161794969Y-83826771D02*
X161718778Y-83864866D01*
X135299524Y-60560295D02*
X135299524Y-59760295D01*
X135299524Y-59760295D02*
X135490000Y-59760295D01*
X135490000Y-59760295D02*
X135604286Y-59798390D01*
X135604286Y-59798390D02*
X135680476Y-59874580D01*
X135680476Y-59874580D02*
X135718571Y-59950771D01*
X135718571Y-59950771D02*
X135756667Y-60103152D01*
X135756667Y-60103152D02*
X135756667Y-60217438D01*
X135756667Y-60217438D02*
X135718571Y-60369819D01*
X135718571Y-60369819D02*
X135680476Y-60446009D01*
X135680476Y-60446009D02*
X135604286Y-60522200D01*
X135604286Y-60522200D02*
X135490000Y-60560295D01*
X135490000Y-60560295D02*
X135299524Y-60560295D01*
X136061428Y-59836485D02*
X136099524Y-59798390D01*
X136099524Y-59798390D02*
X136175714Y-59760295D01*
X136175714Y-59760295D02*
X136366190Y-59760295D01*
X136366190Y-59760295D02*
X136442381Y-59798390D01*
X136442381Y-59798390D02*
X136480476Y-59836485D01*
X136480476Y-59836485D02*
X136518571Y-59912676D01*
X136518571Y-59912676D02*
X136518571Y-59988866D01*
X136518571Y-59988866D02*
X136480476Y-60103152D01*
X136480476Y-60103152D02*
X136023333Y-60560295D01*
X136023333Y-60560295D02*
X136518571Y-60560295D01*
X155568667Y-115094104D02*
X155530571Y-115132200D01*
X155530571Y-115132200D02*
X155416286Y-115170295D01*
X155416286Y-115170295D02*
X155340095Y-115170295D01*
X155340095Y-115170295D02*
X155225809Y-115132200D01*
X155225809Y-115132200D02*
X155149619Y-115056009D01*
X155149619Y-115056009D02*
X155111524Y-114979819D01*
X155111524Y-114979819D02*
X155073428Y-114827438D01*
X155073428Y-114827438D02*
X155073428Y-114713152D01*
X155073428Y-114713152D02*
X155111524Y-114560771D01*
X155111524Y-114560771D02*
X155149619Y-114484580D01*
X155149619Y-114484580D02*
X155225809Y-114408390D01*
X155225809Y-114408390D02*
X155340095Y-114370295D01*
X155340095Y-114370295D02*
X155416286Y-114370295D01*
X155416286Y-114370295D02*
X155530571Y-114408390D01*
X155530571Y-114408390D02*
X155568667Y-114446485D01*
X155949619Y-115170295D02*
X156102000Y-115170295D01*
X156102000Y-115170295D02*
X156178190Y-115132200D01*
X156178190Y-115132200D02*
X156216286Y-115094104D01*
X156216286Y-115094104D02*
X156292476Y-114979819D01*
X156292476Y-114979819D02*
X156330571Y-114827438D01*
X156330571Y-114827438D02*
X156330571Y-114522676D01*
X156330571Y-114522676D02*
X156292476Y-114446485D01*
X156292476Y-114446485D02*
X156254381Y-114408390D01*
X156254381Y-114408390D02*
X156178190Y-114370295D01*
X156178190Y-114370295D02*
X156025809Y-114370295D01*
X156025809Y-114370295D02*
X155949619Y-114408390D01*
X155949619Y-114408390D02*
X155911524Y-114446485D01*
X155911524Y-114446485D02*
X155873428Y-114522676D01*
X155873428Y-114522676D02*
X155873428Y-114713152D01*
X155873428Y-114713152D02*
X155911524Y-114789342D01*
X155911524Y-114789342D02*
X155949619Y-114827438D01*
X155949619Y-114827438D02*
X156025809Y-114865533D01*
X156025809Y-114865533D02*
X156178190Y-114865533D01*
X156178190Y-114865533D02*
X156254381Y-114827438D01*
X156254381Y-114827438D02*
X156292476Y-114789342D01*
X156292476Y-114789342D02*
X156330571Y-114713152D01*
X163738667Y-62392104D02*
X163700571Y-62430200D01*
X163700571Y-62430200D02*
X163586286Y-62468295D01*
X163586286Y-62468295D02*
X163510095Y-62468295D01*
X163510095Y-62468295D02*
X163395809Y-62430200D01*
X163395809Y-62430200D02*
X163319619Y-62354009D01*
X163319619Y-62354009D02*
X163281524Y-62277819D01*
X163281524Y-62277819D02*
X163243428Y-62125438D01*
X163243428Y-62125438D02*
X163243428Y-62011152D01*
X163243428Y-62011152D02*
X163281524Y-61858771D01*
X163281524Y-61858771D02*
X163319619Y-61782580D01*
X163319619Y-61782580D02*
X163395809Y-61706390D01*
X163395809Y-61706390D02*
X163510095Y-61668295D01*
X163510095Y-61668295D02*
X163586286Y-61668295D01*
X163586286Y-61668295D02*
X163700571Y-61706390D01*
X163700571Y-61706390D02*
X163738667Y-61744485D01*
X164500571Y-62468295D02*
X164043428Y-62468295D01*
X164272000Y-62468295D02*
X164272000Y-61668295D01*
X164272000Y-61668295D02*
X164195809Y-61782580D01*
X164195809Y-61782580D02*
X164119619Y-61858771D01*
X164119619Y-61858771D02*
X164043428Y-61896866D01*
X156287333Y-38678295D02*
X156287333Y-39249723D01*
X156287333Y-39249723D02*
X156249238Y-39364009D01*
X156249238Y-39364009D02*
X156173047Y-39440200D01*
X156173047Y-39440200D02*
X156058762Y-39478295D01*
X156058762Y-39478295D02*
X155982571Y-39478295D01*
X156592095Y-38678295D02*
X157087333Y-38678295D01*
X157087333Y-38678295D02*
X156820667Y-38983057D01*
X156820667Y-38983057D02*
X156934952Y-38983057D01*
X156934952Y-38983057D02*
X157011143Y-39021152D01*
X157011143Y-39021152D02*
X157049238Y-39059247D01*
X157049238Y-39059247D02*
X157087333Y-39135438D01*
X157087333Y-39135438D02*
X157087333Y-39325914D01*
X157087333Y-39325914D02*
X157049238Y-39402104D01*
X157049238Y-39402104D02*
X157011143Y-39440200D01*
X157011143Y-39440200D02*
X156934952Y-39478295D01*
X156934952Y-39478295D02*
X156706381Y-39478295D01*
X156706381Y-39478295D02*
X156630190Y-39440200D01*
X156630190Y-39440200D02*
X156592095Y-39402104D01*
X150749238Y-44681533D02*
X151358762Y-44681533D01*
X161749238Y-44681533D02*
X162358762Y-44681533D01*
X162054000Y-44986295D02*
X162054000Y-44376771D01*
X144189524Y-121012295D02*
X144189524Y-120212295D01*
X144189524Y-120212295D02*
X144380000Y-120212295D01*
X144380000Y-120212295D02*
X144494286Y-120250390D01*
X144494286Y-120250390D02*
X144570476Y-120326580D01*
X144570476Y-120326580D02*
X144608571Y-120402771D01*
X144608571Y-120402771D02*
X144646667Y-120555152D01*
X144646667Y-120555152D02*
X144646667Y-120669438D01*
X144646667Y-120669438D02*
X144608571Y-120821819D01*
X144608571Y-120821819D02*
X144570476Y-120898009D01*
X144570476Y-120898009D02*
X144494286Y-120974200D01*
X144494286Y-120974200D02*
X144380000Y-121012295D01*
X144380000Y-121012295D02*
X144189524Y-121012295D01*
X144913333Y-120212295D02*
X145408571Y-120212295D01*
X145408571Y-120212295D02*
X145141905Y-120517057D01*
X145141905Y-120517057D02*
X145256190Y-120517057D01*
X145256190Y-120517057D02*
X145332381Y-120555152D01*
X145332381Y-120555152D02*
X145370476Y-120593247D01*
X145370476Y-120593247D02*
X145408571Y-120669438D01*
X145408571Y-120669438D02*
X145408571Y-120859914D01*
X145408571Y-120859914D02*
X145370476Y-120936104D01*
X145370476Y-120936104D02*
X145332381Y-120974200D01*
X145332381Y-120974200D02*
X145256190Y-121012295D01*
X145256190Y-121012295D02*
X145027619Y-121012295D01*
X145027619Y-121012295D02*
X144951428Y-120974200D01*
X144951428Y-120974200D02*
X144913333Y-120936104D01*
X123342476Y-104210295D02*
X123342476Y-104857914D01*
X123342476Y-104857914D02*
X123380571Y-104934104D01*
X123380571Y-104934104D02*
X123418666Y-104972200D01*
X123418666Y-104972200D02*
X123494857Y-105010295D01*
X123494857Y-105010295D02*
X123647238Y-105010295D01*
X123647238Y-105010295D02*
X123723428Y-104972200D01*
X123723428Y-104972200D02*
X123761523Y-104934104D01*
X123761523Y-104934104D02*
X123799619Y-104857914D01*
X123799619Y-104857914D02*
X123799619Y-104210295D01*
X124599618Y-105010295D02*
X124142475Y-105010295D01*
X124371047Y-105010295D02*
X124371047Y-104210295D01*
X124371047Y-104210295D02*
X124294856Y-104324580D01*
X124294856Y-104324580D02*
X124218666Y-104400771D01*
X124218666Y-104400771D02*
X124142475Y-104438866D01*
X132962667Y-61754104D02*
X132924571Y-61792200D01*
X132924571Y-61792200D02*
X132810286Y-61830295D01*
X132810286Y-61830295D02*
X132734095Y-61830295D01*
X132734095Y-61830295D02*
X132619809Y-61792200D01*
X132619809Y-61792200D02*
X132543619Y-61716009D01*
X132543619Y-61716009D02*
X132505524Y-61639819D01*
X132505524Y-61639819D02*
X132467428Y-61487438D01*
X132467428Y-61487438D02*
X132467428Y-61373152D01*
X132467428Y-61373152D02*
X132505524Y-61220771D01*
X132505524Y-61220771D02*
X132543619Y-61144580D01*
X132543619Y-61144580D02*
X132619809Y-61068390D01*
X132619809Y-61068390D02*
X132734095Y-61030295D01*
X132734095Y-61030295D02*
X132810286Y-61030295D01*
X132810286Y-61030295D02*
X132924571Y-61068390D01*
X132924571Y-61068390D02*
X132962667Y-61106485D01*
X133229333Y-61030295D02*
X133762667Y-61030295D01*
X133762667Y-61030295D02*
X133419809Y-61830295D01*
X139687333Y-121101247D02*
X139420667Y-121101247D01*
X139420667Y-121520295D02*
X139420667Y-120720295D01*
X139420667Y-120720295D02*
X139801619Y-120720295D01*
X140068285Y-120796485D02*
X140106381Y-120758390D01*
X140106381Y-120758390D02*
X140182571Y-120720295D01*
X140182571Y-120720295D02*
X140373047Y-120720295D01*
X140373047Y-120720295D02*
X140449238Y-120758390D01*
X140449238Y-120758390D02*
X140487333Y-120796485D01*
X140487333Y-120796485D02*
X140525428Y-120872676D01*
X140525428Y-120872676D02*
X140525428Y-120948866D01*
X140525428Y-120948866D02*
X140487333Y-121063152D01*
X140487333Y-121063152D02*
X140030190Y-121520295D01*
X140030190Y-121520295D02*
X140525428Y-121520295D01*
X156838667Y-105264295D02*
X156572000Y-104883342D01*
X156381524Y-105264295D02*
X156381524Y-104464295D01*
X156381524Y-104464295D02*
X156686286Y-104464295D01*
X156686286Y-104464295D02*
X156762476Y-104502390D01*
X156762476Y-104502390D02*
X156800571Y-104540485D01*
X156800571Y-104540485D02*
X156838667Y-104616676D01*
X156838667Y-104616676D02*
X156838667Y-104730961D01*
X156838667Y-104730961D02*
X156800571Y-104807152D01*
X156800571Y-104807152D02*
X156762476Y-104845247D01*
X156762476Y-104845247D02*
X156686286Y-104883342D01*
X156686286Y-104883342D02*
X156381524Y-104883342D01*
X157143428Y-104540485D02*
X157181524Y-104502390D01*
X157181524Y-104502390D02*
X157257714Y-104464295D01*
X157257714Y-104464295D02*
X157448190Y-104464295D01*
X157448190Y-104464295D02*
X157524381Y-104502390D01*
X157524381Y-104502390D02*
X157562476Y-104540485D01*
X157562476Y-104540485D02*
X157600571Y-104616676D01*
X157600571Y-104616676D02*
X157600571Y-104692866D01*
X157600571Y-104692866D02*
X157562476Y-104807152D01*
X157562476Y-104807152D02*
X157105333Y-105264295D01*
X157105333Y-105264295D02*
X157600571Y-105264295D01*
X142990318Y-49910104D02*
X142952222Y-49948200D01*
X142952222Y-49948200D02*
X142837937Y-49986295D01*
X142837937Y-49986295D02*
X142761746Y-49986295D01*
X142761746Y-49986295D02*
X142647460Y-49948200D01*
X142647460Y-49948200D02*
X142571270Y-49872009D01*
X142571270Y-49872009D02*
X142533175Y-49795819D01*
X142533175Y-49795819D02*
X142495079Y-49643438D01*
X142495079Y-49643438D02*
X142495079Y-49529152D01*
X142495079Y-49529152D02*
X142533175Y-49376771D01*
X142533175Y-49376771D02*
X142571270Y-49300580D01*
X142571270Y-49300580D02*
X142647460Y-49224390D01*
X142647460Y-49224390D02*
X142761746Y-49186295D01*
X142761746Y-49186295D02*
X142837937Y-49186295D01*
X142837937Y-49186295D02*
X142952222Y-49224390D01*
X142952222Y-49224390D02*
X142990318Y-49262485D01*
X143714127Y-49186295D02*
X143333175Y-49186295D01*
X143333175Y-49186295D02*
X143295079Y-49567247D01*
X143295079Y-49567247D02*
X143333175Y-49529152D01*
X143333175Y-49529152D02*
X143409365Y-49491057D01*
X143409365Y-49491057D02*
X143599841Y-49491057D01*
X143599841Y-49491057D02*
X143676032Y-49529152D01*
X143676032Y-49529152D02*
X143714127Y-49567247D01*
X143714127Y-49567247D02*
X143752222Y-49643438D01*
X143752222Y-49643438D02*
X143752222Y-49833914D01*
X143752222Y-49833914D02*
X143714127Y-49910104D01*
X143714127Y-49910104D02*
X143676032Y-49948200D01*
X143676032Y-49948200D02*
X143599841Y-49986295D01*
X143599841Y-49986295D02*
X143409365Y-49986295D01*
X143409365Y-49986295D02*
X143333175Y-49948200D01*
X143333175Y-49948200D02*
X143295079Y-49910104D01*
X156838667Y-103994295D02*
X156572000Y-103613342D01*
X156381524Y-103994295D02*
X156381524Y-103194295D01*
X156381524Y-103194295D02*
X156686286Y-103194295D01*
X156686286Y-103194295D02*
X156762476Y-103232390D01*
X156762476Y-103232390D02*
X156800571Y-103270485D01*
X156800571Y-103270485D02*
X156838667Y-103346676D01*
X156838667Y-103346676D02*
X156838667Y-103460961D01*
X156838667Y-103460961D02*
X156800571Y-103537152D01*
X156800571Y-103537152D02*
X156762476Y-103575247D01*
X156762476Y-103575247D02*
X156686286Y-103613342D01*
X156686286Y-103613342D02*
X156381524Y-103613342D01*
X157105333Y-103194295D02*
X157600571Y-103194295D01*
X157600571Y-103194295D02*
X157333905Y-103499057D01*
X157333905Y-103499057D02*
X157448190Y-103499057D01*
X157448190Y-103499057D02*
X157524381Y-103537152D01*
X157524381Y-103537152D02*
X157562476Y-103575247D01*
X157562476Y-103575247D02*
X157600571Y-103651438D01*
X157600571Y-103651438D02*
X157600571Y-103841914D01*
X157600571Y-103841914D02*
X157562476Y-103918104D01*
X157562476Y-103918104D02*
X157524381Y-103956200D01*
X157524381Y-103956200D02*
X157448190Y-103994295D01*
X157448190Y-103994295D02*
X157219619Y-103994295D01*
X157219619Y-103994295D02*
X157143428Y-103956200D01*
X157143428Y-103956200D02*
X157105333Y-103918104D01*
X176388667Y-47352295D02*
X176122000Y-46971342D01*
X175931524Y-47352295D02*
X175931524Y-46552295D01*
X175931524Y-46552295D02*
X176236286Y-46552295D01*
X176236286Y-46552295D02*
X176312476Y-46590390D01*
X176312476Y-46590390D02*
X176350571Y-46628485D01*
X176350571Y-46628485D02*
X176388667Y-46704676D01*
X176388667Y-46704676D02*
X176388667Y-46818961D01*
X176388667Y-46818961D02*
X176350571Y-46895152D01*
X176350571Y-46895152D02*
X176312476Y-46933247D01*
X176312476Y-46933247D02*
X176236286Y-46971342D01*
X176236286Y-46971342D02*
X175931524Y-46971342D01*
X177150571Y-47352295D02*
X176693428Y-47352295D01*
X176922000Y-47352295D02*
X176922000Y-46552295D01*
X176922000Y-46552295D02*
X176845809Y-46666580D01*
X176845809Y-46666580D02*
X176769619Y-46742771D01*
X176769619Y-46742771D02*
X176693428Y-46780866D01*
X172707333Y-68269247D02*
X172440667Y-68269247D01*
X172440667Y-68688295D02*
X172440667Y-67888295D01*
X172440667Y-67888295D02*
X172821619Y-67888295D01*
X173545428Y-68688295D02*
X173088285Y-68688295D01*
X173316857Y-68688295D02*
X173316857Y-67888295D01*
X173316857Y-67888295D02*
X173240666Y-68002580D01*
X173240666Y-68002580D02*
X173164476Y-68078771D01*
X173164476Y-68078771D02*
X173088285Y-68116866D01*
X155750693Y-131069604D02*
X155712597Y-131107700D01*
X155712597Y-131107700D02*
X155598312Y-131145795D01*
X155598312Y-131145795D02*
X155522121Y-131145795D01*
X155522121Y-131145795D02*
X155407835Y-131107700D01*
X155407835Y-131107700D02*
X155331645Y-131031509D01*
X155331645Y-131031509D02*
X155293550Y-130955319D01*
X155293550Y-130955319D02*
X155255454Y-130802938D01*
X155255454Y-130802938D02*
X155255454Y-130688652D01*
X155255454Y-130688652D02*
X155293550Y-130536271D01*
X155293550Y-130536271D02*
X155331645Y-130460080D01*
X155331645Y-130460080D02*
X155407835Y-130383890D01*
X155407835Y-130383890D02*
X155522121Y-130345795D01*
X155522121Y-130345795D02*
X155598312Y-130345795D01*
X155598312Y-130345795D02*
X155712597Y-130383890D01*
X155712597Y-130383890D02*
X155750693Y-130421985D01*
X156017359Y-130345795D02*
X156512597Y-130345795D01*
X156512597Y-130345795D02*
X156245931Y-130650557D01*
X156245931Y-130650557D02*
X156360216Y-130650557D01*
X156360216Y-130650557D02*
X156436407Y-130688652D01*
X156436407Y-130688652D02*
X156474502Y-130726747D01*
X156474502Y-130726747D02*
X156512597Y-130802938D01*
X156512597Y-130802938D02*
X156512597Y-130993414D01*
X156512597Y-130993414D02*
X156474502Y-131069604D01*
X156474502Y-131069604D02*
X156436407Y-131107700D01*
X156436407Y-131107700D02*
X156360216Y-131145795D01*
X156360216Y-131145795D02*
X156131645Y-131145795D01*
X156131645Y-131145795D02*
X156055454Y-131107700D01*
X156055454Y-131107700D02*
X156017359Y-131069604D01*
X120770667Y-59214104D02*
X120732571Y-59252200D01*
X120732571Y-59252200D02*
X120618286Y-59290295D01*
X120618286Y-59290295D02*
X120542095Y-59290295D01*
X120542095Y-59290295D02*
X120427809Y-59252200D01*
X120427809Y-59252200D02*
X120351619Y-59176009D01*
X120351619Y-59176009D02*
X120313524Y-59099819D01*
X120313524Y-59099819D02*
X120275428Y-58947438D01*
X120275428Y-58947438D02*
X120275428Y-58833152D01*
X120275428Y-58833152D02*
X120313524Y-58680771D01*
X120313524Y-58680771D02*
X120351619Y-58604580D01*
X120351619Y-58604580D02*
X120427809Y-58528390D01*
X120427809Y-58528390D02*
X120542095Y-58490295D01*
X120542095Y-58490295D02*
X120618286Y-58490295D01*
X120618286Y-58490295D02*
X120732571Y-58528390D01*
X120732571Y-58528390D02*
X120770667Y-58566485D01*
X121456381Y-58490295D02*
X121304000Y-58490295D01*
X121304000Y-58490295D02*
X121227809Y-58528390D01*
X121227809Y-58528390D02*
X121189714Y-58566485D01*
X121189714Y-58566485D02*
X121113524Y-58680771D01*
X121113524Y-58680771D02*
X121075428Y-58833152D01*
X121075428Y-58833152D02*
X121075428Y-59137914D01*
X121075428Y-59137914D02*
X121113524Y-59214104D01*
X121113524Y-59214104D02*
X121151619Y-59252200D01*
X121151619Y-59252200D02*
X121227809Y-59290295D01*
X121227809Y-59290295D02*
X121380190Y-59290295D01*
X121380190Y-59290295D02*
X121456381Y-59252200D01*
X121456381Y-59252200D02*
X121494476Y-59214104D01*
X121494476Y-59214104D02*
X121532571Y-59137914D01*
X121532571Y-59137914D02*
X121532571Y-58947438D01*
X121532571Y-58947438D02*
X121494476Y-58871247D01*
X121494476Y-58871247D02*
X121456381Y-58833152D01*
X121456381Y-58833152D02*
X121380190Y-58795057D01*
X121380190Y-58795057D02*
X121227809Y-58795057D01*
X121227809Y-58795057D02*
X121151619Y-58833152D01*
X121151619Y-58833152D02*
X121113524Y-58871247D01*
X121113524Y-58871247D02*
X121075428Y-58947438D01*
X195700667Y-80296104D02*
X195662571Y-80334200D01*
X195662571Y-80334200D02*
X195548286Y-80372295D01*
X195548286Y-80372295D02*
X195472095Y-80372295D01*
X195472095Y-80372295D02*
X195357809Y-80334200D01*
X195357809Y-80334200D02*
X195281619Y-80258009D01*
X195281619Y-80258009D02*
X195243524Y-80181819D01*
X195243524Y-80181819D02*
X195205428Y-80029438D01*
X195205428Y-80029438D02*
X195205428Y-79915152D01*
X195205428Y-79915152D02*
X195243524Y-79762771D01*
X195243524Y-79762771D02*
X195281619Y-79686580D01*
X195281619Y-79686580D02*
X195357809Y-79610390D01*
X195357809Y-79610390D02*
X195472095Y-79572295D01*
X195472095Y-79572295D02*
X195548286Y-79572295D01*
X195548286Y-79572295D02*
X195662571Y-79610390D01*
X195662571Y-79610390D02*
X195700667Y-79648485D01*
X196005428Y-79648485D02*
X196043524Y-79610390D01*
X196043524Y-79610390D02*
X196119714Y-79572295D01*
X196119714Y-79572295D02*
X196310190Y-79572295D01*
X196310190Y-79572295D02*
X196386381Y-79610390D01*
X196386381Y-79610390D02*
X196424476Y-79648485D01*
X196424476Y-79648485D02*
X196462571Y-79724676D01*
X196462571Y-79724676D02*
X196462571Y-79800866D01*
X196462571Y-79800866D02*
X196424476Y-79915152D01*
X196424476Y-79915152D02*
X195967333Y-80372295D01*
X195967333Y-80372295D02*
X196462571Y-80372295D01*
X114541333Y-38678295D02*
X114541333Y-39249723D01*
X114541333Y-39249723D02*
X114503238Y-39364009D01*
X114503238Y-39364009D02*
X114427047Y-39440200D01*
X114427047Y-39440200D02*
X114312762Y-39478295D01*
X114312762Y-39478295D02*
X114236571Y-39478295D01*
X115265143Y-38944961D02*
X115265143Y-39478295D01*
X115074667Y-38640200D02*
X114884190Y-39211628D01*
X114884190Y-39211628D02*
X115379429Y-39211628D01*
X109169212Y-49621533D02*
X109778736Y-49621533D01*
X109473974Y-49926295D02*
X109473974Y-49316771D01*
X120169212Y-49621533D02*
X120778736Y-49621533D01*
X129517307Y-38678295D02*
X129517307Y-39249723D01*
X129517307Y-39249723D02*
X129479212Y-39364009D01*
X129479212Y-39364009D02*
X129403021Y-39440200D01*
X129403021Y-39440200D02*
X129288736Y-39478295D01*
X129288736Y-39478295D02*
X129212545Y-39478295D01*
X130241117Y-38678295D02*
X130088736Y-38678295D01*
X130088736Y-38678295D02*
X130012545Y-38716390D01*
X130012545Y-38716390D02*
X129974450Y-38754485D01*
X129974450Y-38754485D02*
X129898260Y-38868771D01*
X129898260Y-38868771D02*
X129860164Y-39021152D01*
X129860164Y-39021152D02*
X129860164Y-39325914D01*
X129860164Y-39325914D02*
X129898260Y-39402104D01*
X129898260Y-39402104D02*
X129936355Y-39440200D01*
X129936355Y-39440200D02*
X130012545Y-39478295D01*
X130012545Y-39478295D02*
X130164926Y-39478295D01*
X130164926Y-39478295D02*
X130241117Y-39440200D01*
X130241117Y-39440200D02*
X130279212Y-39402104D01*
X130279212Y-39402104D02*
X130317307Y-39325914D01*
X130317307Y-39325914D02*
X130317307Y-39135438D01*
X130317307Y-39135438D02*
X130279212Y-39059247D01*
X130279212Y-39059247D02*
X130241117Y-39021152D01*
X130241117Y-39021152D02*
X130164926Y-38983057D01*
X130164926Y-38983057D02*
X130012545Y-38983057D01*
X130012545Y-38983057D02*
X129936355Y-39021152D01*
X129936355Y-39021152D02*
X129898260Y-39059247D01*
X129898260Y-39059247D02*
X129860164Y-39135438D01*
X123979212Y-49614533D02*
X124588736Y-49614533D01*
X124283974Y-49919295D02*
X124283974Y-49309771D01*
X134979212Y-49614533D02*
X135588736Y-49614533D01*
X156754693Y-125363453D02*
X156716597Y-125401549D01*
X156716597Y-125401549D02*
X156602312Y-125439644D01*
X156602312Y-125439644D02*
X156526121Y-125439644D01*
X156526121Y-125439644D02*
X156411835Y-125401549D01*
X156411835Y-125401549D02*
X156335645Y-125325358D01*
X156335645Y-125325358D02*
X156297550Y-125249168D01*
X156297550Y-125249168D02*
X156259454Y-125096787D01*
X156259454Y-125096787D02*
X156259454Y-124982501D01*
X156259454Y-124982501D02*
X156297550Y-124830120D01*
X156297550Y-124830120D02*
X156335645Y-124753929D01*
X156335645Y-124753929D02*
X156411835Y-124677739D01*
X156411835Y-124677739D02*
X156526121Y-124639644D01*
X156526121Y-124639644D02*
X156602312Y-124639644D01*
X156602312Y-124639644D02*
X156716597Y-124677739D01*
X156716597Y-124677739D02*
X156754693Y-124715834D01*
X157211835Y-124982501D02*
X157135645Y-124944406D01*
X157135645Y-124944406D02*
X157097550Y-124906310D01*
X157097550Y-124906310D02*
X157059454Y-124830120D01*
X157059454Y-124830120D02*
X157059454Y-124792025D01*
X157059454Y-124792025D02*
X157097550Y-124715834D01*
X157097550Y-124715834D02*
X157135645Y-124677739D01*
X157135645Y-124677739D02*
X157211835Y-124639644D01*
X157211835Y-124639644D02*
X157364216Y-124639644D01*
X157364216Y-124639644D02*
X157440407Y-124677739D01*
X157440407Y-124677739D02*
X157478502Y-124715834D01*
X157478502Y-124715834D02*
X157516597Y-124792025D01*
X157516597Y-124792025D02*
X157516597Y-124830120D01*
X157516597Y-124830120D02*
X157478502Y-124906310D01*
X157478502Y-124906310D02*
X157440407Y-124944406D01*
X157440407Y-124944406D02*
X157364216Y-124982501D01*
X157364216Y-124982501D02*
X157211835Y-124982501D01*
X157211835Y-124982501D02*
X157135645Y-125020596D01*
X157135645Y-125020596D02*
X157097550Y-125058691D01*
X157097550Y-125058691D02*
X157059454Y-125134882D01*
X157059454Y-125134882D02*
X157059454Y-125287263D01*
X157059454Y-125287263D02*
X157097550Y-125363453D01*
X157097550Y-125363453D02*
X157135645Y-125401549D01*
X157135645Y-125401549D02*
X157211835Y-125439644D01*
X157211835Y-125439644D02*
X157364216Y-125439644D01*
X157364216Y-125439644D02*
X157440407Y-125401549D01*
X157440407Y-125401549D02*
X157478502Y-125363453D01*
X157478502Y-125363453D02*
X157516597Y-125287263D01*
X157516597Y-125287263D02*
X157516597Y-125134882D01*
X157516597Y-125134882D02*
X157478502Y-125058691D01*
X157478502Y-125058691D02*
X157440407Y-125020596D01*
X157440407Y-125020596D02*
X157364216Y-124982501D01*
X188963333Y-52394295D02*
X188963333Y-52965723D01*
X188963333Y-52965723D02*
X188925238Y-53080009D01*
X188925238Y-53080009D02*
X188849047Y-53156200D01*
X188849047Y-53156200D02*
X188734762Y-53194295D01*
X188734762Y-53194295D02*
X188658571Y-53194295D01*
X189763333Y-53194295D02*
X189306190Y-53194295D01*
X189534762Y-53194295D02*
X189534762Y-52394295D01*
X189534762Y-52394295D02*
X189458571Y-52508580D01*
X189458571Y-52508580D02*
X189382381Y-52584771D01*
X189382381Y-52584771D02*
X189306190Y-52622866D01*
X179131533Y-47752761D02*
X179131533Y-47143238D01*
X179131533Y-60052761D02*
X179131533Y-59443238D01*
X179436295Y-59747999D02*
X178826771Y-59747999D01*
X170611809Y-61906485D02*
X170535619Y-61868390D01*
X170535619Y-61868390D02*
X170459428Y-61792200D01*
X170459428Y-61792200D02*
X170345142Y-61677914D01*
X170345142Y-61677914D02*
X170268952Y-61639819D01*
X170268952Y-61639819D02*
X170192761Y-61639819D01*
X170230857Y-61830295D02*
X170154666Y-61792200D01*
X170154666Y-61792200D02*
X170078476Y-61716009D01*
X170078476Y-61716009D02*
X170040380Y-61563628D01*
X170040380Y-61563628D02*
X170040380Y-61296961D01*
X170040380Y-61296961D02*
X170078476Y-61144580D01*
X170078476Y-61144580D02*
X170154666Y-61068390D01*
X170154666Y-61068390D02*
X170230857Y-61030295D01*
X170230857Y-61030295D02*
X170383238Y-61030295D01*
X170383238Y-61030295D02*
X170459428Y-61068390D01*
X170459428Y-61068390D02*
X170535619Y-61144580D01*
X170535619Y-61144580D02*
X170573714Y-61296961D01*
X170573714Y-61296961D02*
X170573714Y-61563628D01*
X170573714Y-61563628D02*
X170535619Y-61716009D01*
X170535619Y-61716009D02*
X170459428Y-61792200D01*
X170459428Y-61792200D02*
X170383238Y-61830295D01*
X170383238Y-61830295D02*
X170230857Y-61830295D01*
X171335618Y-61830295D02*
X170878475Y-61830295D01*
X171107047Y-61830295D02*
X171107047Y-61030295D01*
X171107047Y-61030295D02*
X171030856Y-61144580D01*
X171030856Y-61144580D02*
X170954666Y-61220771D01*
X170954666Y-61220771D02*
X170878475Y-61258866D01*
%TO.C,C4*%
D14*
X156824026Y-120064752D02*
X156824026Y-118642248D01*
X158644026Y-120064752D02*
X158644026Y-118642248D01*
%TO.C,R8*%
X185701000Y-72413936D02*
X185701000Y-72868064D01*
X187171000Y-72413936D02*
X187171000Y-72868064D01*
%TO.C,R6*%
X179605000Y-72370436D02*
X179605000Y-72824564D01*
X181075000Y-72370436D02*
X181075000Y-72824564D01*
%TO.C,J20*%
X140469600Y-95942000D02*
X140469600Y-96992000D01*
X140469600Y-96992000D02*
X139479600Y-96992000D01*
X140469600Y-101162000D02*
X140469600Y-100112000D01*
X141619600Y-95942000D02*
X140469600Y-95942000D01*
X141619600Y-101162000D02*
X140469600Y-101162000D01*
X143589600Y-97112000D02*
X143589600Y-99992000D01*
%TO.C,D1*%
X169836000Y-48072000D02*
X169836000Y-49972000D01*
X169836000Y-48072000D02*
X173496000Y-48072000D01*
X169836000Y-49972000D02*
X173496000Y-49972000D01*
%TO.C,J11*%
X100365974Y-44334000D02*
X107105974Y-44334000D01*
X100365974Y-45674000D02*
X100365974Y-44334000D01*
X100365974Y-57774000D02*
X100365974Y-46274000D01*
X101285974Y-44334000D02*
X101285974Y-57774000D01*
X102285974Y-44334000D02*
X102285974Y-57774000D01*
X105385974Y-44334000D02*
X105385974Y-57774000D01*
X107105974Y-44334000D02*
X107105974Y-57774000D01*
X107105974Y-57774000D02*
X100365974Y-57774000D01*
X100365974Y-45974000D02*
X99755974Y-46414000D01*
X99755974Y-45534000D01*
X100365974Y-45974000D01*
G36*
X100365974Y-45974000D02*
G01*
X99755974Y-46414000D01*
X99755974Y-45534000D01*
X100365974Y-45974000D01*
G37*
%TO.C,J5*%
X165526000Y-38514000D02*
X166226000Y-38514000D01*
X165526000Y-40734000D02*
X177046000Y-40734000D01*
X166226000Y-36464000D02*
X166226000Y-38514000D01*
X166226000Y-36464000D02*
X166756000Y-36464000D01*
X166756000Y-30464000D02*
X166756000Y-36464000D01*
X166756000Y-30464000D02*
X175786000Y-30464000D01*
X175816000Y-30464000D02*
X175816000Y-36464000D01*
X175816000Y-36464000D02*
X176346000Y-36464000D01*
X176346000Y-36464000D02*
X176346000Y-38514000D01*
X176346000Y-38514000D02*
X177046000Y-38514000D01*
X165464271Y-40720635D02*
G75*
G02*
X165636000Y-38514000I171730J1096635D01*
G01*
X176936000Y-38514000D02*
G75*
G02*
X176936000Y-40734000I0J-1110000D01*
G01*
%TO.C,A1*%
X160624026Y-87852000D02*
X160624026Y-87432000D01*
X160624026Y-90392000D02*
X160624026Y-89972000D01*
X160624026Y-92932000D02*
X160624026Y-92512000D01*
X160624026Y-95472000D02*
X160624026Y-95052000D01*
X160624026Y-98012000D02*
X160624026Y-97592000D01*
X160624026Y-100552000D02*
X160624026Y-100132000D01*
X160624026Y-103092000D02*
X160624026Y-102672000D01*
X160624026Y-105632000D02*
X160624026Y-105212000D01*
X160624026Y-108172000D02*
X160624026Y-107752000D01*
X160624026Y-110712000D02*
X160624026Y-110292000D01*
X160624026Y-113252000D02*
X160624026Y-112832000D01*
X160624026Y-115792000D02*
X160624026Y-115372000D01*
X160624026Y-118332000D02*
X160624026Y-117912000D01*
X160624026Y-120872000D02*
X160624026Y-120452000D01*
X160624026Y-123412000D02*
X160624026Y-122992000D01*
X160624026Y-125952000D02*
X160624026Y-125532000D01*
X160624026Y-128492000D02*
X160624026Y-128072000D01*
X160624026Y-131032000D02*
X160624026Y-130612000D01*
X160624026Y-133572000D02*
X160624026Y-133152000D01*
X161234026Y-136112000D02*
X163724026Y-136112000D01*
X165071965Y-84892000D02*
X161234026Y-84892000D01*
X165071965Y-136112000D02*
X163724026Y-136112000D01*
X165996087Y-84892000D02*
X167634026Y-84892000D01*
X166999026Y-136112000D02*
X165996087Y-136112000D01*
X167334026Y-132808000D02*
X167334026Y-131592000D01*
X167334026Y-136112000D02*
X167334026Y-135196000D01*
X167630116Y-131592000D02*
X167334026Y-131592000D01*
X170174026Y-84892000D02*
X169754026Y-84892000D01*
X172480116Y-131592000D02*
X169987936Y-131592000D01*
X172714026Y-84892000D02*
X172294026Y-84892000D01*
X174834026Y-84892000D02*
X176471965Y-84892000D01*
X175134026Y-131592000D02*
X174837936Y-131592000D01*
X175134026Y-132808000D02*
X175134026Y-131592000D01*
X175134026Y-136112000D02*
X175134026Y-135196000D01*
X175469026Y-136112000D02*
X166999026Y-136112000D01*
X176471965Y-136112000D02*
X175469026Y-136112000D01*
X178744026Y-136112000D02*
X177396086Y-136112000D01*
X181234026Y-84892000D02*
X177396087Y-84892000D01*
X181234026Y-136112000D02*
X178744026Y-136112000D01*
X181813702Y-135692000D02*
X182324026Y-135692000D01*
X181844026Y-87852000D02*
X181844026Y-87432000D01*
X181844026Y-90392000D02*
X181844026Y-89972000D01*
X181844026Y-92932000D02*
X181844026Y-92512000D01*
X181844026Y-95472000D02*
X181844026Y-95052000D01*
X181844026Y-98012000D02*
X181844026Y-97592000D01*
X181844026Y-100552000D02*
X181844026Y-100132000D01*
X181844026Y-103092000D02*
X181844026Y-102672000D01*
X181844026Y-105632000D02*
X181844026Y-105212000D01*
X181844026Y-108172000D02*
X181844026Y-107752000D01*
X181844026Y-110712000D02*
X181844026Y-110292000D01*
X181844026Y-113252000D02*
X181844026Y-112832000D01*
X181844026Y-115792000D02*
X181844026Y-115372000D01*
X181844026Y-118332000D02*
X181844026Y-117912000D01*
X181844026Y-120872000D02*
X181844026Y-120452000D01*
X181844026Y-123412000D02*
X181844026Y-122992000D01*
X181844026Y-125952000D02*
X181844026Y-125532000D01*
X181844026Y-128492000D02*
X181844026Y-128072000D01*
X181844026Y-131032000D02*
X181844026Y-130612000D01*
X181844026Y-133572000D02*
X181844026Y-133152000D01*
X181844026Y-133572000D02*
X182324026Y-133572000D01*
X160654350Y-85312063D02*
G75*
G02*
X161234026Y-84892052I579476J-189737D01*
G01*
X161234026Y-136112000D02*
G75*
G02*
X160654350Y-135691937I0J610000D01*
G01*
X181234026Y-84892000D02*
G75*
G02*
X181813702Y-85312063I-1J-610002D01*
G01*
X181813702Y-135692000D02*
G75*
G02*
X181234026Y-136112000I-579692J190051D01*
G01*
%TO.C,D2*%
X136703974Y-52824000D02*
X125393974Y-52824000D01*
X136703974Y-52824000D02*
X136703974Y-59324000D01*
X136703974Y-59324000D02*
X125393974Y-59324000D01*
%TO.C,J17*%
X147530800Y-81972000D02*
X147530800Y-83022000D01*
X147530800Y-83022000D02*
X146540800Y-83022000D01*
X147530800Y-87192000D02*
X147530800Y-86142000D01*
X148680800Y-81972000D02*
X147530800Y-81972000D01*
X148680800Y-87192000D02*
X147530800Y-87192000D01*
X150650800Y-83142000D02*
X150650800Y-86022000D01*
%TO.C,C9*%
X156824026Y-112584748D02*
X156824026Y-114007252D01*
X158644026Y-112584748D02*
X158644026Y-114007252D01*
%TO.C,C1*%
X157272000Y-54830000D02*
X157272000Y-53882000D01*
X157312000Y-55205000D02*
X157312000Y-53507000D01*
X157352000Y-55462000D02*
X157352000Y-53250000D01*
X157392000Y-55670000D02*
X157392000Y-53042000D01*
X157432000Y-55849000D02*
X157432000Y-52863000D01*
X157472000Y-56008000D02*
X157472000Y-52704000D01*
X157512000Y-56153000D02*
X157512000Y-52559000D01*
X157552000Y-56286000D02*
X157552000Y-52426000D01*
X157592000Y-56410000D02*
X157592000Y-52302000D01*
X157632000Y-56527000D02*
X157632000Y-52185000D01*
X157672000Y-56636000D02*
X157672000Y-52076000D01*
X157712000Y-56741000D02*
X157712000Y-51971000D01*
X157752000Y-56840000D02*
X157752000Y-51872000D01*
X157792000Y-56935000D02*
X157792000Y-51777000D01*
X157832000Y-57026000D02*
X157832000Y-51686000D01*
X157872000Y-57113000D02*
X157872000Y-51599000D01*
X157912000Y-57197000D02*
X157912000Y-51515000D01*
X157952000Y-57279000D02*
X157952000Y-51433000D01*
X157992000Y-57357000D02*
X157992000Y-51355000D01*
X158032000Y-57433000D02*
X158032000Y-51279000D01*
X158072000Y-57507000D02*
X158072000Y-51205000D01*
X158112000Y-57579000D02*
X158112000Y-51133000D01*
X158152000Y-57649000D02*
X158152000Y-51063000D01*
X158192000Y-57716000D02*
X158192000Y-50996000D01*
X158232000Y-57782000D02*
X158232000Y-50930000D01*
X158272000Y-57846000D02*
X158272000Y-50866000D01*
X158312000Y-57909000D02*
X158312000Y-50803000D01*
X158352000Y-57970000D02*
X158352000Y-50742000D01*
X158392000Y-58030000D02*
X158392000Y-50682000D01*
X158432000Y-58088000D02*
X158432000Y-50624000D01*
X158472000Y-58145000D02*
X158472000Y-50567000D01*
X158512000Y-58201000D02*
X158512000Y-50511000D01*
X158552000Y-58256000D02*
X158552000Y-50456000D01*
X158592000Y-58309000D02*
X158592000Y-50403000D01*
X158632000Y-58362000D02*
X158632000Y-50350000D01*
X158672000Y-58413000D02*
X158672000Y-50299000D01*
X158712000Y-58463000D02*
X158712000Y-50249000D01*
X158752000Y-58512000D02*
X158752000Y-50200000D01*
X158792000Y-58561000D02*
X158792000Y-50151000D01*
X158832000Y-58608000D02*
X158832000Y-50104000D01*
X158872000Y-58655000D02*
X158872000Y-50057000D01*
X158912000Y-58700000D02*
X158912000Y-50012000D01*
X158952000Y-58745000D02*
X158952000Y-49967000D01*
X158992000Y-58789000D02*
X158992000Y-49923000D01*
X159032000Y-58833000D02*
X159032000Y-49879000D01*
X159072000Y-58875000D02*
X159072000Y-49837000D01*
X159112000Y-58917000D02*
X159112000Y-49795000D01*
X159152000Y-58958000D02*
X159152000Y-49754000D01*
X159192000Y-58998000D02*
X159192000Y-49714000D01*
X159232000Y-59038000D02*
X159232000Y-49674000D01*
X159272000Y-59077000D02*
X159272000Y-49635000D01*
X159312000Y-59115000D02*
X159312000Y-49597000D01*
X159352000Y-59153000D02*
X159352000Y-49559000D01*
X159392000Y-59190000D02*
X159392000Y-49522000D01*
X159432000Y-59226000D02*
X159432000Y-49486000D01*
X159472000Y-59262000D02*
X159472000Y-49450000D01*
X159512000Y-59297000D02*
X159512000Y-49415000D01*
X159552000Y-59332000D02*
X159552000Y-49380000D01*
X159592000Y-59366000D02*
X159592000Y-49346000D01*
X159632000Y-59400000D02*
X159632000Y-49312000D01*
X159672000Y-59433000D02*
X159672000Y-49279000D01*
X159712000Y-59466000D02*
X159712000Y-49246000D01*
X159752000Y-59498000D02*
X159752000Y-49214000D01*
X159792000Y-59529000D02*
X159792000Y-49183000D01*
X159832000Y-59560000D02*
X159832000Y-49152000D01*
X159872000Y-59591000D02*
X159872000Y-49121000D01*
X159912000Y-59621000D02*
X159912000Y-49091000D01*
X159952000Y-52916000D02*
X159952000Y-49061000D01*
X159952000Y-59651000D02*
X159952000Y-55796000D01*
X159992000Y-52916000D02*
X159992000Y-49032000D01*
X159992000Y-59680000D02*
X159992000Y-55796000D01*
X160032000Y-52916000D02*
X160032000Y-49004000D01*
X160032000Y-59708000D02*
X160032000Y-55796000D01*
X160072000Y-52916000D02*
X160072000Y-48975000D01*
X160072000Y-59737000D02*
X160072000Y-55796000D01*
X160112000Y-52916000D02*
X160112000Y-48947000D01*
X160112000Y-59765000D02*
X160112000Y-55796000D01*
X160152000Y-52916000D02*
X160152000Y-48920000D01*
X160152000Y-59792000D02*
X160152000Y-55796000D01*
X160192000Y-52916000D02*
X160192000Y-48893000D01*
X160192000Y-59819000D02*
X160192000Y-55796000D01*
X160232000Y-52916000D02*
X160232000Y-48867000D01*
X160232000Y-59845000D02*
X160232000Y-55796000D01*
X160272000Y-52916000D02*
X160272000Y-48840000D01*
X160272000Y-59872000D02*
X160272000Y-55796000D01*
X160312000Y-52916000D02*
X160312000Y-48815000D01*
X160312000Y-59897000D02*
X160312000Y-55796000D01*
X160352000Y-52916000D02*
X160352000Y-48789000D01*
X160352000Y-59923000D02*
X160352000Y-55796000D01*
X160392000Y-52916000D02*
X160392000Y-48764000D01*
X160392000Y-59948000D02*
X160392000Y-55796000D01*
X160432000Y-52916000D02*
X160432000Y-48740000D01*
X160432000Y-59972000D02*
X160432000Y-55796000D01*
X160472000Y-52916000D02*
X160472000Y-48716000D01*
X160472000Y-59996000D02*
X160472000Y-55796000D01*
X160512000Y-52916000D02*
X160512000Y-48692000D01*
X160512000Y-60020000D02*
X160512000Y-55796000D01*
X160552000Y-52916000D02*
X160552000Y-48669000D01*
X160552000Y-60043000D02*
X160552000Y-55796000D01*
X160592000Y-52916000D02*
X160592000Y-48646000D01*
X160592000Y-60066000D02*
X160592000Y-55796000D01*
X160632000Y-52916000D02*
X160632000Y-48623000D01*
X160632000Y-60089000D02*
X160632000Y-55796000D01*
X160672000Y-52916000D02*
X160672000Y-48601000D01*
X160672000Y-60111000D02*
X160672000Y-55796000D01*
X160712000Y-52916000D02*
X160712000Y-48579000D01*
X160712000Y-60133000D02*
X160712000Y-55796000D01*
X160752000Y-52916000D02*
X160752000Y-48557000D01*
X160752000Y-60155000D02*
X160752000Y-55796000D01*
X160792000Y-52916000D02*
X160792000Y-48536000D01*
X160792000Y-60176000D02*
X160792000Y-55796000D01*
X160832000Y-52916000D02*
X160832000Y-48515000D01*
X160832000Y-60197000D02*
X160832000Y-55796000D01*
X160872000Y-52916000D02*
X160872000Y-48495000D01*
X160872000Y-60217000D02*
X160872000Y-55796000D01*
X160912000Y-52916000D02*
X160912000Y-48475000D01*
X160912000Y-60237000D02*
X160912000Y-55796000D01*
X160952000Y-52916000D02*
X160952000Y-48455000D01*
X160952000Y-60257000D02*
X160952000Y-55796000D01*
X160992000Y-52916000D02*
X160992000Y-48435000D01*
X160992000Y-60277000D02*
X160992000Y-55796000D01*
X161032000Y-52916000D02*
X161032000Y-48416000D01*
X161032000Y-60296000D02*
X161032000Y-55796000D01*
X161072000Y-52916000D02*
X161072000Y-48397000D01*
X161072000Y-60315000D02*
X161072000Y-55796000D01*
X161112000Y-52916000D02*
X161112000Y-48379000D01*
X161112000Y-60333000D02*
X161112000Y-55796000D01*
X161152000Y-52916000D02*
X161152000Y-48361000D01*
X161152000Y-60351000D02*
X161152000Y-55796000D01*
X161192000Y-52916000D02*
X161192000Y-48343000D01*
X161192000Y-60369000D02*
X161192000Y-55796000D01*
X161232000Y-52916000D02*
X161232000Y-48325000D01*
X161232000Y-60387000D02*
X161232000Y-55796000D01*
X161272000Y-52916000D02*
X161272000Y-48308000D01*
X161272000Y-60404000D02*
X161272000Y-55796000D01*
X161312000Y-52916000D02*
X161312000Y-48291000D01*
X161312000Y-60421000D02*
X161312000Y-55796000D01*
X161352000Y-52916000D02*
X161352000Y-48274000D01*
X161352000Y-60438000D02*
X161352000Y-55796000D01*
X161392000Y-52916000D02*
X161392000Y-48258000D01*
X161392000Y-60454000D02*
X161392000Y-55796000D01*
X161432000Y-52916000D02*
X161432000Y-48242000D01*
X161432000Y-60470000D02*
X161432000Y-55796000D01*
X161472000Y-52916000D02*
X161472000Y-48226000D01*
X161472000Y-60486000D02*
X161472000Y-55796000D01*
X161512000Y-52916000D02*
X161512000Y-48211000D01*
X161512000Y-60501000D02*
X161512000Y-55796000D01*
X161552000Y-52916000D02*
X161552000Y-48196000D01*
X161552000Y-60516000D02*
X161552000Y-55796000D01*
X161592000Y-52916000D02*
X161592000Y-48181000D01*
X161592000Y-60531000D02*
X161592000Y-55796000D01*
X161632000Y-52916000D02*
X161632000Y-48166000D01*
X161632000Y-60546000D02*
X161632000Y-55796000D01*
X161672000Y-52916000D02*
X161672000Y-48152000D01*
X161672000Y-60560000D02*
X161672000Y-55796000D01*
X161712000Y-52916000D02*
X161712000Y-48138000D01*
X161712000Y-60574000D02*
X161712000Y-55796000D01*
X161752000Y-52916000D02*
X161752000Y-48125000D01*
X161752000Y-60587000D02*
X161752000Y-55796000D01*
X161792000Y-52916000D02*
X161792000Y-48111000D01*
X161792000Y-60601000D02*
X161792000Y-55796000D01*
X161832000Y-52916000D02*
X161832000Y-48098000D01*
X161832000Y-60614000D02*
X161832000Y-55796000D01*
X161872000Y-52916000D02*
X161872000Y-48085000D01*
X161872000Y-60627000D02*
X161872000Y-55796000D01*
X161912000Y-52916000D02*
X161912000Y-48073000D01*
X161912000Y-60639000D02*
X161912000Y-55796000D01*
X161952000Y-52916000D02*
X161952000Y-48061000D01*
X161952000Y-60651000D02*
X161952000Y-55796000D01*
X161992000Y-52916000D02*
X161992000Y-48049000D01*
X161992000Y-60663000D02*
X161992000Y-55796000D01*
X162032000Y-52916000D02*
X162032000Y-48037000D01*
X162032000Y-60675000D02*
X162032000Y-55796000D01*
X162072000Y-52916000D02*
X162072000Y-48025000D01*
X162072000Y-60687000D02*
X162072000Y-55796000D01*
X162112000Y-52916000D02*
X162112000Y-48014000D01*
X162112000Y-60698000D02*
X162112000Y-55796000D01*
X162152000Y-52916000D02*
X162152000Y-48003000D01*
X162152000Y-60709000D02*
X162152000Y-55796000D01*
X162192000Y-52916000D02*
X162192000Y-47993000D01*
X162192000Y-60719000D02*
X162192000Y-55796000D01*
X162232000Y-52916000D02*
X162232000Y-47982000D01*
X162232000Y-60730000D02*
X162232000Y-55796000D01*
X162272000Y-52916000D02*
X162272000Y-47972000D01*
X162272000Y-60740000D02*
X162272000Y-55796000D01*
X162312000Y-52916000D02*
X162312000Y-47962000D01*
X162312000Y-60750000D02*
X162312000Y-55796000D01*
X162352000Y-52916000D02*
X162352000Y-47953000D01*
X162352000Y-60759000D02*
X162352000Y-55796000D01*
X162392000Y-52916000D02*
X162392000Y-47944000D01*
X162392000Y-60768000D02*
X162392000Y-55796000D01*
X162432000Y-52916000D02*
X162432000Y-47935000D01*
X162432000Y-60777000D02*
X162432000Y-55796000D01*
X162472000Y-52916000D02*
X162472000Y-47926000D01*
X162472000Y-60786000D02*
X162472000Y-55796000D01*
X162512000Y-52916000D02*
X162512000Y-47917000D01*
X162512000Y-60795000D02*
X162512000Y-55796000D01*
X162552000Y-52916000D02*
X162552000Y-47909000D01*
X162552000Y-60803000D02*
X162552000Y-55796000D01*
X162592000Y-52916000D02*
X162592000Y-47901000D01*
X162592000Y-60811000D02*
X162592000Y-55796000D01*
X162632000Y-52916000D02*
X162632000Y-47893000D01*
X162632000Y-60819000D02*
X162632000Y-55796000D01*
X162672000Y-52916000D02*
X162672000Y-47886000D01*
X162672000Y-60826000D02*
X162672000Y-55796000D01*
X162712000Y-52916000D02*
X162712000Y-47878000D01*
X162712000Y-60834000D02*
X162712000Y-55796000D01*
X162752000Y-52916000D02*
X162752000Y-47871000D01*
X162752000Y-60841000D02*
X162752000Y-55796000D01*
X162792000Y-52916000D02*
X162792000Y-47865000D01*
X162792000Y-60847000D02*
X162792000Y-55796000D01*
X162832000Y-60854000D02*
X162832000Y-47858000D01*
X162872000Y-60860000D02*
X162872000Y-47852000D01*
X162912000Y-60866000D02*
X162912000Y-47846000D01*
X162952000Y-60872000D02*
X162952000Y-47840000D01*
X162992000Y-60877000D02*
X162992000Y-47835000D01*
X163032000Y-60882000D02*
X163032000Y-47830000D01*
X163072000Y-60887000D02*
X163072000Y-47825000D01*
X163112000Y-60892000D02*
X163112000Y-47820000D01*
X163152000Y-60897000D02*
X163152000Y-47815000D01*
X163192000Y-60901000D02*
X163192000Y-47811000D01*
X163232000Y-60905000D02*
X163232000Y-47807000D01*
X163272000Y-60909000D02*
X163272000Y-47803000D01*
X163312000Y-60912000D02*
X163312000Y-47800000D01*
X163352000Y-60916000D02*
X163352000Y-47796000D01*
X163392000Y-60919000D02*
X163392000Y-47793000D01*
X163432000Y-60921000D02*
X163432000Y-47791000D01*
X163472000Y-60924000D02*
X163472000Y-47788000D01*
X163512000Y-60926000D02*
X163512000Y-47786000D01*
X163552000Y-60928000D02*
X163552000Y-47784000D01*
X163592000Y-60930000D02*
X163592000Y-47782000D01*
X163632000Y-60932000D02*
X163632000Y-47780000D01*
X163672000Y-60933000D02*
X163672000Y-47779000D01*
X163712000Y-60934000D02*
X163712000Y-47778000D01*
X163752000Y-60935000D02*
X163752000Y-47777000D01*
X163792000Y-60936000D02*
X163792000Y-47776000D01*
X163832000Y-60936000D02*
X163832000Y-47776000D01*
X163872000Y-60936000D02*
X163872000Y-47776000D01*
X170306569Y-58721000D02*
X170306569Y-57421000D01*
X170956569Y-58071000D02*
X169656569Y-58071000D01*
X170492000Y-54356000D02*
G75*
G02*
X157252000Y-54356000I-6620000J0D01*
G01*
X157252000Y-54356000D02*
G75*
G02*
X170492000Y-54356000I6620000J0D01*
G01*
%TO.C,J10*%
X139589974Y-56208000D02*
X139589974Y-54828000D01*
X140969974Y-56208000D02*
X139589974Y-56208000D01*
X142239974Y-53448000D02*
X147429974Y-53448000D01*
X142239974Y-56208000D02*
X142239974Y-53448000D01*
X142239974Y-56208000D02*
X147429974Y-56208000D01*
X147429974Y-56208000D02*
X147429974Y-53448000D01*
%TO.C,J3*%
X150794000Y-38514000D02*
X151494000Y-38514000D01*
X150794000Y-40734000D02*
X162314000Y-40734000D01*
X151494000Y-36464000D02*
X151494000Y-38514000D01*
X151494000Y-36464000D02*
X152024000Y-36464000D01*
X152024000Y-30464000D02*
X152024000Y-36464000D01*
X152024000Y-30464000D02*
X161054000Y-30464000D01*
X161084000Y-30464000D02*
X161084000Y-36464000D01*
X161084000Y-36464000D02*
X161614000Y-36464000D01*
X161614000Y-36464000D02*
X161614000Y-38514000D01*
X161614000Y-38514000D02*
X162314000Y-38514000D01*
X150732271Y-40720635D02*
G75*
G02*
X150904000Y-38514000I171730J1096635D01*
G01*
X162204000Y-38514000D02*
G75*
G02*
X162204000Y-40734000I0J-1110000D01*
G01*
%TO.C,D3*%
X143130026Y-121595349D02*
X143130026Y-127105349D01*
X146430026Y-121595349D02*
X143130026Y-121595349D01*
X146430026Y-121595349D02*
X146430026Y-127105349D01*
%TO.C,U1*%
D12*
X125590000Y-75138000D02*
X122590000Y-75138000D01*
X125590000Y-130238000D02*
X122590000Y-130238000D01*
%TO.C,J14*%
D14*
X100365974Y-87158400D02*
X107105974Y-87158400D01*
X100365974Y-88498400D02*
X100365974Y-87158400D01*
X100365974Y-100598400D02*
X100365974Y-89098400D01*
X101285974Y-87158400D02*
X101285974Y-100598400D01*
X102285974Y-87158400D02*
X102285974Y-100598400D01*
X105385974Y-87158400D02*
X105385974Y-100598400D01*
X107105974Y-87158400D02*
X107105974Y-100598400D01*
X107105974Y-100598400D02*
X100365974Y-100598400D01*
X100365974Y-88798400D02*
X99755974Y-89238400D01*
X99755974Y-88358400D01*
X100365974Y-88798400D01*
G36*
X100365974Y-88798400D02*
G01*
X99755974Y-89238400D01*
X99755974Y-88358400D01*
X100365974Y-88798400D01*
G37*
%TO.C,J21*%
X147429200Y-109912000D02*
X147429200Y-110962000D01*
X147429200Y-110962000D02*
X146439200Y-110962000D01*
X147429200Y-115132000D02*
X147429200Y-114082000D01*
X148579200Y-109912000D02*
X147429200Y-109912000D01*
X148579200Y-115132000D02*
X147429200Y-115132000D01*
X150549200Y-111082000D02*
X150549200Y-113962000D01*
%TO.C,R4*%
X177573000Y-72370436D02*
X177573000Y-72824564D01*
X179043000Y-72370436D02*
X179043000Y-72824564D01*
%TO.C,C7*%
X123059677Y-65817000D02*
X123059677Y-64619000D01*
X123099677Y-66080000D02*
X123099677Y-64356000D01*
X123139677Y-66280000D02*
X123139677Y-64156000D01*
X123179677Y-66448000D02*
X123179677Y-63988000D01*
X123219677Y-66595000D02*
X123219677Y-63841000D01*
X123259677Y-66727000D02*
X123259677Y-63709000D01*
X123299677Y-66848000D02*
X123299677Y-63588000D01*
X123339677Y-66960000D02*
X123339677Y-63476000D01*
X123379677Y-67064000D02*
X123379677Y-63372000D01*
X123419677Y-67162000D02*
X123419677Y-63274000D01*
X123459677Y-67255000D02*
X123459677Y-63181000D01*
X123499677Y-67342000D02*
X123499677Y-63094000D01*
X123539677Y-67426000D02*
X123539677Y-63010000D01*
X123579677Y-67506000D02*
X123579677Y-62930000D01*
X123619677Y-67583000D02*
X123619677Y-62853000D01*
X123659677Y-67657000D02*
X123659677Y-62779000D01*
X123699677Y-67728000D02*
X123699677Y-62708000D01*
X123739677Y-67796000D02*
X123739677Y-62640000D01*
X123779677Y-67862000D02*
X123779677Y-62574000D01*
X123819677Y-67926000D02*
X123819677Y-62510000D01*
X123859677Y-67988000D02*
X123859677Y-62448000D01*
X123899677Y-68048000D02*
X123899677Y-62388000D01*
X123939677Y-68106000D02*
X123939677Y-62330000D01*
X123979677Y-68163000D02*
X123979677Y-62273000D01*
X124019677Y-68218000D02*
X124019677Y-62218000D01*
X124059677Y-68271000D02*
X124059677Y-62165000D01*
X124099677Y-68323000D02*
X124099677Y-62113000D01*
X124139677Y-68374000D02*
X124139677Y-62062000D01*
X124179677Y-68423000D02*
X124179677Y-62013000D01*
X124219677Y-68472000D02*
X124219677Y-61964000D01*
X124259677Y-68519000D02*
X124259677Y-61917000D01*
X124299677Y-68565000D02*
X124299677Y-61871000D01*
X124339677Y-68609000D02*
X124339677Y-61827000D01*
X124379677Y-68653000D02*
X124379677Y-61783000D01*
X124419677Y-63978000D02*
X124419677Y-61740000D01*
X124419677Y-68696000D02*
X124419677Y-66458000D01*
X124459677Y-63978000D02*
X124459677Y-61698000D01*
X124459677Y-68738000D02*
X124459677Y-66458000D01*
X124499677Y-63978000D02*
X124499677Y-61657000D01*
X124499677Y-68779000D02*
X124499677Y-66458000D01*
X124539677Y-63978000D02*
X124539677Y-61617000D01*
X124539677Y-68819000D02*
X124539677Y-66458000D01*
X124579677Y-63978000D02*
X124579677Y-61578000D01*
X124579677Y-68858000D02*
X124579677Y-66458000D01*
X124619677Y-63978000D02*
X124619677Y-61540000D01*
X124619677Y-68896000D02*
X124619677Y-66458000D01*
X124659677Y-63978000D02*
X124659677Y-61502000D01*
X124659677Y-68934000D02*
X124659677Y-66458000D01*
X124699677Y-63978000D02*
X124699677Y-61466000D01*
X124699677Y-68970000D02*
X124699677Y-66458000D01*
X124739677Y-63978000D02*
X124739677Y-61430000D01*
X124739677Y-69006000D02*
X124739677Y-66458000D01*
X124779677Y-63978000D02*
X124779677Y-61395000D01*
X124779677Y-69041000D02*
X124779677Y-66458000D01*
X124819677Y-63978000D02*
X124819677Y-61360000D01*
X124819677Y-69076000D02*
X124819677Y-66458000D01*
X124859677Y-63978000D02*
X124859677Y-61327000D01*
X124859677Y-69109000D02*
X124859677Y-66458000D01*
X124899677Y-63978000D02*
X124899677Y-61294000D01*
X124899677Y-69142000D02*
X124899677Y-66458000D01*
X124939677Y-63978000D02*
X124939677Y-61261000D01*
X124939677Y-69175000D02*
X124939677Y-66458000D01*
X124979677Y-63978000D02*
X124979677Y-61230000D01*
X124979677Y-69206000D02*
X124979677Y-66458000D01*
X125019677Y-63978000D02*
X125019677Y-61198000D01*
X125019677Y-69238000D02*
X125019677Y-66458000D01*
X125059677Y-63978000D02*
X125059677Y-61168000D01*
X125059677Y-69268000D02*
X125059677Y-66458000D01*
X125099677Y-63978000D02*
X125099677Y-61138000D01*
X125099677Y-69298000D02*
X125099677Y-66458000D01*
X125139677Y-63978000D02*
X125139677Y-61109000D01*
X125139677Y-69327000D02*
X125139677Y-66458000D01*
X125179677Y-63978000D02*
X125179677Y-61080000D01*
X125179677Y-69356000D02*
X125179677Y-66458000D01*
X125219677Y-63978000D02*
X125219677Y-61052000D01*
X125219677Y-69384000D02*
X125219677Y-66458000D01*
X125259677Y-63978000D02*
X125259677Y-61025000D01*
X125259677Y-69411000D02*
X125259677Y-66458000D01*
X125299677Y-63978000D02*
X125299677Y-60998000D01*
X125299677Y-69438000D02*
X125299677Y-66458000D01*
X125339677Y-63978000D02*
X125339677Y-60971000D01*
X125339677Y-69465000D02*
X125339677Y-66458000D01*
X125379677Y-63978000D02*
X125379677Y-60946000D01*
X125379677Y-69490000D02*
X125379677Y-66458000D01*
X125419677Y-63978000D02*
X125419677Y-60920000D01*
X125419677Y-69516000D02*
X125419677Y-66458000D01*
X125459677Y-63978000D02*
X125459677Y-60895000D01*
X125459677Y-69541000D02*
X125459677Y-66458000D01*
X125499677Y-63978000D02*
X125499677Y-60871000D01*
X125499677Y-69565000D02*
X125499677Y-66458000D01*
X125539677Y-63978000D02*
X125539677Y-60847000D01*
X125539677Y-69589000D02*
X125539677Y-66458000D01*
X125579677Y-63978000D02*
X125579677Y-60824000D01*
X125579677Y-69612000D02*
X125579677Y-66458000D01*
X125619677Y-63978000D02*
X125619677Y-60801000D01*
X125619677Y-69635000D02*
X125619677Y-66458000D01*
X125659677Y-63978000D02*
X125659677Y-60779000D01*
X125659677Y-69657000D02*
X125659677Y-66458000D01*
X125699677Y-63978000D02*
X125699677Y-60757000D01*
X125699677Y-69679000D02*
X125699677Y-66458000D01*
X125739677Y-63978000D02*
X125739677Y-60735000D01*
X125739677Y-69701000D02*
X125739677Y-66458000D01*
X125779677Y-63978000D02*
X125779677Y-60714000D01*
X125779677Y-69722000D02*
X125779677Y-66458000D01*
X125819677Y-63978000D02*
X125819677Y-60694000D01*
X125819677Y-69742000D02*
X125819677Y-66458000D01*
X125859677Y-63978000D02*
X125859677Y-60674000D01*
X125859677Y-69762000D02*
X125859677Y-66458000D01*
X125899677Y-63978000D02*
X125899677Y-60654000D01*
X125899677Y-69782000D02*
X125899677Y-66458000D01*
X125939677Y-63978000D02*
X125939677Y-60635000D01*
X125939677Y-69801000D02*
X125939677Y-66458000D01*
X125979677Y-63978000D02*
X125979677Y-60616000D01*
X125979677Y-69820000D02*
X125979677Y-66458000D01*
X126019677Y-63978000D02*
X126019677Y-60598000D01*
X126019677Y-69838000D02*
X126019677Y-66458000D01*
X126059677Y-63978000D02*
X126059677Y-60580000D01*
X126059677Y-69856000D02*
X126059677Y-66458000D01*
X126099677Y-63978000D02*
X126099677Y-60562000D01*
X126099677Y-69874000D02*
X126099677Y-66458000D01*
X126139677Y-63978000D02*
X126139677Y-60545000D01*
X126139677Y-69891000D02*
X126139677Y-66458000D01*
X126179677Y-63978000D02*
X126179677Y-60528000D01*
X126179677Y-69908000D02*
X126179677Y-66458000D01*
X126219677Y-63978000D02*
X126219677Y-60512000D01*
X126219677Y-69924000D02*
X126219677Y-66458000D01*
X126259677Y-63978000D02*
X126259677Y-60496000D01*
X126259677Y-69940000D02*
X126259677Y-66458000D01*
X126299677Y-63978000D02*
X126299677Y-60480000D01*
X126299677Y-69956000D02*
X126299677Y-66458000D01*
X126339677Y-63978000D02*
X126339677Y-60465000D01*
X126339677Y-69971000D02*
X126339677Y-66458000D01*
X126379677Y-63978000D02*
X126379677Y-60450000D01*
X126379677Y-69986000D02*
X126379677Y-66458000D01*
X126419677Y-63978000D02*
X126419677Y-60436000D01*
X126419677Y-70000000D02*
X126419677Y-66458000D01*
X126459677Y-63978000D02*
X126459677Y-60421000D01*
X126459677Y-70015000D02*
X126459677Y-66458000D01*
X126499677Y-63978000D02*
X126499677Y-60408000D01*
X126499677Y-70028000D02*
X126499677Y-66458000D01*
X126539677Y-63978000D02*
X126539677Y-60394000D01*
X126539677Y-70042000D02*
X126539677Y-66458000D01*
X126579677Y-63978000D02*
X126579677Y-60381000D01*
X126579677Y-70055000D02*
X126579677Y-66458000D01*
X126619677Y-63978000D02*
X126619677Y-60369000D01*
X126619677Y-70067000D02*
X126619677Y-66458000D01*
X126659677Y-63978000D02*
X126659677Y-60357000D01*
X126659677Y-70079000D02*
X126659677Y-66458000D01*
X126699677Y-63978000D02*
X126699677Y-60345000D01*
X126699677Y-70091000D02*
X126699677Y-66458000D01*
X126739677Y-63978000D02*
X126739677Y-60333000D01*
X126739677Y-70103000D02*
X126739677Y-66458000D01*
X126779677Y-63978000D02*
X126779677Y-60322000D01*
X126779677Y-70114000D02*
X126779677Y-66458000D01*
X126819677Y-63978000D02*
X126819677Y-60311000D01*
X126819677Y-70125000D02*
X126819677Y-66458000D01*
X126859677Y-63978000D02*
X126859677Y-60301000D01*
X126859677Y-70135000D02*
X126859677Y-66458000D01*
X126899677Y-70146000D02*
X126899677Y-60290000D01*
X126939677Y-70155000D02*
X126939677Y-60281000D01*
X126979677Y-70165000D02*
X126979677Y-60271000D01*
X127019677Y-70174000D02*
X127019677Y-60262000D01*
X127059677Y-70183000D02*
X127059677Y-60253000D01*
X127099677Y-70191000D02*
X127099677Y-60245000D01*
X127139677Y-70199000D02*
X127139677Y-60237000D01*
X127179677Y-70207000D02*
X127179677Y-60229000D01*
X127219677Y-70215000D02*
X127219677Y-60221000D01*
X127259677Y-70222000D02*
X127259677Y-60214000D01*
X127299677Y-70229000D02*
X127299677Y-60207000D01*
X127339677Y-70235000D02*
X127339677Y-60201000D01*
X127379677Y-70241000D02*
X127379677Y-60195000D01*
X127419677Y-70247000D02*
X127419677Y-60189000D01*
X127459677Y-70253000D02*
X127459677Y-60183000D01*
X127499677Y-70258000D02*
X127499677Y-60178000D01*
X127539677Y-70263000D02*
X127539677Y-60173000D01*
X127579677Y-70267000D02*
X127579677Y-60169000D01*
X127619677Y-70272000D02*
X127619677Y-60164000D01*
X127659677Y-70275000D02*
X127659677Y-60161000D01*
X127699677Y-70279000D02*
X127699677Y-60157000D01*
X127739677Y-70282000D02*
X127739677Y-60154000D01*
X127779677Y-70285000D02*
X127779677Y-60151000D01*
X127819677Y-70288000D02*
X127819677Y-60148000D01*
X127859677Y-70290000D02*
X127859677Y-60146000D01*
X127899677Y-70292000D02*
X127899677Y-60144000D01*
X127939677Y-70294000D02*
X127939677Y-60142000D01*
X127979677Y-70295000D02*
X127979677Y-60141000D01*
X128019677Y-70297000D02*
X128019677Y-60139000D01*
X128059677Y-70297000D02*
X128059677Y-60139000D01*
X128099677Y-70298000D02*
X128099677Y-60138000D01*
X128139677Y-70298000D02*
X128139677Y-60138000D01*
X133119323Y-68593000D02*
X133119323Y-67593000D01*
X133619323Y-68093000D02*
X132619323Y-68093000D01*
X133259677Y-65218000D02*
G75*
G02*
X123019677Y-65218000I-5120000J0D01*
G01*
X123019677Y-65218000D02*
G75*
G02*
X133259677Y-65218000I5120000J0D01*
G01*
%TO.C,F2*%
X138244026Y-126491601D02*
X138244026Y-123719097D01*
X141664026Y-126491601D02*
X141664026Y-123719097D01*
%TO.C,TP1*%
X182560000Y-41402000D02*
G75*
G02*
X180660000Y-41402000I-950000J0D01*
G01*
X180660000Y-41402000D02*
G75*
G02*
X182560000Y-41402000I950000J0D01*
G01*
%TO.C,R2*%
X156744962Y-108497000D02*
X157199090Y-108497000D01*
X156744962Y-109967000D02*
X157199090Y-109967000D01*
%TO.C,R7*%
X183669000Y-72413936D02*
X183669000Y-72868064D01*
X185139000Y-72413936D02*
X185139000Y-72868064D01*
%TO.C,R9*%
X187733000Y-72413936D02*
X187733000Y-72868064D01*
X189203000Y-72413936D02*
X189203000Y-72868064D01*
%TO.C,R5*%
X181637000Y-72413936D02*
X181637000Y-72868064D01*
X183107000Y-72413936D02*
X183107000Y-72868064D01*
%TO.C,J22*%
X140418800Y-109912000D02*
X140418800Y-110962000D01*
X140418800Y-110962000D02*
X139428800Y-110962000D01*
X140418800Y-115132000D02*
X140418800Y-114082000D01*
X141568800Y-109912000D02*
X140418800Y-109912000D01*
X141568800Y-115132000D02*
X140418800Y-115132000D01*
X143538800Y-111082000D02*
X143538800Y-113962000D01*
%TO.C,C5*%
X138043651Y-43973000D02*
X138043651Y-42775000D01*
X138083651Y-44236000D02*
X138083651Y-42512000D01*
X138123651Y-44436000D02*
X138123651Y-42312000D01*
X138163651Y-44604000D02*
X138163651Y-42144000D01*
X138203651Y-44751000D02*
X138203651Y-41997000D01*
X138243651Y-44883000D02*
X138243651Y-41865000D01*
X138283651Y-45004000D02*
X138283651Y-41744000D01*
X138323651Y-45116000D02*
X138323651Y-41632000D01*
X138363651Y-45220000D02*
X138363651Y-41528000D01*
X138403651Y-45318000D02*
X138403651Y-41430000D01*
X138443651Y-45411000D02*
X138443651Y-41337000D01*
X138483651Y-45498000D02*
X138483651Y-41250000D01*
X138523651Y-45582000D02*
X138523651Y-41166000D01*
X138563651Y-45662000D02*
X138563651Y-41086000D01*
X138603651Y-45739000D02*
X138603651Y-41009000D01*
X138643651Y-45813000D02*
X138643651Y-40935000D01*
X138683651Y-45884000D02*
X138683651Y-40864000D01*
X138723651Y-45952000D02*
X138723651Y-40796000D01*
X138763651Y-46018000D02*
X138763651Y-40730000D01*
X138803651Y-46082000D02*
X138803651Y-40666000D01*
X138843651Y-46144000D02*
X138843651Y-40604000D01*
X138883651Y-46204000D02*
X138883651Y-40544000D01*
X138923651Y-46262000D02*
X138923651Y-40486000D01*
X138963651Y-46319000D02*
X138963651Y-40429000D01*
X139003651Y-46374000D02*
X139003651Y-40374000D01*
X139043651Y-46427000D02*
X139043651Y-40321000D01*
X139083651Y-46479000D02*
X139083651Y-40269000D01*
X139123651Y-46530000D02*
X139123651Y-40218000D01*
X139163651Y-46579000D02*
X139163651Y-40169000D01*
X139203651Y-46628000D02*
X139203651Y-40120000D01*
X139243651Y-46675000D02*
X139243651Y-40073000D01*
X139283651Y-46721000D02*
X139283651Y-40027000D01*
X139323651Y-46765000D02*
X139323651Y-39983000D01*
X139363651Y-46809000D02*
X139363651Y-39939000D01*
X139403651Y-42134000D02*
X139403651Y-39896000D01*
X139403651Y-46852000D02*
X139403651Y-44614000D01*
X139443651Y-42134000D02*
X139443651Y-39854000D01*
X139443651Y-46894000D02*
X139443651Y-44614000D01*
X139483651Y-42134000D02*
X139483651Y-39813000D01*
X139483651Y-46935000D02*
X139483651Y-44614000D01*
X139523651Y-42134000D02*
X139523651Y-39773000D01*
X139523651Y-46975000D02*
X139523651Y-44614000D01*
X139563651Y-42134000D02*
X139563651Y-39734000D01*
X139563651Y-47014000D02*
X139563651Y-44614000D01*
X139603651Y-42134000D02*
X139603651Y-39696000D01*
X139603651Y-47052000D02*
X139603651Y-44614000D01*
X139643651Y-42134000D02*
X139643651Y-39658000D01*
X139643651Y-47090000D02*
X139643651Y-44614000D01*
X139683651Y-42134000D02*
X139683651Y-39622000D01*
X139683651Y-47126000D02*
X139683651Y-44614000D01*
X139723651Y-42134000D02*
X139723651Y-39586000D01*
X139723651Y-47162000D02*
X139723651Y-44614000D01*
X139763651Y-42134000D02*
X139763651Y-39551000D01*
X139763651Y-47197000D02*
X139763651Y-44614000D01*
X139803651Y-42134000D02*
X139803651Y-39516000D01*
X139803651Y-47232000D02*
X139803651Y-44614000D01*
X139843651Y-42134000D02*
X139843651Y-39483000D01*
X139843651Y-47265000D02*
X139843651Y-44614000D01*
X139883651Y-42134000D02*
X139883651Y-39450000D01*
X139883651Y-47298000D02*
X139883651Y-44614000D01*
X139923651Y-42134000D02*
X139923651Y-39417000D01*
X139923651Y-47331000D02*
X139923651Y-44614000D01*
X139963651Y-42134000D02*
X139963651Y-39386000D01*
X139963651Y-47362000D02*
X139963651Y-44614000D01*
X140003651Y-42134000D02*
X140003651Y-39354000D01*
X140003651Y-47394000D02*
X140003651Y-44614000D01*
X140043651Y-42134000D02*
X140043651Y-39324000D01*
X140043651Y-47424000D02*
X140043651Y-44614000D01*
X140083651Y-42134000D02*
X140083651Y-39294000D01*
X140083651Y-47454000D02*
X140083651Y-44614000D01*
X140123651Y-42134000D02*
X140123651Y-39265000D01*
X140123651Y-47483000D02*
X140123651Y-44614000D01*
X140163651Y-42134000D02*
X140163651Y-39236000D01*
X140163651Y-47512000D02*
X140163651Y-44614000D01*
X140203651Y-42134000D02*
X140203651Y-39208000D01*
X140203651Y-47540000D02*
X140203651Y-44614000D01*
X140243651Y-42134000D02*
X140243651Y-39181000D01*
X140243651Y-47567000D02*
X140243651Y-44614000D01*
X140283651Y-42134000D02*
X140283651Y-39154000D01*
X140283651Y-47594000D02*
X140283651Y-44614000D01*
X140323651Y-42134000D02*
X140323651Y-39127000D01*
X140323651Y-47621000D02*
X140323651Y-44614000D01*
X140363651Y-42134000D02*
X140363651Y-39102000D01*
X140363651Y-47646000D02*
X140363651Y-44614000D01*
X140403651Y-42134000D02*
X140403651Y-39076000D01*
X140403651Y-47672000D02*
X140403651Y-44614000D01*
X140443651Y-42134000D02*
X140443651Y-39051000D01*
X140443651Y-47697000D02*
X140443651Y-44614000D01*
X140483651Y-42134000D02*
X140483651Y-39027000D01*
X140483651Y-47721000D02*
X140483651Y-44614000D01*
X140523651Y-42134000D02*
X140523651Y-39003000D01*
X140523651Y-47745000D02*
X140523651Y-44614000D01*
X140563651Y-42134000D02*
X140563651Y-38980000D01*
X140563651Y-47768000D02*
X140563651Y-44614000D01*
X140603651Y-42134000D02*
X140603651Y-38957000D01*
X140603651Y-47791000D02*
X140603651Y-44614000D01*
X140643651Y-42134000D02*
X140643651Y-38935000D01*
X140643651Y-47813000D02*
X140643651Y-44614000D01*
X140683651Y-42134000D02*
X140683651Y-38913000D01*
X140683651Y-47835000D02*
X140683651Y-44614000D01*
X140723651Y-42134000D02*
X140723651Y-38891000D01*
X140723651Y-47857000D02*
X140723651Y-44614000D01*
X140763651Y-42134000D02*
X140763651Y-38870000D01*
X140763651Y-47878000D02*
X140763651Y-44614000D01*
X140803651Y-42134000D02*
X140803651Y-38850000D01*
X140803651Y-47898000D02*
X140803651Y-44614000D01*
X140843651Y-42134000D02*
X140843651Y-38830000D01*
X140843651Y-47918000D02*
X140843651Y-44614000D01*
X140883651Y-42134000D02*
X140883651Y-38810000D01*
X140883651Y-47938000D02*
X140883651Y-44614000D01*
X140923651Y-42134000D02*
X140923651Y-38791000D01*
X140923651Y-47957000D02*
X140923651Y-44614000D01*
X140963651Y-42134000D02*
X140963651Y-38772000D01*
X140963651Y-47976000D02*
X140963651Y-44614000D01*
X141003651Y-42134000D02*
X141003651Y-38754000D01*
X141003651Y-47994000D02*
X141003651Y-44614000D01*
X141043651Y-42134000D02*
X141043651Y-38736000D01*
X141043651Y-48012000D02*
X141043651Y-44614000D01*
X141083651Y-42134000D02*
X141083651Y-38718000D01*
X141083651Y-48030000D02*
X141083651Y-44614000D01*
X141123651Y-42134000D02*
X141123651Y-38701000D01*
X141123651Y-48047000D02*
X141123651Y-44614000D01*
X141163651Y-42134000D02*
X141163651Y-38684000D01*
X141163651Y-48064000D02*
X141163651Y-44614000D01*
X141203651Y-42134000D02*
X141203651Y-38668000D01*
X141203651Y-48080000D02*
X141203651Y-44614000D01*
X141243651Y-42134000D02*
X141243651Y-38652000D01*
X141243651Y-48096000D02*
X141243651Y-44614000D01*
X141283651Y-42134000D02*
X141283651Y-38636000D01*
X141283651Y-48112000D02*
X141283651Y-44614000D01*
X141323651Y-42134000D02*
X141323651Y-38621000D01*
X141323651Y-48127000D02*
X141323651Y-44614000D01*
X141363651Y-42134000D02*
X141363651Y-38606000D01*
X141363651Y-48142000D02*
X141363651Y-44614000D01*
X141403651Y-42134000D02*
X141403651Y-38592000D01*
X141403651Y-48156000D02*
X141403651Y-44614000D01*
X141443651Y-42134000D02*
X141443651Y-38577000D01*
X141443651Y-48171000D02*
X141443651Y-44614000D01*
X141483651Y-42134000D02*
X141483651Y-38564000D01*
X141483651Y-48184000D02*
X141483651Y-44614000D01*
X141523651Y-42134000D02*
X141523651Y-38550000D01*
X141523651Y-48198000D02*
X141523651Y-44614000D01*
X141563651Y-42134000D02*
X141563651Y-38537000D01*
X141563651Y-48211000D02*
X141563651Y-44614000D01*
X141603651Y-42134000D02*
X141603651Y-38525000D01*
X141603651Y-48223000D02*
X141603651Y-44614000D01*
X141643651Y-42134000D02*
X141643651Y-38513000D01*
X141643651Y-48235000D02*
X141643651Y-44614000D01*
X141683651Y-42134000D02*
X141683651Y-38501000D01*
X141683651Y-48247000D02*
X141683651Y-44614000D01*
X141723651Y-42134000D02*
X141723651Y-38489000D01*
X141723651Y-48259000D02*
X141723651Y-44614000D01*
X141763651Y-42134000D02*
X141763651Y-38478000D01*
X141763651Y-48270000D02*
X141763651Y-44614000D01*
X141803651Y-42134000D02*
X141803651Y-38467000D01*
X141803651Y-48281000D02*
X141803651Y-44614000D01*
X141843651Y-42134000D02*
X141843651Y-38457000D01*
X141843651Y-48291000D02*
X141843651Y-44614000D01*
X141883651Y-48302000D02*
X141883651Y-38446000D01*
X141923651Y-48311000D02*
X141923651Y-38437000D01*
X141963651Y-48321000D02*
X141963651Y-38427000D01*
X142003651Y-48330000D02*
X142003651Y-38418000D01*
X142043651Y-48339000D02*
X142043651Y-38409000D01*
X142083651Y-48347000D02*
X142083651Y-38401000D01*
X142123651Y-48355000D02*
X142123651Y-38393000D01*
X142163651Y-48363000D02*
X142163651Y-38385000D01*
X142203651Y-48371000D02*
X142203651Y-38377000D01*
X142243651Y-48378000D02*
X142243651Y-38370000D01*
X142283651Y-48385000D02*
X142283651Y-38363000D01*
X142323651Y-48391000D02*
X142323651Y-38357000D01*
X142363651Y-48397000D02*
X142363651Y-38351000D01*
X142403651Y-48403000D02*
X142403651Y-38345000D01*
X142443651Y-48409000D02*
X142443651Y-38339000D01*
X142483651Y-48414000D02*
X142483651Y-38334000D01*
X142523651Y-48419000D02*
X142523651Y-38329000D01*
X142563651Y-48423000D02*
X142563651Y-38325000D01*
X142603651Y-48428000D02*
X142603651Y-38320000D01*
X142643651Y-48431000D02*
X142643651Y-38317000D01*
X142683651Y-48435000D02*
X142683651Y-38313000D01*
X142723651Y-48438000D02*
X142723651Y-38310000D01*
X142763651Y-48441000D02*
X142763651Y-38307000D01*
X142803651Y-48444000D02*
X142803651Y-38304000D01*
X142843651Y-48446000D02*
X142843651Y-38302000D01*
X142883651Y-48448000D02*
X142883651Y-38300000D01*
X142923651Y-48450000D02*
X142923651Y-38298000D01*
X142963651Y-48451000D02*
X142963651Y-38297000D01*
X143003651Y-48453000D02*
X143003651Y-38295000D01*
X143043651Y-48453000D02*
X143043651Y-38295000D01*
X143083651Y-48454000D02*
X143083651Y-38294000D01*
X143123651Y-48454000D02*
X143123651Y-38294000D01*
X148103297Y-46749000D02*
X148103297Y-45749000D01*
X148603297Y-46249000D02*
X147603297Y-46249000D01*
X148243651Y-43374000D02*
G75*
G02*
X138003651Y-43374000I-5120000J0D01*
G01*
X138003651Y-43374000D02*
G75*
G02*
X148243651Y-43374000I5120000J0D01*
G01*
%TO.C,R3*%
X157199090Y-105957000D02*
X156744962Y-105957000D01*
X157199090Y-107427000D02*
X156744962Y-107427000D01*
%TO.C,D6*%
X160076000Y-71644000D02*
X160076000Y-74504000D01*
X160076000Y-74504000D02*
X161996000Y-74504000D01*
X161996000Y-74504000D02*
X161996000Y-71644000D01*
%TO.C,J19*%
X147480000Y-95942000D02*
X147480000Y-96992000D01*
X147480000Y-96992000D02*
X146490000Y-96992000D01*
X147480000Y-101162000D02*
X147480000Y-100112000D01*
X148630000Y-95942000D02*
X147480000Y-95942000D01*
X148630000Y-101162000D02*
X147480000Y-101162000D01*
X150600000Y-97112000D02*
X150600000Y-99992000D01*
%TO.C,J9*%
X139592000Y-59800000D02*
X139592000Y-58420000D01*
X140972000Y-59800000D02*
X139592000Y-59800000D01*
X142242000Y-57040000D02*
X147432000Y-57040000D01*
X142242000Y-59800000D02*
X142242000Y-57040000D01*
X142242000Y-59800000D02*
X147432000Y-59800000D01*
X147432000Y-59800000D02*
X147432000Y-57040000D01*
%TO.C,J15*%
X100365974Y-101433200D02*
X107105974Y-101433200D01*
X100365974Y-102773200D02*
X100365974Y-101433200D01*
X100365974Y-114873200D02*
X100365974Y-103373200D01*
X101285974Y-101433200D02*
X101285974Y-114873200D01*
X102285974Y-101433200D02*
X102285974Y-114873200D01*
X105385974Y-101433200D02*
X105385974Y-114873200D01*
X107105974Y-101433200D02*
X107105974Y-114873200D01*
X107105974Y-114873200D02*
X100365974Y-114873200D01*
X100365974Y-103073200D02*
X99755974Y-103513200D01*
X99755974Y-102633200D01*
X100365974Y-103073200D01*
G36*
X100365974Y-103073200D02*
G01*
X99755974Y-103513200D01*
X99755974Y-102633200D01*
X100365974Y-103073200D01*
G37*
%TO.C,J8*%
X139589974Y-63356000D02*
X139589974Y-61976000D01*
X140969974Y-63356000D02*
X139589974Y-63356000D01*
X142239974Y-60596000D02*
X147429974Y-60596000D01*
X142239974Y-63356000D02*
X142239974Y-60596000D01*
X142239974Y-63356000D02*
X147429974Y-63356000D01*
X147429974Y-63356000D02*
X147429974Y-60596000D01*
%TO.C,R1*%
X176294936Y-48287000D02*
X176749064Y-48287000D01*
X176294936Y-49757000D02*
X176749064Y-49757000D01*
%TO.C,D5*%
X165156000Y-71644000D02*
X165156000Y-74504000D01*
X165156000Y-74504000D02*
X167076000Y-74504000D01*
X167076000Y-74504000D02*
X167076000Y-71644000D01*
%TO.C,F1*%
X174032000Y-62920000D02*
X174032000Y-69160000D01*
X174032000Y-62920000D02*
X194272000Y-62920000D01*
X174552000Y-63540000D02*
X193752000Y-63540000D01*
X174552000Y-68540000D02*
X174552000Y-63540000D01*
X193752000Y-63540000D02*
X193752000Y-68540000D01*
X193752000Y-68540000D02*
X174552000Y-68540000D01*
X194272000Y-69160000D02*
X174032000Y-69160000D01*
X194272000Y-69160000D02*
X194272000Y-62920000D01*
%TO.C,TP6*%
X155636000Y-111760000D02*
G75*
G02*
X153736000Y-111760000I-950000J0D01*
G01*
X153736000Y-111760000D02*
G75*
G02*
X155636000Y-111760000I950000J0D01*
G01*
%TO.C,C3*%
X156824026Y-131494752D02*
X156824026Y-130072248D01*
X158644026Y-131494752D02*
X158644026Y-130072248D01*
%TO.C,J16*%
X100366000Y-115708000D02*
X107106000Y-115708000D01*
X100366000Y-117048000D02*
X100366000Y-115708000D01*
X100366000Y-129148000D02*
X100366000Y-117648000D01*
X101286000Y-115708000D02*
X101286000Y-129148000D01*
X102286000Y-115708000D02*
X102286000Y-129148000D01*
X105386000Y-115708000D02*
X105386000Y-129148000D01*
X107106000Y-115708000D02*
X107106000Y-129148000D01*
X107106000Y-129148000D02*
X100366000Y-129148000D01*
X100366000Y-117348000D02*
X99756000Y-117788000D01*
X99756000Y-116908000D01*
X100366000Y-117348000D01*
G36*
X100366000Y-117348000D02*
G01*
X99756000Y-117788000D01*
X99756000Y-116908000D01*
X100366000Y-117348000D01*
G37*
%TO.C,TP2*%
X155128026Y-118630000D02*
G75*
G02*
X153228026Y-118630000I-950000J0D01*
G01*
X153228026Y-118630000D02*
G75*
G02*
X155128026Y-118630000I950000J0D01*
G01*
%TO.C,J12*%
X100365974Y-58608800D02*
X107105974Y-58608800D01*
X100365974Y-59948800D02*
X100365974Y-58608800D01*
X100365974Y-72048800D02*
X100365974Y-60548800D01*
X101285974Y-58608800D02*
X101285974Y-72048800D01*
X102285974Y-58608800D02*
X102285974Y-72048800D01*
X105385974Y-58608800D02*
X105385974Y-72048800D01*
X107105974Y-58608800D02*
X107105974Y-72048800D01*
X107105974Y-72048800D02*
X100365974Y-72048800D01*
X100365974Y-60248800D02*
X99755974Y-60688800D01*
X99755974Y-59808800D01*
X100365974Y-60248800D01*
G36*
X100365974Y-60248800D02*
G01*
X99755974Y-60688800D01*
X99755974Y-59808800D01*
X100365974Y-60248800D01*
G37*
%TO.C,C6*%
X116502000Y-62968000D02*
X121553000Y-62968000D01*
X116502000Y-62928000D02*
X121547000Y-62928000D01*
X116502000Y-62888000D02*
X121540000Y-62888000D01*
X116502000Y-62848000D02*
X121532000Y-62848000D01*
X116502000Y-62808000D02*
X121525000Y-62808000D01*
X116502000Y-62768000D02*
X121517000Y-62768000D01*
X116502000Y-62728000D02*
X121509000Y-62728000D01*
X116502000Y-62688000D02*
X121501000Y-62688000D01*
X116502000Y-62648000D02*
X121492000Y-62648000D01*
X116502000Y-62608000D02*
X121483000Y-62608000D01*
X116502000Y-62568000D02*
X121474000Y-62568000D01*
X116502000Y-62528000D02*
X121465000Y-62528000D01*
X116502000Y-62488000D02*
X121456000Y-62488000D01*
X116502000Y-62448000D02*
X121446000Y-62448000D01*
X116502000Y-62408000D02*
X121436000Y-62408000D01*
X116502000Y-62368000D02*
X121425000Y-62368000D01*
X116502000Y-62328000D02*
X121415000Y-62328000D01*
X116502000Y-62288000D02*
X121404000Y-62288000D01*
X116502000Y-62248000D02*
X121393000Y-62248000D01*
X116502000Y-62208000D02*
X121381000Y-62208000D01*
X116502000Y-62168000D02*
X121369000Y-62168000D01*
X116502000Y-62128000D02*
X121357000Y-62128000D01*
X116502000Y-62088000D02*
X121345000Y-62088000D01*
X116502000Y-62048000D02*
X121333000Y-62048000D01*
X116502000Y-62008000D02*
X121320000Y-62008000D01*
X116502000Y-61968000D02*
X121307000Y-61968000D01*
X116502000Y-61928000D02*
X121293000Y-61928000D01*
X116502000Y-61888000D02*
X121280000Y-61888000D01*
X116502000Y-61848000D02*
X121266000Y-61848000D01*
X116502000Y-61808000D02*
X121252000Y-61808000D01*
X116502000Y-61768000D02*
X121237000Y-61768000D01*
X116502000Y-61728000D02*
X121222000Y-61728000D01*
X116502000Y-61688000D02*
X121207000Y-61688000D01*
X116502000Y-61648000D02*
X121192000Y-61648000D01*
X116502000Y-61608000D02*
X121176000Y-61608000D01*
X116502000Y-61568000D02*
X121160000Y-61568000D01*
X116502000Y-61528000D02*
X121144000Y-61528000D01*
X116502000Y-61488000D02*
X121127000Y-61488000D01*
X116502000Y-61448000D02*
X121110000Y-61448000D01*
X116502000Y-61408000D02*
X121093000Y-61408000D01*
X116502000Y-61368000D02*
X121075000Y-61368000D01*
X116502000Y-61328000D02*
X121057000Y-61328000D01*
X116502000Y-61288000D02*
X121039000Y-61288000D01*
X116502000Y-61248000D02*
X121021000Y-61248000D01*
X116502000Y-61208000D02*
X121002000Y-61208000D01*
X116502000Y-61168000D02*
X120983000Y-61168000D01*
X116502000Y-61128000D02*
X120963000Y-61128000D01*
X116502000Y-61088000D02*
X120943000Y-61088000D01*
X116502000Y-61048000D02*
X120923000Y-61048000D01*
X116502000Y-61008000D02*
X120903000Y-61008000D01*
X116502000Y-60968000D02*
X120882000Y-60968000D01*
X116502000Y-60928000D02*
X120861000Y-60928000D01*
X116502000Y-60888000D02*
X120839000Y-60888000D01*
X116502000Y-60848000D02*
X120817000Y-60848000D01*
X116502000Y-60808000D02*
X120795000Y-60808000D01*
X116502000Y-60768000D02*
X120772000Y-60768000D01*
X116502000Y-60728000D02*
X120749000Y-60728000D01*
X116502000Y-60688000D02*
X120726000Y-60688000D01*
X116502000Y-60648000D02*
X120702000Y-60648000D01*
X116502000Y-60608000D02*
X120678000Y-60608000D01*
X116502000Y-60568000D02*
X120654000Y-60568000D01*
X116502000Y-60528000D02*
X120629000Y-60528000D01*
X116502000Y-60488000D02*
X120603000Y-60488000D01*
X116502000Y-60448000D02*
X120578000Y-60448000D01*
X116502000Y-60408000D02*
X120551000Y-60408000D01*
X116502000Y-60368000D02*
X120525000Y-60368000D01*
X116502000Y-60328000D02*
X120498000Y-60328000D01*
X116502000Y-60288000D02*
X120471000Y-60288000D01*
X116502000Y-60248000D02*
X120443000Y-60248000D01*
X116502000Y-60208000D02*
X120414000Y-60208000D01*
X116502000Y-60168000D02*
X120386000Y-60168000D01*
X116502000Y-60128000D02*
X120357000Y-60128000D01*
X114588000Y-57448000D02*
X115536000Y-57448000D01*
X114213000Y-57488000D02*
X115911000Y-57488000D01*
X113956000Y-57528000D02*
X116168000Y-57528000D01*
X113748000Y-57568000D02*
X116376000Y-57568000D01*
X113569000Y-57608000D02*
X116555000Y-57608000D01*
X113410000Y-57648000D02*
X116714000Y-57648000D01*
X113265000Y-57688000D02*
X116859000Y-57688000D01*
X113132000Y-57728000D02*
X116992000Y-57728000D01*
X113008000Y-57768000D02*
X117116000Y-57768000D01*
X112891000Y-57808000D02*
X117233000Y-57808000D01*
X112782000Y-57848000D02*
X117342000Y-57848000D01*
X112677000Y-57888000D02*
X117447000Y-57888000D01*
X112578000Y-57928000D02*
X117546000Y-57928000D01*
X112483000Y-57968000D02*
X117641000Y-57968000D01*
X112392000Y-58008000D02*
X117732000Y-58008000D01*
X112305000Y-58048000D02*
X117819000Y-58048000D01*
X112221000Y-58088000D02*
X117903000Y-58088000D01*
X112139000Y-58128000D02*
X117985000Y-58128000D01*
X112061000Y-58168000D02*
X118063000Y-58168000D01*
X111985000Y-58208000D02*
X118139000Y-58208000D01*
X111911000Y-58248000D02*
X118213000Y-58248000D01*
X111839000Y-58288000D02*
X118285000Y-58288000D01*
X111769000Y-58328000D02*
X118355000Y-58328000D01*
X111702000Y-58368000D02*
X118422000Y-58368000D01*
X111636000Y-58408000D02*
X118488000Y-58408000D01*
X111572000Y-58448000D02*
X118552000Y-58448000D01*
X111509000Y-58488000D02*
X118615000Y-58488000D01*
X111448000Y-58528000D02*
X118676000Y-58528000D01*
X111388000Y-58568000D02*
X118736000Y-58568000D01*
X111347000Y-71132569D02*
X111347000Y-69832569D01*
X111330000Y-58608000D02*
X118794000Y-58608000D01*
X111273000Y-58648000D02*
X118851000Y-58648000D01*
X111217000Y-58688000D02*
X118907000Y-58688000D01*
X111162000Y-58728000D02*
X118962000Y-58728000D01*
X111109000Y-58768000D02*
X119015000Y-58768000D01*
X111056000Y-58808000D02*
X119068000Y-58808000D01*
X111005000Y-58848000D02*
X119119000Y-58848000D01*
X110955000Y-58888000D02*
X119169000Y-58888000D01*
X110906000Y-58928000D02*
X119218000Y-58928000D01*
X110857000Y-58968000D02*
X119267000Y-58968000D01*
X110810000Y-59008000D02*
X119314000Y-59008000D01*
X110763000Y-59048000D02*
X119361000Y-59048000D01*
X110718000Y-59088000D02*
X119406000Y-59088000D01*
X110697000Y-70482569D02*
X111997000Y-70482569D01*
X110673000Y-59128000D02*
X119451000Y-59128000D01*
X110629000Y-59168000D02*
X119495000Y-59168000D01*
X110585000Y-59208000D02*
X119539000Y-59208000D01*
X110543000Y-59248000D02*
X119581000Y-59248000D01*
X110501000Y-59288000D02*
X119623000Y-59288000D01*
X110460000Y-59328000D02*
X119664000Y-59328000D01*
X110420000Y-59368000D02*
X119704000Y-59368000D01*
X110380000Y-59408000D02*
X119744000Y-59408000D01*
X110341000Y-59448000D02*
X119783000Y-59448000D01*
X110303000Y-59488000D02*
X119821000Y-59488000D01*
X110265000Y-59528000D02*
X119859000Y-59528000D01*
X110228000Y-59568000D02*
X119896000Y-59568000D01*
X110192000Y-59608000D02*
X119932000Y-59608000D01*
X110156000Y-59648000D02*
X119968000Y-59648000D01*
X110121000Y-59688000D02*
X120003000Y-59688000D01*
X110086000Y-59728000D02*
X120038000Y-59728000D01*
X110052000Y-59768000D02*
X120072000Y-59768000D01*
X110018000Y-59808000D02*
X120106000Y-59808000D01*
X109985000Y-59848000D02*
X120139000Y-59848000D01*
X109952000Y-59888000D02*
X120172000Y-59888000D01*
X109920000Y-59928000D02*
X120204000Y-59928000D01*
X109889000Y-59968000D02*
X120235000Y-59968000D01*
X109858000Y-60008000D02*
X120266000Y-60008000D01*
X109827000Y-60048000D02*
X120297000Y-60048000D01*
X109797000Y-60088000D02*
X120327000Y-60088000D01*
X109767000Y-60128000D02*
X113622000Y-60128000D01*
X109738000Y-60168000D02*
X113622000Y-60168000D01*
X109710000Y-60208000D02*
X113622000Y-60208000D01*
X109681000Y-60248000D02*
X113622000Y-60248000D01*
X109653000Y-60288000D02*
X113622000Y-60288000D01*
X109626000Y-60328000D02*
X113622000Y-60328000D01*
X109599000Y-60368000D02*
X113622000Y-60368000D01*
X109573000Y-60408000D02*
X113622000Y-60408000D01*
X109546000Y-60448000D02*
X113622000Y-60448000D01*
X109521000Y-60488000D02*
X113622000Y-60488000D01*
X109495000Y-60528000D02*
X113622000Y-60528000D01*
X109470000Y-60568000D02*
X113622000Y-60568000D01*
X109446000Y-60608000D02*
X113622000Y-60608000D01*
X109422000Y-60648000D02*
X113622000Y-60648000D01*
X109398000Y-60688000D02*
X113622000Y-60688000D01*
X109375000Y-60728000D02*
X113622000Y-60728000D01*
X109352000Y-60768000D02*
X113622000Y-60768000D01*
X109329000Y-60808000D02*
X113622000Y-60808000D01*
X109307000Y-60848000D02*
X113622000Y-60848000D01*
X109285000Y-60888000D02*
X113622000Y-60888000D01*
X109263000Y-60928000D02*
X113622000Y-60928000D01*
X109242000Y-60968000D02*
X113622000Y-60968000D01*
X109221000Y-61008000D02*
X113622000Y-61008000D01*
X109201000Y-61048000D02*
X113622000Y-61048000D01*
X109181000Y-61088000D02*
X113622000Y-61088000D01*
X109161000Y-61128000D02*
X113622000Y-61128000D01*
X109141000Y-61168000D02*
X113622000Y-61168000D01*
X109122000Y-61208000D02*
X113622000Y-61208000D01*
X109103000Y-61248000D02*
X113622000Y-61248000D01*
X109085000Y-61288000D02*
X113622000Y-61288000D01*
X109067000Y-61328000D02*
X113622000Y-61328000D01*
X109049000Y-61368000D02*
X113622000Y-61368000D01*
X109031000Y-61408000D02*
X113622000Y-61408000D01*
X109014000Y-61448000D02*
X113622000Y-61448000D01*
X108997000Y-61488000D02*
X113622000Y-61488000D01*
X108980000Y-61528000D02*
X113622000Y-61528000D01*
X108964000Y-61568000D02*
X113622000Y-61568000D01*
X108948000Y-61608000D02*
X113622000Y-61608000D01*
X108932000Y-61648000D02*
X113622000Y-61648000D01*
X108917000Y-61688000D02*
X113622000Y-61688000D01*
X108902000Y-61728000D02*
X113622000Y-61728000D01*
X108887000Y-61768000D02*
X113622000Y-61768000D01*
X108872000Y-61808000D02*
X113622000Y-61808000D01*
X108858000Y-61848000D02*
X113622000Y-61848000D01*
X108844000Y-61888000D02*
X113622000Y-61888000D01*
X108831000Y-61928000D02*
X113622000Y-61928000D01*
X108817000Y-61968000D02*
X113622000Y-61968000D01*
X108804000Y-62008000D02*
X113622000Y-62008000D01*
X108791000Y-62048000D02*
X113622000Y-62048000D01*
X108779000Y-62088000D02*
X113622000Y-62088000D01*
X108767000Y-62128000D02*
X113622000Y-62128000D01*
X108755000Y-62168000D02*
X113622000Y-62168000D01*
X108743000Y-62208000D02*
X113622000Y-62208000D01*
X108731000Y-62248000D02*
X113622000Y-62248000D01*
X108720000Y-62288000D02*
X113622000Y-62288000D01*
X108709000Y-62328000D02*
X113622000Y-62328000D01*
X108699000Y-62368000D02*
X113622000Y-62368000D01*
X108688000Y-62408000D02*
X113622000Y-62408000D01*
X108678000Y-62448000D02*
X113622000Y-62448000D01*
X108668000Y-62488000D02*
X113622000Y-62488000D01*
X108659000Y-62528000D02*
X113622000Y-62528000D01*
X108650000Y-62568000D02*
X113622000Y-62568000D01*
X108641000Y-62608000D02*
X113622000Y-62608000D01*
X108632000Y-62648000D02*
X113622000Y-62648000D01*
X108623000Y-62688000D02*
X113622000Y-62688000D01*
X108615000Y-62728000D02*
X113622000Y-62728000D01*
X108607000Y-62768000D02*
X113622000Y-62768000D01*
X108599000Y-62808000D02*
X113622000Y-62808000D01*
X108592000Y-62848000D02*
X113622000Y-62848000D01*
X108584000Y-62888000D02*
X113622000Y-62888000D01*
X108577000Y-62928000D02*
X113622000Y-62928000D01*
X108571000Y-62968000D02*
X113622000Y-62968000D01*
X108564000Y-63008000D02*
X121560000Y-63008000D01*
X108558000Y-63048000D02*
X121566000Y-63048000D01*
X108552000Y-63088000D02*
X121572000Y-63088000D01*
X108546000Y-63128000D02*
X121578000Y-63128000D01*
X108541000Y-63168000D02*
X121583000Y-63168000D01*
X108536000Y-63208000D02*
X121588000Y-63208000D01*
X108531000Y-63248000D02*
X121593000Y-63248000D01*
X108526000Y-63288000D02*
X121598000Y-63288000D01*
X108521000Y-63328000D02*
X121603000Y-63328000D01*
X108517000Y-63368000D02*
X121607000Y-63368000D01*
X108513000Y-63408000D02*
X121611000Y-63408000D01*
X108509000Y-63448000D02*
X121615000Y-63448000D01*
X108506000Y-63488000D02*
X121618000Y-63488000D01*
X108502000Y-63528000D02*
X121622000Y-63528000D01*
X108499000Y-63568000D02*
X121625000Y-63568000D01*
X108497000Y-63608000D02*
X121627000Y-63608000D01*
X108494000Y-63648000D02*
X121630000Y-63648000D01*
X108492000Y-63688000D02*
X121632000Y-63688000D01*
X108490000Y-63728000D02*
X121634000Y-63728000D01*
X108488000Y-63768000D02*
X121636000Y-63768000D01*
X108486000Y-63808000D02*
X121638000Y-63808000D01*
X108485000Y-63848000D02*
X121639000Y-63848000D01*
X108484000Y-63888000D02*
X121640000Y-63888000D01*
X108483000Y-63928000D02*
X121641000Y-63928000D01*
X108482000Y-64048000D02*
X121642000Y-64048000D01*
X108482000Y-64008000D02*
X121642000Y-64008000D01*
X108482000Y-63968000D02*
X121642000Y-63968000D01*
X121682000Y-64048000D02*
G75*
G02*
X108442000Y-64048000I-6620000J0D01*
G01*
X108442000Y-64048000D02*
G75*
G02*
X121682000Y-64048000I6620000J0D01*
G01*
%TO.C,C2*%
X194924000Y-82612748D02*
X194924000Y-84035252D01*
X196744000Y-82612748D02*
X196744000Y-84035252D01*
%TO.C,J13*%
X100365974Y-72883600D02*
X107105974Y-72883600D01*
X100365974Y-74223600D02*
X100365974Y-72883600D01*
X100365974Y-86323600D02*
X100365974Y-74823600D01*
X101285974Y-72883600D02*
X101285974Y-86323600D01*
X102285974Y-72883600D02*
X102285974Y-86323600D01*
X105385974Y-72883600D02*
X105385974Y-86323600D01*
X107105974Y-72883600D02*
X107105974Y-86323600D01*
X107105974Y-86323600D02*
X100365974Y-86323600D01*
X100365974Y-74523600D02*
X99755974Y-74963600D01*
X99755974Y-74083600D01*
X100365974Y-74523600D01*
G36*
X100365974Y-74523600D02*
G01*
X99755974Y-74963600D01*
X99755974Y-74083600D01*
X100365974Y-74523600D01*
G37*
%TO.C,D4*%
X170236000Y-71644000D02*
X170236000Y-74504000D01*
X170236000Y-74504000D02*
X172156000Y-74504000D01*
X172156000Y-74504000D02*
X172156000Y-71644000D01*
%TO.C,J4*%
X109323974Y-38454000D02*
X109913974Y-38454000D01*
X109323974Y-40674000D02*
X109913974Y-40674000D01*
X109913974Y-36354000D02*
X109913974Y-38454000D01*
X109913974Y-36354000D02*
X120033974Y-36354000D01*
X109913974Y-40674000D02*
X109913974Y-45574000D01*
X109913974Y-45574000D02*
X120033974Y-45574000D01*
X120033974Y-36354000D02*
X120033974Y-38454000D01*
X120033974Y-38454000D02*
X120623974Y-38454000D01*
X120033974Y-40674000D02*
X120033974Y-45574000D01*
X120033974Y-40674000D02*
X120623974Y-40674000D01*
X109323974Y-40674000D02*
G75*
G02*
X109323974Y-38454000I0J1110000D01*
G01*
X120623974Y-38454000D02*
G75*
G02*
X120623974Y-40674000I0J-1110000D01*
G01*
%TO.C,TP4*%
X147254026Y-50558000D02*
G75*
G02*
X145354026Y-50558000I-950000J0D01*
G01*
X145354026Y-50558000D02*
G75*
G02*
X147254026Y-50558000I950000J0D01*
G01*
%TO.C,J18*%
X140520400Y-81972000D02*
X140520400Y-83022000D01*
X140520400Y-83022000D02*
X139530400Y-83022000D01*
X140520400Y-87192000D02*
X140520400Y-86142000D01*
X141670400Y-81972000D02*
X140520400Y-81972000D01*
X141670400Y-87192000D02*
X140520400Y-87192000D01*
X143640400Y-83142000D02*
X143640400Y-86022000D01*
%TO.C,TP3*%
X113472026Y-54876000D02*
G75*
G02*
X111572026Y-54876000I-950000J0D01*
G01*
X111572026Y-54876000D02*
G75*
G02*
X113472026Y-54876000I950000J0D01*
G01*
%TO.C,TP5*%
X152588026Y-132346000D02*
G75*
G02*
X150688026Y-132346000I-950000J0D01*
G01*
X150688026Y-132346000D02*
G75*
G02*
X152588026Y-132346000I950000J0D01*
G01*
%TO.C,J7*%
X139592000Y-66912000D02*
X139592000Y-65532000D01*
X140972000Y-66912000D02*
X139592000Y-66912000D01*
X142242000Y-64152000D02*
X147432000Y-64152000D01*
X142242000Y-66912000D02*
X142242000Y-64152000D01*
X142242000Y-66912000D02*
X147432000Y-66912000D01*
X147432000Y-66912000D02*
X147432000Y-64152000D01*
%TO.C,D7*%
X154996000Y-71644000D02*
X154996000Y-74504000D01*
X154996000Y-74504000D02*
X156916000Y-74504000D01*
X156916000Y-74504000D02*
X156916000Y-71644000D01*
%TO.C,J6*%
X124133974Y-38447000D02*
X124723974Y-38447000D01*
X124133974Y-40667000D02*
X124723974Y-40667000D01*
X124723974Y-36347000D02*
X124723974Y-38447000D01*
X124723974Y-36347000D02*
X134843974Y-36347000D01*
X124723974Y-40667000D02*
X124723974Y-45567000D01*
X124723974Y-45567000D02*
X134843974Y-45567000D01*
X134843974Y-36347000D02*
X134843974Y-38447000D01*
X134843974Y-38447000D02*
X135433974Y-38447000D01*
X134843974Y-40667000D02*
X134843974Y-45567000D01*
X134843974Y-40667000D02*
X135433974Y-40667000D01*
X124133974Y-40667000D02*
G75*
G02*
X124133974Y-38447000I0J1110000D01*
G01*
X135433974Y-38447000D02*
G75*
G02*
X135433974Y-40667000I0J-1110000D01*
G01*
%TO.C,C8*%
X150598026Y-125797349D02*
X147621026Y-125797349D01*
X150598026Y-125837349D02*
X147629026Y-125837349D01*
X150598026Y-125877349D02*
X147636026Y-125877349D01*
X150598026Y-125917349D02*
X147645026Y-125917349D01*
X150598026Y-125957349D02*
X147653026Y-125957349D01*
X150598026Y-125997349D02*
X147662026Y-125997349D01*
X150598026Y-126037349D02*
X147671026Y-126037349D01*
X150598026Y-126077349D02*
X147681026Y-126077349D01*
X150598026Y-126117349D02*
X147691026Y-126117349D01*
X150598026Y-126157349D02*
X147702026Y-126157349D01*
X150598026Y-126197349D02*
X147713026Y-126197349D01*
X150598026Y-126237349D02*
X147725026Y-126237349D01*
X150598026Y-126277349D02*
X147737026Y-126277349D01*
X150598026Y-126317349D02*
X147749026Y-126317349D01*
X150598026Y-126357349D02*
X147762026Y-126357349D01*
X150598026Y-126397349D02*
X147775026Y-126397349D01*
X150598026Y-126437349D02*
X147789026Y-126437349D01*
X150598026Y-126477349D02*
X147803026Y-126477349D01*
X150598026Y-126517349D02*
X147818026Y-126517349D01*
X150598026Y-126557349D02*
X147833026Y-126557349D01*
X150598026Y-126597349D02*
X147849026Y-126597349D01*
X150598026Y-126637349D02*
X147865026Y-126637349D01*
X150598026Y-126677349D02*
X147881026Y-126677349D01*
X150598026Y-126717349D02*
X147898026Y-126717349D01*
X150598026Y-126757349D02*
X147916026Y-126757349D01*
X150598026Y-126797349D02*
X147934026Y-126797349D01*
X150598026Y-126837349D02*
X147953026Y-126837349D01*
X150598026Y-126877349D02*
X147972026Y-126877349D01*
X150598026Y-126917349D02*
X147992026Y-126917349D01*
X150598026Y-126957349D02*
X148012026Y-126957349D01*
X150598026Y-126997349D02*
X148033026Y-126997349D01*
X150598026Y-127037349D02*
X148054026Y-127037349D01*
X150598026Y-127077349D02*
X148076026Y-127077349D01*
X150598026Y-127117349D02*
X148099026Y-127117349D01*
X150598026Y-127157349D02*
X148122026Y-127157349D01*
X150598026Y-127197349D02*
X148145026Y-127197349D01*
X150598026Y-127237349D02*
X148170026Y-127237349D01*
X150598026Y-127277349D02*
X148195026Y-127277349D01*
X150598026Y-127317349D02*
X148220026Y-127317349D01*
X150598026Y-127357349D02*
X148246026Y-127357349D01*
X150598026Y-127397349D02*
X148273026Y-127397349D01*
X150598026Y-127437349D02*
X148301026Y-127437349D01*
X150598026Y-127477349D02*
X148329026Y-127477349D01*
X150598026Y-127517349D02*
X148358026Y-127517349D01*
X150598026Y-127557349D02*
X148388026Y-127557349D01*
X150598026Y-127597349D02*
X148419026Y-127597349D01*
X150598026Y-127637349D02*
X148450026Y-127637349D01*
X150598026Y-127677349D02*
X148482026Y-127677349D01*
X150598026Y-127717349D02*
X148515026Y-127717349D01*
X150598026Y-127757349D02*
X148549026Y-127757349D01*
X150598026Y-127797349D02*
X148583026Y-127797349D01*
X150598026Y-127837349D02*
X148619026Y-127837349D01*
X152171026Y-129157349D02*
X151105026Y-129157349D01*
X152406026Y-129117349D02*
X150870026Y-129117349D01*
X152585026Y-129077349D02*
X150691026Y-129077349D01*
X152735026Y-129037349D02*
X150541026Y-129037349D01*
X152866026Y-128997349D02*
X150410026Y-128997349D01*
X152984026Y-128957349D02*
X150292026Y-128957349D01*
X153091026Y-128917349D02*
X150185026Y-128917349D01*
X153190026Y-128877349D02*
X150086026Y-128877349D01*
X153282026Y-128837349D02*
X149994026Y-128837349D01*
X153369026Y-128797349D02*
X149907026Y-128797349D01*
X153451026Y-128757349D02*
X149825026Y-128757349D01*
X153528026Y-128717349D02*
X149748026Y-128717349D01*
X153602026Y-128677349D02*
X149674026Y-128677349D01*
X153672026Y-128637349D02*
X149604026Y-128637349D01*
X153739026Y-128597349D02*
X149537026Y-128597349D01*
X153803026Y-128557349D02*
X149473026Y-128557349D01*
X153865026Y-128517349D02*
X149411026Y-128517349D01*
X153925026Y-128477349D02*
X149351026Y-128477349D01*
X153953026Y-120667651D02*
X153953026Y-121467651D01*
X153982026Y-128437349D02*
X149294026Y-128437349D01*
X154038026Y-128397349D02*
X149238026Y-128397349D01*
X154091026Y-128357349D02*
X149185026Y-128357349D01*
X154143026Y-128317349D02*
X149133026Y-128317349D01*
X154193026Y-128277349D02*
X149083026Y-128277349D01*
X154242026Y-128237349D02*
X149034026Y-128237349D01*
X154289026Y-128197349D02*
X148987026Y-128197349D01*
X154334026Y-128157349D02*
X148942026Y-128157349D01*
X154353026Y-121067651D02*
X153553026Y-121067651D01*
X154379026Y-128117349D02*
X148897026Y-128117349D01*
X154422026Y-128077349D02*
X148854026Y-128077349D01*
X154464026Y-128037349D02*
X148812026Y-128037349D01*
X154505026Y-127997349D02*
X148771026Y-127997349D01*
X154544026Y-127957349D02*
X148732026Y-127957349D01*
X154583026Y-127917349D02*
X148693026Y-127917349D01*
X154620026Y-127877349D02*
X148656026Y-127877349D01*
X154657026Y-127837349D02*
X152678026Y-127837349D01*
X154693026Y-127797349D02*
X152678026Y-127797349D01*
X154727026Y-127757349D02*
X152678026Y-127757349D01*
X154761026Y-127717349D02*
X152678026Y-127717349D01*
X154794026Y-127677349D02*
X152678026Y-127677349D01*
X154826026Y-127637349D02*
X152678026Y-127637349D01*
X154857026Y-127597349D02*
X152678026Y-127597349D01*
X154888026Y-127557349D02*
X152678026Y-127557349D01*
X154918026Y-127517349D02*
X152678026Y-127517349D01*
X154947026Y-127477349D02*
X152678026Y-127477349D01*
X154975026Y-127437349D02*
X152678026Y-127437349D01*
X155003026Y-127397349D02*
X152678026Y-127397349D01*
X155030026Y-127357349D02*
X152678026Y-127357349D01*
X155056026Y-127317349D02*
X152678026Y-127317349D01*
X155081026Y-127277349D02*
X152678026Y-127277349D01*
X155106026Y-127237349D02*
X152678026Y-127237349D01*
X155131026Y-127197349D02*
X152678026Y-127197349D01*
X155154026Y-127157349D02*
X152678026Y-127157349D01*
X155177026Y-127117349D02*
X152678026Y-127117349D01*
X155200026Y-127077349D02*
X152678026Y-127077349D01*
X155222026Y-127037349D02*
X152678026Y-127037349D01*
X155243026Y-126997349D02*
X152678026Y-126997349D01*
X155264026Y-126957349D02*
X152678026Y-126957349D01*
X155284026Y-126917349D02*
X152678026Y-126917349D01*
X155304026Y-126877349D02*
X152678026Y-126877349D01*
X155323026Y-126837349D02*
X152678026Y-126837349D01*
X155342026Y-126797349D02*
X152678026Y-126797349D01*
X155360026Y-126757349D02*
X152678026Y-126757349D01*
X155378026Y-126717349D02*
X152678026Y-126717349D01*
X155395026Y-126677349D02*
X152678026Y-126677349D01*
X155411026Y-126637349D02*
X152678026Y-126637349D01*
X155427026Y-126597349D02*
X152678026Y-126597349D01*
X155443026Y-126557349D02*
X152678026Y-126557349D01*
X155458026Y-126517349D02*
X152678026Y-126517349D01*
X155473026Y-126477349D02*
X152678026Y-126477349D01*
X155487026Y-126437349D02*
X152678026Y-126437349D01*
X155501026Y-126397349D02*
X152678026Y-126397349D01*
X155514026Y-126357349D02*
X152678026Y-126357349D01*
X155527026Y-126317349D02*
X152678026Y-126317349D01*
X155539026Y-126277349D02*
X152678026Y-126277349D01*
X155551026Y-126237349D02*
X152678026Y-126237349D01*
X155563026Y-126197349D02*
X152678026Y-126197349D01*
X155574026Y-126157349D02*
X152678026Y-126157349D01*
X155585026Y-126117349D02*
X152678026Y-126117349D01*
X155595026Y-126077349D02*
X152678026Y-126077349D01*
X155605026Y-126037349D02*
X152678026Y-126037349D01*
X155614026Y-125997349D02*
X152678026Y-125997349D01*
X155623026Y-125957349D02*
X152678026Y-125957349D01*
X155631026Y-125917349D02*
X152678026Y-125917349D01*
X155640026Y-125877349D02*
X152678026Y-125877349D01*
X155647026Y-125837349D02*
X152678026Y-125837349D01*
X155655026Y-125797349D02*
X152678026Y-125797349D01*
X155661026Y-125757349D02*
X147615026Y-125757349D01*
X155668026Y-125717349D02*
X147608026Y-125717349D01*
X155674026Y-125677349D02*
X147602026Y-125677349D01*
X155680026Y-125637349D02*
X147596026Y-125637349D01*
X155685026Y-125597349D02*
X147591026Y-125597349D01*
X155690026Y-125557349D02*
X147586026Y-125557349D01*
X155694026Y-125517349D02*
X147582026Y-125517349D01*
X155699026Y-125477349D02*
X147577026Y-125477349D01*
X155702026Y-125437349D02*
X147574026Y-125437349D01*
X155706026Y-125397349D02*
X147570026Y-125397349D01*
X155708026Y-125357349D02*
X147568026Y-125357349D01*
X155711026Y-125317349D02*
X147565026Y-125317349D01*
X155713026Y-125277349D02*
X147563026Y-125277349D01*
X155715026Y-125237349D02*
X147561026Y-125237349D01*
X155716026Y-125197349D02*
X147560026Y-125197349D01*
X155717026Y-125157349D02*
X147559026Y-125157349D01*
X155718026Y-125077349D02*
X147558026Y-125077349D01*
X155718026Y-125117349D02*
X147558026Y-125117349D01*
X155758026Y-125077349D02*
G75*
G02*
X147518026Y-125077349I-4120000J0D01*
G01*
X147518026Y-125077349D02*
G75*
G02*
X155758026Y-125077349I4120000J0D01*
G01*
%TO.C,J1*%
X179614000Y-52558000D02*
X179614000Y-56298000D01*
X198034000Y-45988000D02*
X183724000Y-45988000D01*
X198034000Y-45988000D02*
X198034000Y-61708000D01*
X198034000Y-61708000D02*
X183724000Y-61708000D01*
X180201042Y-47981194D02*
G75*
G02*
X183724000Y-45988000I3522957J-2116805D01*
G01*
X183724000Y-61708000D02*
G75*
G02*
X179793587Y-58799648I0J4110000D01*
G01*
%TO.C,Q1*%
X171310000Y-54054000D02*
X171580000Y-54054000D01*
X171310000Y-60474000D02*
X171310000Y-54054000D01*
X178210000Y-54054000D02*
X177940000Y-54054000D01*
X178210000Y-60474000D02*
X178210000Y-54054000D01*
X178370000Y-52664000D02*
X177900000Y-52324000D01*
X178370000Y-51984000D01*
X178370000Y-52664000D01*
G36*
X178370000Y-52664000D02*
G01*
X177900000Y-52324000D01*
X178370000Y-51984000D01*
X178370000Y-52664000D01*
G37*
%TD*%
D15*
%TO.C,J2*%
X191770000Y-74644000D03*
X142770000Y-74644000D03*
X191770000Y-132644000D03*
X142770000Y-132644000D03*
D16*
X190500000Y-79514000D03*
D17*
X193040000Y-79514000D03*
X190500000Y-82054000D03*
X193040000Y-82054000D03*
X190500000Y-84594000D03*
X193040000Y-84594000D03*
X190500000Y-87134000D03*
X193040000Y-87134000D03*
X190500000Y-89674000D03*
X193040000Y-89674000D03*
X190500000Y-92214000D03*
X193040000Y-92214000D03*
X190500000Y-94754000D03*
X193040000Y-94754000D03*
X190500000Y-97294000D03*
X193040000Y-97294000D03*
X190500000Y-99834000D03*
X193040000Y-99834000D03*
X190500000Y-102374000D03*
X193040000Y-102374000D03*
X190500000Y-104914000D03*
X193040000Y-104914000D03*
X190500000Y-107454000D03*
X193040000Y-107454000D03*
X190500000Y-109994000D03*
X193040000Y-109994000D03*
X190500000Y-112534000D03*
X193040000Y-112534000D03*
X190500000Y-115074000D03*
X193040000Y-115074000D03*
X190500000Y-117614000D03*
X193040000Y-117614000D03*
X190500000Y-120154000D03*
X193040000Y-120154000D03*
X190500000Y-122694000D03*
X193040000Y-122694000D03*
X190500000Y-125234000D03*
X193040000Y-125234000D03*
X190500000Y-127774000D03*
X193040000Y-127774000D03*
%TD*%
D18*
X99814874Y-40709126D02*
X99822000Y-132842000D01*
X99814874Y-40709126D02*
G75*
G02*
X103314874Y-37209074I3500026J26D01*
G01*
X103322000Y-136342000D02*
G75*
G02*
X99822000Y-132842000I0J3500000D01*
G01*
X191770000Y-37200000D02*
X103314874Y-37209126D01*
X191770000Y-37200000D02*
G75*
G02*
X195270000Y-40700000I0J-3500000D01*
G01*
X195270000Y-40700000D02*
X195279126Y-68580000D01*
X195897126Y-136332874D02*
X103322000Y-136342000D01*
X196185594Y-70768406D02*
G75*
G02*
X195279127Y-68580000I2188406J2188406D01*
G01*
X198374000Y-72898000D02*
X196185594Y-70768406D01*
X198376585Y-72895252D02*
G75*
G02*
X199316964Y-74930001I-2056585J-2185148D01*
G01*
X199397126Y-132832874D02*
X199316982Y-74930000D01*
X199397126Y-132832874D02*
G75*
G02*
X195897126Y-136332926I-3500026J-26D01*
G01*
M02*
