%TF.GenerationSoftware,KiCad,Pcbnew,10.0.0*%
%TF.CreationDate,2026-04-10T22:58:38+08:00*%
%TF.ProjectId,PCB v0.1,50434220-7630-42e3-912e-6b696361645f,A*%
%TF.SameCoordinates,Original*%
%TF.FileFunction,Soldermask,Bot*%
%TF.FilePolarity,Negative*%
%FSLAX46Y46*%
G04 Gerber Fmt 4.6, Leading zero omitted, Abs format (unit mm)*
G04 Created by KiCad (PCBNEW 10.0.0) date 2026-04-10 22:58:38*
%MOMM*%
%LPD*%
G01*
G04 APERTURE LIST*
G04 Aperture macros list*
%AMRoundRect*
0 Rectangle with rounded corners*
0 $1 Rounding radius*
0 $2 $3 $4 $5 $6 $7 $8 $9 X,Y pos of 4 corners*
0 Add a 4 corners polygon primitive as box body*
4,1,4,$2,$3,$4,$5,$6,$7,$8,$9,$2,$3,0*
0 Add four circle primitives for the rounded corners*
1,1,$1+$1,$2,$3*
1,1,$1+$1,$4,$5*
1,1,$1+$1,$6,$7*
1,1,$1+$1,$8,$9*
0 Add four rect primitives between the rounded corners*
20,1,$1+$1,$2,$3,$4,$5,0*
20,1,$1+$1,$4,$5,$6,$7,0*
20,1,$1+$1,$6,$7,$8,$9,0*
20,1,$1+$1,$8,$9,$2,$3,0*%
G04 Aperture macros list end*
%ADD10C,2.750000*%
%ADD11R,1.750000X1.750000*%
%ADD12C,1.750000*%
%ADD13C,1.600000*%
%ADD14RoundRect,0.250000X0.550000X-0.550000X0.550000X0.550000X-0.550000X0.550000X-0.550000X-0.550000X0*%
%ADD15C,2.000000*%
%ADD16RoundRect,0.250000X0.750000X-0.750000X0.750000X0.750000X-0.750000X0.750000X-0.750000X-0.750000X0*%
%ADD17C,2.200000*%
%ADD18C,1.850000*%
%ADD19RoundRect,0.250000X-0.550000X-0.550000X0.550000X-0.550000X0.550000X0.550000X-0.550000X0.550000X0*%
%ADD20R,1.700000X1.700000*%
%ADD21C,1.700000*%
%ADD22C,1.400000*%
%ADD23RoundRect,0.770000X0.980000X0.980000X-0.980000X0.980000X-0.980000X-0.980000X0.980000X-0.980000X0*%
%ADD24C,3.500000*%
%ADD25RoundRect,0.250001X0.949999X-0.949999X0.949999X0.949999X-0.949999X0.949999X-0.949999X-0.949999X0*%
%ADD26C,2.400000*%
%ADD27R,2.000000X0.900000*%
%ADD28RoundRect,1.025000X1.025000X-1.025000X1.025000X1.025000X-1.025000X1.025000X-1.025000X-1.025000X0*%
%ADD29C,4.100000*%
%ADD30RoundRect,0.770000X0.980000X-0.980000X0.980000X0.980000X-0.980000X0.980000X-0.980000X-0.980000X0*%
%ADD31C,5.600000*%
G04 APERTURE END LIST*
D10*
%TO.C,J2*%
X198628000Y-80151000D03*
X149628000Y-80151000D03*
X198628000Y-138151000D03*
X149628000Y-138151000D03*
D11*
X197358000Y-85021000D03*
D12*
X199898000Y-85021000D03*
X197358000Y-87561000D03*
X199898000Y-87561000D03*
X197358000Y-90101000D03*
X199898000Y-90101000D03*
X197358000Y-92641000D03*
X199898000Y-92641000D03*
X197358000Y-95181000D03*
X199898000Y-95181000D03*
X197358000Y-97721000D03*
X199898000Y-97721000D03*
X197358000Y-100261000D03*
X199898000Y-100261000D03*
X197358000Y-102801000D03*
X199898000Y-102801000D03*
X197358000Y-105341000D03*
X199898000Y-105341000D03*
X197358000Y-107881000D03*
X199898000Y-107881000D03*
X197358000Y-110421000D03*
X199898000Y-110421000D03*
X197358000Y-112961000D03*
X199898000Y-112961000D03*
X197358000Y-115501000D03*
X199898000Y-115501000D03*
X197358000Y-118041000D03*
X199898000Y-118041000D03*
X197358000Y-120581000D03*
X199898000Y-120581000D03*
X197358000Y-123121000D03*
X199898000Y-123121000D03*
X197358000Y-125661000D03*
X199898000Y-125661000D03*
X197358000Y-128201000D03*
X199898000Y-128201000D03*
X197358000Y-130741000D03*
X199898000Y-130741000D03*
X197358000Y-133281000D03*
X199898000Y-133281000D03*
%TD*%
D13*
%TO.C,C6*%
X178308000Y-81210651D03*
D14*
X178308000Y-84710651D03*
%TD*%
D15*
%TO.C,C5*%
X139192000Y-81372677D03*
D16*
X139192000Y-86372677D03*
%TD*%
D17*
%TO.C,A1*%
X200022000Y-58235000D03*
D18*
X196992000Y-58535000D03*
X196992000Y-63385000D03*
D17*
X200022000Y-63685000D03*
%TD*%
D19*
%TO.C,C8*%
X154557349Y-135382000D03*
D13*
X158057349Y-135382000D03*
%TD*%
D20*
%TO.C,J6*%
X105664000Y-74422000D03*
D21*
X108204000Y-74422000D03*
X110744000Y-74422000D03*
X113284000Y-74422000D03*
X115824000Y-74422000D03*
%TD*%
D20*
%TO.C,J12*%
X193234698Y-127508000D03*
D21*
X190694698Y-127508000D03*
X188154698Y-127508000D03*
%TD*%
D22*
%TO.C,U2*%
X131444000Y-138524000D03*
X120444000Y-138524000D03*
D23*
X123444000Y-128524000D03*
D24*
X128444000Y-128524000D03*
%TD*%
D20*
%TO.C,J8*%
X133604000Y-74422000D03*
D21*
X136144000Y-74422000D03*
X138684000Y-74422000D03*
X141224000Y-74422000D03*
X143764000Y-74422000D03*
%TD*%
D20*
%TO.C,J11*%
X181720031Y-127508000D03*
D21*
X179180031Y-127508000D03*
X176640031Y-127508000D03*
%TD*%
D25*
%TO.C,C2*%
X124968000Y-99673000D03*
D26*
X124968000Y-94673000D03*
%TD*%
D27*
%TO.C,J1*%
X108846000Y-121743000D03*
X108846000Y-108243000D03*
D28*
X114846000Y-118593000D03*
D29*
X114846000Y-111393000D03*
%TD*%
D22*
%TO.C,U1*%
X105062000Y-104774000D03*
X105062000Y-93774000D03*
D30*
X115062000Y-96774000D03*
D24*
X115062000Y-101774000D03*
%TD*%
D31*
%TO.C,H3*%
X198882000Y-45212000D03*
%TD*%
D19*
%TO.C,C11*%
X189355349Y-135382000D03*
D13*
X192855349Y-135382000D03*
%TD*%
D20*
%TO.C,J4*%
X130048000Y-51308000D03*
D21*
X127508000Y-51308000D03*
X124968000Y-51308000D03*
X122428000Y-51308000D03*
X119888000Y-51308000D03*
%TD*%
D20*
%TO.C,J10*%
X170205365Y-127508000D03*
D21*
X167665365Y-127508000D03*
X165125365Y-127508000D03*
%TD*%
D20*
%TO.C,J9*%
X158690698Y-127508000D03*
D21*
X156150698Y-127508000D03*
X153610698Y-127508000D03*
%TD*%
D22*
%TO.C,U2*%
X145922000Y-138524000D03*
X134922000Y-138524000D03*
D24*
X142922000Y-128524000D03*
D23*
X137922000Y-128524000D03*
%TD*%
D20*
%TO.C,J5*%
X144018000Y-51308000D03*
D21*
X141478000Y-51308000D03*
X138938000Y-51308000D03*
X136398000Y-51308000D03*
X133858000Y-51308000D03*
%TD*%
D20*
%TO.C,J7*%
X119634000Y-74422000D03*
D21*
X122174000Y-74422000D03*
X124714000Y-74422000D03*
X127254000Y-74422000D03*
X129794000Y-74422000D03*
%TD*%
D25*
%TO.C,C1*%
X139192000Y-99782215D03*
D26*
X139192000Y-94782215D03*
%TD*%
D20*
%TO.C,J3*%
X116078000Y-51308000D03*
D21*
X113538000Y-51308000D03*
X110998000Y-51308000D03*
X108458000Y-51308000D03*
X105918000Y-51308000D03*
%TD*%
D19*
%TO.C,C10*%
X177840682Y-135382000D03*
D13*
X181340682Y-135382000D03*
%TD*%
D26*
%TO.C,F1*%
X121666000Y-114883785D03*
D17*
X120416000Y-121283785D03*
X122916000Y-121283785D03*
X120416000Y-117783785D03*
X122916000Y-117783785D03*
X120416000Y-111983785D03*
X122916000Y-111983785D03*
X120416000Y-108483785D03*
X122916000Y-108483785D03*
%TD*%
D31*
%TO.C,H2*%
X106934000Y-137160000D03*
%TD*%
D19*
%TO.C,C9*%
X166128016Y-135382000D03*
D13*
X169628016Y-135382000D03*
%TD*%
D31*
%TO.C,H1*%
X106934000Y-45466000D03*
%TD*%
D22*
%TO.C,U1*%
X105062000Y-90122000D03*
X105062000Y-79122000D03*
D24*
X115062000Y-87122000D03*
D30*
X115062000Y-82122000D03*
%TD*%
M02*
