%TF.GenerationSoftware,KiCad,Pcbnew,10.0.0*%
%TF.CreationDate,2026-05-09T10:54:28+08:00*%
%TF.ProjectId,PCB v0.3,50434220-7630-42e3-932e-6b696361645f,A*%
%TF.SameCoordinates,Original*%
%TF.FileFunction,Soldermask,Bot*%
%TF.FilePolarity,Negative*%
%FSLAX46Y46*%
G04 Gerber Fmt 4.6, Leading zero omitted, Abs format (unit mm)*
G04 Created by KiCad (PCBNEW 10.0.0) date 2026-05-09 10:54:28*
%MOMM*%
%LPD*%
G01*
G04 APERTURE LIST*
G04 Aperture macros list*
%AMRoundRect*
0 Rectangle with rounded corners*
0 $1 Rounding radius*
0 $2 $3 $4 $5 $6 $7 $8 $9 X,Y pos of 4 corners*
0 Add a 4 corners polygon primitive as box body*
4,1,4,$2,$3,$4,$5,$6,$7,$8,$9,$2,$3,0*
0 Add four circle primitives for the rounded corners*
1,1,$1+$1,$2,$3*
1,1,$1+$1,$4,$5*
1,1,$1+$1,$6,$7*
1,1,$1+$1,$8,$9*
0 Add four rect primitives between the rounded corners*
20,1,$1+$1,$2,$3,$4,$5,0*
20,1,$1+$1,$4,$5,$6,$7,0*
20,1,$1+$1,$6,$7,$8,$9,0*
20,1,$1+$1,$8,$9,$2,$3,0*%
G04 Aperture macros list end*
%ADD10RoundRect,0.250000X-0.750000X0.750000X-0.750000X-0.750000X0.750000X-0.750000X0.750000X0.750000X0*%
%ADD11C,2.000000*%
%ADD12RoundRect,0.770000X-0.980000X-0.980000X0.980000X-0.980000X0.980000X0.980000X-0.980000X0.980000X0*%
%ADD13C,3.500000*%
%ADD14C,1.400000*%
%ADD15C,2.200000*%
%ADD16C,1.850000*%
%ADD17C,5.600000*%
%ADD18RoundRect,0.250001X0.949999X0.949999X-0.949999X0.949999X-0.949999X-0.949999X0.949999X-0.949999X0*%
%ADD19C,2.400000*%
%ADD20C,2.750000*%
%ADD21R,1.750000X1.750000*%
%ADD22C,1.750000*%
%ADD23R,1.700000X1.700000*%
%ADD24C,1.700000*%
%ADD25RoundRect,0.250000X0.750000X0.750000X-0.750000X0.750000X-0.750000X-0.750000X0.750000X-0.750000X0*%
%ADD26O,8.000000X3.800000*%
%ADD27RoundRect,0.250001X0.949999X-0.949999X0.949999X0.949999X-0.949999X0.949999X-0.949999X-0.949999X0*%
%ADD28RoundRect,0.250000X-0.550000X0.550000X-0.550000X-0.550000X0.550000X-0.550000X0.550000X0.550000X0*%
%ADD29C,1.600000*%
%ADD30R,2.000000X0.900000*%
%ADD31RoundRect,1.025000X-1.025000X1.025000X-1.025000X-1.025000X1.025000X-1.025000X1.025000X1.025000X0*%
%ADD32C,4.100000*%
%TA.AperFunction,Profile*%
%ADD33C,0.254000*%
%TD*%
G04 APERTURE END LIST*
D10*
%TO.C,J11*%
X103885974Y-45974000D03*
D11*
X103885974Y-48514000D03*
X103885974Y-51054000D03*
X103885974Y-53594000D03*
X103885974Y-56134000D03*
%TD*%
D12*
%TO.C,J5*%
X168786000Y-44624000D03*
D13*
X173786000Y-44624000D03*
D14*
X165786000Y-39624000D03*
X176786000Y-39624000D03*
%TD*%
D15*
%TO.C,A1*%
X173959026Y-134502000D03*
D16*
X173659026Y-131472000D03*
X168809026Y-131472000D03*
D15*
X168509026Y-134502000D03*
%TD*%
D17*
%TO.C,H2*%
X103380000Y-40640000D03*
%TD*%
D18*
%TO.C,C1*%
X166372000Y-54356000D03*
D19*
X161372000Y-54356000D03*
%TD*%
D20*
%TO.C,J2*%
X191770000Y-74644000D03*
X142770000Y-74644000D03*
X191770000Y-132644000D03*
X142770000Y-132644000D03*
D21*
X190500000Y-79514000D03*
D22*
X193040000Y-79514000D03*
X190500000Y-82054000D03*
X193040000Y-82054000D03*
X190500000Y-84594000D03*
X193040000Y-84594000D03*
X190500000Y-87134000D03*
X193040000Y-87134000D03*
X190500000Y-89674000D03*
X193040000Y-89674000D03*
X190500000Y-92214000D03*
X193040000Y-92214000D03*
X190500000Y-94754000D03*
X193040000Y-94754000D03*
X190500000Y-97294000D03*
X193040000Y-97294000D03*
X190500000Y-99834000D03*
X193040000Y-99834000D03*
X190500000Y-102374000D03*
X193040000Y-102374000D03*
X190500000Y-104914000D03*
X193040000Y-104914000D03*
X190500000Y-107454000D03*
X193040000Y-107454000D03*
X190500000Y-109994000D03*
X193040000Y-109994000D03*
X190500000Y-112534000D03*
X193040000Y-112534000D03*
X190500000Y-115074000D03*
X193040000Y-115074000D03*
X190500000Y-117614000D03*
X193040000Y-117614000D03*
X190500000Y-120154000D03*
X193040000Y-120154000D03*
X190500000Y-122694000D03*
X193040000Y-122694000D03*
X190500000Y-125234000D03*
X193040000Y-125234000D03*
X190500000Y-127774000D03*
X193040000Y-127774000D03*
%TD*%
D23*
%TO.C,J10*%
X140969974Y-54828000D03*
D24*
X143509974Y-54828000D03*
X146049974Y-54828000D03*
%TD*%
D17*
%TO.C,H3*%
X103378000Y-132842000D03*
%TD*%
D12*
%TO.C,J3*%
X154054000Y-44624000D03*
D13*
X159054000Y-44624000D03*
D14*
X151054000Y-39624000D03*
X162054000Y-39624000D03*
%TD*%
D10*
%TO.C,J14*%
X103885974Y-88798400D03*
D11*
X103885974Y-91338400D03*
X103885974Y-93878400D03*
X103885974Y-96418400D03*
X103885974Y-98958400D03*
%TD*%
D25*
%TO.C,C7*%
X130639677Y-65218000D03*
D11*
X125639677Y-65218000D03*
%TD*%
D25*
%TO.C,C5*%
X145623651Y-43374000D03*
D11*
X140623651Y-43374000D03*
%TD*%
D23*
%TO.C,J9*%
X140972000Y-58420000D03*
D24*
X143512000Y-58420000D03*
X146052000Y-58420000D03*
%TD*%
D10*
%TO.C,J15*%
X103885974Y-103073200D03*
D11*
X103885974Y-105613200D03*
X103885974Y-108153200D03*
X103885974Y-110693200D03*
X103885974Y-113233200D03*
%TD*%
D23*
%TO.C,J8*%
X140969974Y-61976000D03*
D24*
X143509974Y-61976000D03*
X146049974Y-61976000D03*
%TD*%
D17*
%TO.C,H1*%
X191770026Y-40700000D03*
%TD*%
D26*
%TO.C,F1*%
X188802000Y-66040000D03*
X179502000Y-66040000D03*
%TD*%
D10*
%TO.C,J16*%
X103886000Y-117348000D03*
D11*
X103886000Y-119888000D03*
X103886000Y-122428000D03*
X103886000Y-124968000D03*
X103886000Y-127508000D03*
%TD*%
D10*
%TO.C,J12*%
X103885974Y-60248800D03*
D11*
X103885974Y-62788800D03*
X103885974Y-65328800D03*
X103885974Y-67868800D03*
X103885974Y-70408800D03*
%TD*%
D27*
%TO.C,C6*%
X115062000Y-66548000D03*
D19*
X115062000Y-61548000D03*
%TD*%
D10*
%TO.C,J13*%
X103885974Y-74523600D03*
D11*
X103885974Y-77063600D03*
X103885974Y-79603600D03*
X103885974Y-82143600D03*
X103885974Y-84683600D03*
%TD*%
D12*
%TO.C,J4*%
X117473974Y-49564000D03*
D13*
X112473974Y-49564000D03*
D14*
X109473974Y-39564000D03*
X120473974Y-39564000D03*
%TD*%
D23*
%TO.C,J7*%
X140972000Y-65532000D03*
D24*
X143512000Y-65532000D03*
X146052000Y-65532000D03*
%TD*%
D12*
%TO.C,J6*%
X132283974Y-49557000D03*
D13*
X127283974Y-49557000D03*
D14*
X124283974Y-39557000D03*
X135283974Y-39557000D03*
%TD*%
D28*
%TO.C,C8*%
X151638026Y-123327349D03*
D29*
X151638026Y-126827349D03*
%TD*%
D30*
%TO.C,J1*%
X187574000Y-47098000D03*
X187574000Y-60598000D03*
D31*
X181574000Y-50248000D03*
D32*
X181574000Y-57448000D03*
%TD*%
D33*
X99814874Y-40709126D02*
X99822000Y-132842000D01*
X99814874Y-40709126D02*
G75*
G02*
X103314874Y-37209074I3500026J26D01*
G01*
X103322000Y-136342000D02*
G75*
G02*
X99822000Y-132842000I0J3500000D01*
G01*
X191770000Y-37200000D02*
X103314874Y-37209126D01*
X191770000Y-37200000D02*
G75*
G02*
X195270000Y-40700000I0J-3500000D01*
G01*
X195270000Y-40700000D02*
X195279126Y-68580000D01*
X195897126Y-136332874D02*
X103322000Y-136342000D01*
X196185594Y-70768406D02*
G75*
G02*
X195279127Y-68580000I2188406J2188406D01*
G01*
X198374000Y-72898000D02*
X196185594Y-70768406D01*
X198376585Y-72895252D02*
G75*
G02*
X199316964Y-74930001I-2056585J-2185148D01*
G01*
X199397126Y-132832874D02*
X199316982Y-74930000D01*
X199397126Y-132832874D02*
G75*
G02*
X195897126Y-136332926I-3500026J-26D01*
G01*
M02*
